M48
; DRILL file {KiCad (7.0.0-0)} date Monday, May 29, 2023 at 03:27:19 PM
; FORMAT={-:-/ absolute / inch / decimal}
; #@! TF.CreationDate,2023-05-29T15:27:19-06:00
; #@! TF.GenerationSoftware,Kicad,Pcbnew,(7.0.0-0)
; #@! TF.FileFunction,Plated,1,2,PTH
FMAT,2
INCH
; #@! TA.AperFunction,Plated,PTH,ViaDrill
T1C0.0157
; #@! TA.AperFunction,Plated,PTH,ComponentDrill
T2C0.0394
%
G90
G05
T1
X0.7Y-3.0
X0.8725Y-3.3
X0.9Y-2.1
X0.9Y-2.2
X0.9Y-2.3
X0.9Y-2.4
X0.9Y-2.6
X0.9Y-2.7
X1.0Y-3.0
X1.0Y-3.1
X1.0Y-3.2
X1.1Y-2.5
X1.2Y-2.5
X1.2Y-2.9
X1.3Y-2.1
X1.3398Y-3.2992
X1.5Y-1.8
X1.6Y-3.4
X1.7Y-3.7
X1.8Y-2.0
X1.9Y-1.1
X2.0Y-3.3
X2.0Y-3.4
X2.0Y-3.5
X2.0Y-3.6
X2.1Y-0.7
X2.1Y-1.6431
X2.1Y-1.7285
X2.1Y-1.8
X2.1Y-3.5
X2.2Y-3.0
X2.3Y-2.3
X2.3Y-2.5
X2.4Y-1.9
X2.4Y-2.0
X2.4Y-2.1
X2.5Y-1.8
X2.5Y-2.0
X2.5Y-2.6
X2.6Y-2.6
X2.6Y-2.7
X2.6Y-3.2
X2.6Y-3.3
X2.6086Y-3.0914
X2.7Y-2.0
X2.7Y-2.2
X2.7562Y-2.3821
X2.8Y-2.7
X2.8Y-3.2
X2.9Y-2.3567
X2.9Y-1.5
X2.9Y-2.1
X2.9Y-2.3
X2.9Y-2.3975
X2.9Y-2.5
X2.9Y-2.6
X2.9Y-3.3
X2.9Y-3.4
X2.9985Y-2.4585
X3.0Y-2.2
X3.0Y-2.3
X3.0Y-2.3975
X3.0Y-2.7
X3.1Y-3.0
X3.1Y-3.2
X3.1Y-3.4
X3.2Y-1.6
X3.2Y-2.1
X3.3921Y-1.0
X3.4Y-2.7
X3.4621Y-3.7988
X3.5Y-1.2
X3.5Y-1.5
X3.6Y-0.8
X3.6Y-0.9
X3.6Y-1.1
X3.6Y-1.2
X3.6161Y-0.9839
X3.6394Y-2.3402
X3.6924Y-2.6512
X3.7Y-1.2
X3.7Y-2.0
X3.7Y-2.5
X3.8Y-1.1
X3.8Y-1.3
X3.8Y-1.4
X3.8127Y-2.5
X3.8127Y-2.6
X3.8188Y-2.9246
X3.8447Y-0.8473
X3.9717Y-0.9899
X4.0Y-2.2
X4.0001Y-2.552
X4.0008Y-2.4375
X4.0047Y-2.332
X4.0114Y-1.0578
X4.1Y-1.0293
T2
X0.7Y-2.6
X0.7Y-2.7
X0.7Y-2.8
X0.8Y-2.6
X0.8Y-2.7
X0.8Y-2.8
X1.5Y-0.9
X1.5Y-1.5
X1.6Y-0.9
X1.6Y-1.5
X1.7Y-0.9
X1.7Y-1.5
X1.8Y-0.9
X1.8Y-1.5
X1.9Y-0.9
X1.9Y-1.5
X2.0Y-0.9
X2.0Y-1.5
X2.7Y-2.8
X2.7Y-2.9
X2.7Y-3.0
X2.7Y-3.1
X2.8Y-2.8
X2.8Y-2.9
X2.8Y-3.0
X2.8Y-3.1
X3.2504Y-2.0
X3.5496Y-2.0
T0
M30
