%TF.GenerationSoftware,KiCad,Pcbnew,(7.0.0-0)*%
%TF.CreationDate,2023-05-29T15:25:59-06:00*%
%TF.ProjectId,Phase_B_ATMEGA_v3,50686173-655f-4425-9f41-544d4547415f,rev?*%
%TF.SameCoordinates,Original*%
%TF.FileFunction,Paste,Top*%
%TF.FilePolarity,Positive*%
%FSLAX46Y46*%
G04 Gerber Fmt 4.6, Leading zero omitted, Abs format (unit mm)*
G04 Created by KiCad (PCBNEW (7.0.0-0)) date 2023-05-29 15:25:59*
%MOMM*%
%LPD*%
G01*
G04 APERTURE LIST*
G04 Aperture macros list*
%AMRoundRect*
0 Rectangle with rounded corners*
0 $1 Rounding radius*
0 $2 $3 $4 $5 $6 $7 $8 $9 X,Y pos of 4 corners*
0 Add a 4 corners polygon primitive as box body*
4,1,4,$2,$3,$4,$5,$6,$7,$8,$9,$2,$3,0*
0 Add four circle primitives for the rounded corners*
1,1,$1+$1,$2,$3*
1,1,$1+$1,$4,$5*
1,1,$1+$1,$6,$7*
1,1,$1+$1,$8,$9*
0 Add four rect primitives between the rounded corners*
20,1,$1+$1,$2,$3,$4,$5,0*
20,1,$1+$1,$4,$5,$6,$7,0*
20,1,$1+$1,$6,$7,$8,$9,0*
20,1,$1+$1,$8,$9,$2,$3,0*%
G04 Aperture macros list end*
%ADD10RoundRect,0.250000X0.450000X-0.262500X0.450000X0.262500X-0.450000X0.262500X-0.450000X-0.262500X0*%
%ADD11RoundRect,0.243750X-0.243750X-0.456250X0.243750X-0.456250X0.243750X0.456250X-0.243750X0.456250X0*%
%ADD12RoundRect,0.225000X-0.225000X-0.250000X0.225000X-0.250000X0.225000X0.250000X-0.225000X0.250000X0*%
%ADD13RoundRect,0.200000X0.200000X0.275000X-0.200000X0.275000X-0.200000X-0.275000X0.200000X-0.275000X0*%
%ADD14RoundRect,0.250000X-0.312500X-1.450000X0.312500X-1.450000X0.312500X1.450000X-0.312500X1.450000X0*%
%ADD15RoundRect,0.250000X-0.262500X-0.450000X0.262500X-0.450000X0.262500X0.450000X-0.262500X0.450000X0*%
%ADD16RoundRect,0.200000X-0.200000X-0.275000X0.200000X-0.275000X0.200000X0.275000X-0.200000X0.275000X0*%
%ADD17RoundRect,0.243750X0.456250X-0.243750X0.456250X0.243750X-0.456250X0.243750X-0.456250X-0.243750X0*%
%ADD18R,1.400000X1.200000*%
%ADD19R,1.500000X2.000000*%
%ADD20R,0.500000X2.000000*%
%ADD21R,2.000000X1.700000*%
%ADD22RoundRect,0.250000X-0.250000X-0.475000X0.250000X-0.475000X0.250000X0.475000X-0.250000X0.475000X0*%
%ADD23RoundRect,0.150000X-0.150000X0.512500X-0.150000X-0.512500X0.150000X-0.512500X0.150000X0.512500X0*%
%ADD24R,1.500000X0.550000*%
%ADD25R,0.550000X1.500000*%
%ADD26R,1.000000X0.700000*%
%ADD27RoundRect,0.100000X-0.637500X-0.100000X0.637500X-0.100000X0.637500X0.100000X-0.637500X0.100000X0*%
%ADD28RoundRect,0.150000X-0.512500X-0.150000X0.512500X-0.150000X0.512500X0.150000X-0.512500X0.150000X0*%
G04 APERTURE END LIST*
D10*
%TO.C,R3*%
X78740000Y-72945000D03*
X78740000Y-71120000D03*
%TD*%
D11*
%TO.C,D3*%
X35560000Y-83820000D03*
X37435000Y-83820000D03*
%TD*%
D12*
%TO.C,C4*%
X47485000Y-83820000D03*
X49035000Y-83820000D03*
%TD*%
D13*
%TO.C,R14*%
X60209305Y-71365909D03*
X58559305Y-71365909D03*
%TD*%
D14*
%TO.C,F1*%
X91842500Y-83820000D03*
X96117500Y-83820000D03*
%TD*%
D12*
%TO.C,C7*%
X47485000Y-91560000D03*
X49035000Y-91560000D03*
%TD*%
D15*
%TO.C,R10*%
X85427391Y-35561215D03*
X87252391Y-35561215D03*
%TD*%
D10*
%TO.C,R2*%
X50800000Y-47545000D03*
X50800000Y-45720000D03*
%TD*%
D12*
%TO.C,C10*%
X20320000Y-55940000D03*
X21870000Y-55940000D03*
%TD*%
D16*
%TO.C,R15*%
X40640000Y-76200000D03*
X42290000Y-76200000D03*
%TD*%
D10*
%TO.C,R4*%
X83820000Y-72945000D03*
X83820000Y-71120000D03*
%TD*%
D12*
%TO.C,C1*%
X98460000Y-56145000D03*
X100010000Y-56145000D03*
%TD*%
%TO.C,C14*%
X98546503Y-62022295D03*
X100096503Y-62022295D03*
%TD*%
%TO.C,C13*%
X98463299Y-59276572D03*
X100013299Y-59276572D03*
%TD*%
D17*
%TO.C,D1*%
X78740000Y-68580000D03*
X78740000Y-66705000D03*
%TD*%
D18*
%TO.C,Y1*%
X68579999Y-85519999D03*
X70779999Y-85519999D03*
X70779999Y-83819999D03*
X68579999Y-83819999D03*
%TD*%
D19*
%TO.C,S2*%
X45619999Y-68109999D03*
X45619999Y-53809999D03*
X50619999Y-68109999D03*
X50619999Y-53809999D03*
%TD*%
D12*
%TO.C,C6*%
X47485000Y-88900000D03*
X49035000Y-88900000D03*
%TD*%
D16*
%TO.C,R17*%
X74550000Y-81280000D03*
X76200000Y-81280000D03*
%TD*%
D19*
%TO.C,S1*%
X30519999Y-68109999D03*
X30519999Y-53809999D03*
X35519999Y-68109999D03*
X35519999Y-53809999D03*
%TD*%
D20*
%TO.C,J2*%
X84759999Y-98899999D03*
X85559999Y-98899999D03*
X86359999Y-98899999D03*
X87159999Y-98899999D03*
X87959999Y-98899999D03*
D21*
X81909999Y-98999999D03*
X81909999Y-104449999D03*
X90809999Y-98999999D03*
X90809999Y-104449999D03*
%TD*%
D12*
%TO.C,C3*%
X75425000Y-86360000D03*
X76975000Y-86360000D03*
%TD*%
D15*
%TO.C,R8*%
X85447500Y-30480000D03*
X87272500Y-30480000D03*
%TD*%
D16*
%TO.C,R16*%
X27940000Y-83820000D03*
X29590000Y-83820000D03*
%TD*%
D15*
%TO.C,R11*%
X85427391Y-38101215D03*
X87252391Y-38101215D03*
%TD*%
D13*
%TO.C,R13*%
X60070000Y-68580000D03*
X58420000Y-68580000D03*
%TD*%
D22*
%TO.C,C8*%
X60010000Y-45720000D03*
X61910000Y-45720000D03*
%TD*%
D12*
%TO.C,C5*%
X47485000Y-86360000D03*
X49035000Y-86360000D03*
%TD*%
D15*
%TO.C,R5*%
X85447500Y-22860000D03*
X87272500Y-22860000D03*
%TD*%
D17*
%TO.C,D2*%
X83820000Y-68580000D03*
X83820000Y-66705000D03*
%TD*%
D23*
%TO.C,U5*%
X93340000Y-61225000D03*
X92390000Y-61225000D03*
X91440000Y-61225000D03*
X91440000Y-63500000D03*
X93340000Y-63500000D03*
%TD*%
D15*
%TO.C,R6*%
X85447500Y-25400000D03*
X87272500Y-25400000D03*
%TD*%
D24*
%TO.C,U3*%
X60339999Y-54419999D03*
X60339999Y-55219999D03*
X60339999Y-56019999D03*
X60339999Y-56819999D03*
X60339999Y-57619999D03*
X60339999Y-58419999D03*
X60339999Y-59219999D03*
X60339999Y-60019999D03*
X60339999Y-60819999D03*
X60339999Y-61619999D03*
X60339999Y-62419999D03*
D25*
X62039999Y-64119999D03*
X62839999Y-64119999D03*
X63639999Y-64119999D03*
X64439999Y-64119999D03*
X65239999Y-64119999D03*
X66039999Y-64119999D03*
X66839999Y-64119999D03*
X67639999Y-64119999D03*
X68439999Y-64119999D03*
X69239999Y-64119999D03*
X70039999Y-64119999D03*
D24*
X71739999Y-62419999D03*
X71739999Y-61619999D03*
X71739999Y-60819999D03*
X71739999Y-60019999D03*
X71739999Y-59219999D03*
X71739999Y-58419999D03*
X71739999Y-57619999D03*
X71739999Y-56819999D03*
X71739999Y-56019999D03*
X71739999Y-55219999D03*
X71739999Y-54419999D03*
D25*
X70039999Y-52719999D03*
X69239999Y-52719999D03*
X68439999Y-52719999D03*
X67639999Y-52719999D03*
X66839999Y-52719999D03*
X66039999Y-52719999D03*
X65239999Y-52719999D03*
X64439999Y-52719999D03*
X63639999Y-52719999D03*
X62839999Y-52719999D03*
X62039999Y-52719999D03*
%TD*%
D26*
%TO.C,S3*%
X98599999Y-74349999D03*
X104599999Y-74349999D03*
X98599999Y-78049999D03*
X104599999Y-78049999D03*
%TD*%
D12*
%TO.C,C15*%
X98463299Y-64851221D03*
X100013299Y-64851221D03*
%TD*%
D10*
%TO.C,R1*%
X35560000Y-47767500D03*
X35560000Y-45942500D03*
%TD*%
D12*
%TO.C,C9*%
X20320000Y-53430000D03*
X21870000Y-53430000D03*
%TD*%
%TO.C,C11*%
X20320000Y-58450000D03*
X21870000Y-58450000D03*
%TD*%
D27*
%TO.C,U2*%
X93335000Y-23125000D03*
X93335000Y-23775000D03*
X93335000Y-24425000D03*
X93335000Y-25075000D03*
X93335000Y-25725000D03*
X93335000Y-26375000D03*
X93335000Y-27025000D03*
X93335000Y-27675000D03*
X99060000Y-27675000D03*
X99060000Y-27025000D03*
X99060000Y-26375000D03*
X99060000Y-25725000D03*
X99060000Y-25075000D03*
X99060000Y-24425000D03*
X99060000Y-23775000D03*
X99060000Y-23125000D03*
%TD*%
D15*
%TO.C,R9*%
X85457882Y-32978447D03*
X87282882Y-32978447D03*
%TD*%
D28*
%TO.C,U4*%
X26802500Y-75250000D03*
X26802500Y-76200000D03*
X26802500Y-77150000D03*
X29077500Y-77150000D03*
X29077500Y-76200000D03*
X29077500Y-75250000D03*
%TD*%
D15*
%TO.C,R7*%
X85447500Y-27940000D03*
X87272500Y-27940000D03*
%TD*%
D12*
%TO.C,C12*%
X20320000Y-60960000D03*
X21870000Y-60960000D03*
%TD*%
D15*
%TO.C,R12*%
X85427391Y-40641215D03*
X87252391Y-40641215D03*
%TD*%
D12*
%TO.C,C2*%
X55400000Y-88900000D03*
X56950000Y-88900000D03*
%TD*%
M02*
