%TF.GenerationSoftware,KiCad,Pcbnew,(7.0.0-0)*%
%TF.CreationDate,2023-05-29T15:25:59-06:00*%
%TF.ProjectId,Phase_B_ATMEGA_v3,50686173-655f-4425-9f41-544d4547415f,rev?*%
%TF.SameCoordinates,Original*%
%TF.FileFunction,Copper,L1,Top*%
%TF.FilePolarity,Positive*%
%FSLAX46Y46*%
G04 Gerber Fmt 4.6, Leading zero omitted, Abs format (unit mm)*
G04 Created by KiCad (PCBNEW (7.0.0-0)) date 2023-05-29 15:25:59*
%MOMM*%
%LPD*%
G01*
G04 APERTURE LIST*
G04 Aperture macros list*
%AMRoundRect*
0 Rectangle with rounded corners*
0 $1 Rounding radius*
0 $2 $3 $4 $5 $6 $7 $8 $9 X,Y pos of 4 corners*
0 Add a 4 corners polygon primitive as box body*
4,1,4,$2,$3,$4,$5,$6,$7,$8,$9,$2,$3,0*
0 Add four circle primitives for the rounded corners*
1,1,$1+$1,$2,$3*
1,1,$1+$1,$4,$5*
1,1,$1+$1,$6,$7*
1,1,$1+$1,$8,$9*
0 Add four rect primitives between the rounded corners*
20,1,$1+$1,$2,$3,$4,$5,0*
20,1,$1+$1,$4,$5,$6,$7,0*
20,1,$1+$1,$6,$7,$8,$9,0*
20,1,$1+$1,$8,$9,$2,$3,0*%
G04 Aperture macros list end*
%TA.AperFunction,SMDPad,CuDef*%
%ADD10RoundRect,0.250000X0.450000X-0.262500X0.450000X0.262500X-0.450000X0.262500X-0.450000X-0.262500X0*%
%TD*%
%TA.AperFunction,SMDPad,CuDef*%
%ADD11RoundRect,0.243750X-0.243750X-0.456250X0.243750X-0.456250X0.243750X0.456250X-0.243750X0.456250X0*%
%TD*%
%TA.AperFunction,SMDPad,CuDef*%
%ADD12RoundRect,0.225000X-0.225000X-0.250000X0.225000X-0.250000X0.225000X0.250000X-0.225000X0.250000X0*%
%TD*%
%TA.AperFunction,SMDPad,CuDef*%
%ADD13RoundRect,0.200000X0.200000X0.275000X-0.200000X0.275000X-0.200000X-0.275000X0.200000X-0.275000X0*%
%TD*%
%TA.AperFunction,SMDPad,CuDef*%
%ADD14RoundRect,0.250000X-0.312500X-1.450000X0.312500X-1.450000X0.312500X1.450000X-0.312500X1.450000X0*%
%TD*%
%TA.AperFunction,SMDPad,CuDef*%
%ADD15RoundRect,0.250000X-0.262500X-0.450000X0.262500X-0.450000X0.262500X0.450000X-0.262500X0.450000X0*%
%TD*%
%TA.AperFunction,SMDPad,CuDef*%
%ADD16RoundRect,0.200000X-0.200000X-0.275000X0.200000X-0.275000X0.200000X0.275000X-0.200000X0.275000X0*%
%TD*%
%TA.AperFunction,SMDPad,CuDef*%
%ADD17RoundRect,0.243750X0.456250X-0.243750X0.456250X0.243750X-0.456250X0.243750X-0.456250X-0.243750X0*%
%TD*%
%TA.AperFunction,SMDPad,CuDef*%
%ADD18R,1.400000X1.200000*%
%TD*%
%TA.AperFunction,SMDPad,CuDef*%
%ADD19R,1.500000X2.000000*%
%TD*%
%TA.AperFunction,SMDPad,CuDef*%
%ADD20R,0.500000X2.000000*%
%TD*%
%TA.AperFunction,SMDPad,CuDef*%
%ADD21R,2.000000X1.700000*%
%TD*%
%TA.AperFunction,ComponentPad*%
%ADD22R,2.000000X2.000000*%
%TD*%
%TA.AperFunction,ComponentPad*%
%ADD23C,2.000000*%
%TD*%
%TA.AperFunction,ComponentPad*%
%ADD24R,1.700000X1.700000*%
%TD*%
%TA.AperFunction,ComponentPad*%
%ADD25O,1.700000X1.700000*%
%TD*%
%TA.AperFunction,SMDPad,CuDef*%
%ADD26RoundRect,0.250000X-0.250000X-0.475000X0.250000X-0.475000X0.250000X0.475000X-0.250000X0.475000X0*%
%TD*%
%TA.AperFunction,SMDPad,CuDef*%
%ADD27RoundRect,0.150000X-0.150000X0.512500X-0.150000X-0.512500X0.150000X-0.512500X0.150000X0.512500X0*%
%TD*%
%TA.AperFunction,SMDPad,CuDef*%
%ADD28R,1.500000X0.550000*%
%TD*%
%TA.AperFunction,SMDPad,CuDef*%
%ADD29R,0.550000X1.500000*%
%TD*%
%TA.AperFunction,ComponentPad*%
%ADD30R,1.500000X1.500000*%
%TD*%
%TA.AperFunction,ComponentPad*%
%ADD31C,1.500000*%
%TD*%
%TA.AperFunction,SMDPad,CuDef*%
%ADD32R,1.000000X0.700000*%
%TD*%
%TA.AperFunction,SMDPad,CuDef*%
%ADD33RoundRect,0.100000X-0.637500X-0.100000X0.637500X-0.100000X0.637500X0.100000X-0.637500X0.100000X0*%
%TD*%
%TA.AperFunction,SMDPad,CuDef*%
%ADD34RoundRect,0.150000X-0.512500X-0.150000X0.512500X-0.150000X0.512500X0.150000X-0.512500X0.150000X0*%
%TD*%
%TA.AperFunction,ViaPad*%
%ADD35C,0.800000*%
%TD*%
%TA.AperFunction,Conductor*%
%ADD36C,0.250000*%
%TD*%
%TA.AperFunction,Conductor*%
%ADD37C,0.200000*%
%TD*%
G04 APERTURE END LIST*
D10*
%TO.P,R3,1*%
%TO.N,RED_LED*%
X78740000Y-72945000D03*
%TO.P,R3,2*%
%TO.N,Net-(D1-A)*%
X78740000Y-71120000D03*
%TD*%
D11*
%TO.P,D3,1,K*%
%TO.N,GND*%
X35560000Y-83820000D03*
%TO.P,D3,2,A*%
%TO.N,Net-(D3-A)*%
X37435000Y-83820000D03*
%TD*%
D12*
%TO.P,C4,1*%
%TO.N,+5V*%
X47485000Y-83820000D03*
%TO.P,C4,2*%
%TO.N,GND*%
X49035000Y-83820000D03*
%TD*%
D13*
%TO.P,R14,1*%
%TO.N,Net-(J2-D+)*%
X60209305Y-71365909D03*
%TO.P,R14,2*%
%TO.N,USB_CONN_D+*%
X58559305Y-71365909D03*
%TD*%
D14*
%TO.P,F1,1*%
%TO.N,Net-(J2-VBUS)*%
X91842500Y-83820000D03*
%TO.P,F1,2*%
%TO.N,+5V*%
X96117500Y-83820000D03*
%TD*%
D12*
%TO.P,C7,1*%
%TO.N,+5V*%
X47485000Y-91560000D03*
%TO.P,C7,2*%
%TO.N,GND*%
X49035000Y-91560000D03*
%TD*%
D15*
%TO.P,R10,1*%
%TO.N,f*%
X85427391Y-35561215D03*
%TO.P,R10,2*%
%TO.N,Net-(U1-f)*%
X87252391Y-35561215D03*
%TD*%
D10*
%TO.P,R2,1*%
%TO.N,Button_2*%
X50800000Y-47545000D03*
%TO.P,R2,2*%
%TO.N,GND*%
X50800000Y-45720000D03*
%TD*%
D12*
%TO.P,C10,1*%
%TO.N,+5V*%
X20320000Y-55940000D03*
%TO.P,C10,2*%
%TO.N,GND*%
X21870000Y-55940000D03*
%TD*%
D16*
%TO.P,R15,1*%
%TO.N,Net-(J2-D-)*%
X40640000Y-76200000D03*
%TO.P,R15,2*%
%TO.N,USB_CONN_D-*%
X42290000Y-76200000D03*
%TD*%
D10*
%TO.P,R4,1*%
%TO.N,GREEN_LED*%
X83820000Y-72945000D03*
%TO.P,R4,2*%
%TO.N,Net-(D2-A)*%
X83820000Y-71120000D03*
%TD*%
D12*
%TO.P,C1,1*%
%TO.N,+5V*%
X98460000Y-56145000D03*
%TO.P,C1,2*%
%TO.N,GND*%
X100010000Y-56145000D03*
%TD*%
%TO.P,C14,1*%
%TO.N,+3.3V*%
X98546503Y-62022295D03*
%TO.P,C14,2*%
%TO.N,GND*%
X100096503Y-62022295D03*
%TD*%
%TO.P,C13,1*%
%TO.N,+5V*%
X98463299Y-59276572D03*
%TO.P,C13,2*%
%TO.N,GND*%
X100013299Y-59276572D03*
%TD*%
D17*
%TO.P,D1,1,K*%
%TO.N,GND*%
X78740000Y-68580000D03*
%TO.P,D1,2,A*%
%TO.N,Net-(D1-A)*%
X78740000Y-66705000D03*
%TD*%
D18*
%TO.P,Y1,1,1*%
%TO.N,XTAL1*%
X68579999Y-85519999D03*
%TO.P,Y1,2,2*%
%TO.N,GND*%
X70779999Y-85519999D03*
%TO.P,Y1,3,3*%
%TO.N,XTAL2*%
X70779999Y-83819999D03*
%TO.P,Y1,4,4*%
%TO.N,GND*%
X68579999Y-83819999D03*
%TD*%
D19*
%TO.P,S2,A1,NO_1*%
%TO.N,unconnected-(S2-NO_1-PadA1)*%
X45619999Y-68109999D03*
%TO.P,S2,B1,NO_2*%
%TO.N,Button_2*%
X45619999Y-53809999D03*
%TO.P,S2,C1,COM_1*%
%TO.N,+5V*%
X50619999Y-68109999D03*
%TO.P,S2,D1,COM_2*%
%TO.N,unconnected-(S2-COM_2-PadD1)*%
X50619999Y-53809999D03*
%TD*%
D12*
%TO.P,C6,1*%
%TO.N,+5V*%
X47485000Y-88900000D03*
%TO.P,C6,2*%
%TO.N,GND*%
X49035000Y-88900000D03*
%TD*%
D16*
%TO.P,R17,1*%
%TO.N,+3.3V*%
X74550000Y-81280000D03*
%TO.P,R17,2*%
%TO.N,Net-(J3-Pin_5)*%
X76200000Y-81280000D03*
%TD*%
D19*
%TO.P,S1,A1,NO_1*%
%TO.N,unconnected-(S1-NO_1-PadA1)*%
X30519999Y-68109999D03*
%TO.P,S1,B1,NO_2*%
%TO.N,Button_1*%
X30519999Y-53809999D03*
%TO.P,S1,C1,COM_1*%
%TO.N,+5V*%
X35519999Y-68109999D03*
%TO.P,S1,D1,COM_2*%
%TO.N,unconnected-(S1-COM_2-PadD1)*%
X35519999Y-53809999D03*
%TD*%
D20*
%TO.P,J2,1,VBUS*%
%TO.N,Net-(J2-VBUS)*%
X84759999Y-98899999D03*
%TO.P,J2,2,D-*%
%TO.N,Net-(J2-D-)*%
X85559999Y-98899999D03*
%TO.P,J2,3,D+*%
%TO.N,Net-(J2-D+)*%
X86359999Y-98899999D03*
%TO.P,J2,4,ID*%
%TO.N,unconnected-(J2-ID-Pad4)*%
X87159999Y-98899999D03*
%TO.P,J2,5,GND*%
%TO.N,GND*%
X87959999Y-98899999D03*
D21*
%TO.P,J2,6,Shield*%
%TO.N,unconnected-(J2-Shield-Pad6)*%
X81909999Y-98999999D03*
X81909999Y-104449999D03*
X90809999Y-98999999D03*
X90809999Y-104449999D03*
%TD*%
D12*
%TO.P,C3,1*%
%TO.N,XTAL2*%
X75425000Y-86360000D03*
%TO.P,C3,2*%
%TO.N,GND*%
X76975000Y-86360000D03*
%TD*%
D15*
%TO.P,R8,1*%
%TO.N,d*%
X85447500Y-30480000D03*
%TO.P,R8,2*%
%TO.N,Net-(U1-d)*%
X87272500Y-30480000D03*
%TD*%
D16*
%TO.P,R16,1*%
%TO.N,+5V*%
X27940000Y-83820000D03*
%TO.P,R16,2*%
%TO.N,Net-(D3-A)*%
X29590000Y-83820000D03*
%TD*%
D22*
%TO.P,LS1,1,1*%
%TO.N,Buzzer*%
X82559999Y-50799999D03*
D23*
%TO.P,LS1,2,2*%
%TO.N,GND*%
X90160000Y-50800000D03*
%TD*%
D15*
%TO.P,R11,1*%
%TO.N,g*%
X85427391Y-38101215D03*
%TO.P,R11,2*%
%TO.N,Net-(U1-g)*%
X87252391Y-38101215D03*
%TD*%
D24*
%TO.P,J3,1,Pin_1*%
%TO.N,GND*%
X71119999Y-71119999D03*
D25*
%TO.P,J3,2,Pin_2*%
%TO.N,TX*%
X68579999Y-71119999D03*
%TO.P,J3,3,Pin_3*%
%TO.N,unconnected-(J3-Pin_3-Pad3)*%
X71119999Y-73659999D03*
%TO.P,J3,4,Pin_4*%
%TO.N,+3.3V*%
X68579999Y-73659999D03*
%TO.P,J3,5,Pin_5*%
%TO.N,Net-(J3-Pin_5)*%
X71119999Y-76199999D03*
%TO.P,J3,6,Pin_6*%
%TO.N,+3.3V*%
X68579999Y-76199999D03*
%TO.P,J3,7,Pin_7*%
%TO.N,RX*%
X71119999Y-78739999D03*
%TO.P,J3,8,Pin_8*%
%TO.N,+3.3V*%
X68579999Y-78739999D03*
%TD*%
D13*
%TO.P,R13,1*%
%TO.N,+5V*%
X60070000Y-68580000D03*
%TO.P,R13,2*%
%TO.N,RST*%
X58420000Y-68580000D03*
%TD*%
D26*
%TO.P,C8,1*%
%TO.N,+5V*%
X60010000Y-45720000D03*
%TO.P,C8,2*%
%TO.N,GND*%
X61910000Y-45720000D03*
%TD*%
D24*
%TO.P,J1,1,MISO*%
%TO.N,MISO*%
X17779999Y-71119999D03*
D25*
%TO.P,J1,2,VCC*%
%TO.N,+5V*%
X20319999Y-71119999D03*
%TO.P,J1,3,SCK*%
%TO.N,SCK*%
X17779999Y-68579999D03*
%TO.P,J1,4,MOSI*%
%TO.N,MOSI*%
X20319999Y-68579999D03*
%TO.P,J1,5,~{RST}*%
%TO.N,RST*%
X17779999Y-66039999D03*
%TO.P,J1,6,GND*%
%TO.N,GND*%
X20319999Y-66039999D03*
%TD*%
D12*
%TO.P,C5,1*%
%TO.N,+5V*%
X47485000Y-86360000D03*
%TO.P,C5,2*%
%TO.N,GND*%
X49035000Y-86360000D03*
%TD*%
D15*
%TO.P,R5,1*%
%TO.N,a*%
X85447500Y-22860000D03*
%TO.P,R5,2*%
%TO.N,Net-(U1-a)*%
X87272500Y-22860000D03*
%TD*%
D17*
%TO.P,D2,1,K*%
%TO.N,GND*%
X83820000Y-68580000D03*
%TO.P,D2,2,A*%
%TO.N,Net-(D2-A)*%
X83820000Y-66705000D03*
%TD*%
D27*
%TO.P,U5,1,VIN*%
%TO.N,+5V*%
X93340000Y-61225000D03*
%TO.P,U5,2,GND*%
%TO.N,GND*%
X92390000Y-61225000D03*
%TO.P,U5,3,ON/~{OFF}*%
%TO.N,+5V*%
X91440000Y-61225000D03*
%TO.P,U5,4,BP*%
%TO.N,Net-(U5-BP)*%
X91440000Y-63500000D03*
%TO.P,U5,5,VOUT*%
%TO.N,+3.3V*%
X93340000Y-63500000D03*
%TD*%
D15*
%TO.P,R6,1*%
%TO.N,b*%
X85447500Y-25400000D03*
%TO.P,R6,2*%
%TO.N,Net-(U1-b)*%
X87272500Y-25400000D03*
%TD*%
D28*
%TO.P,U3,1,PE6*%
%TO.N,SH_CP*%
X60339999Y-54419999D03*
%TO.P,U3,2,UVCC*%
%TO.N,+5V*%
X60339999Y-55219999D03*
%TO.P,U3,3,D-*%
%TO.N,USB_D-*%
X60339999Y-56019999D03*
%TO.P,U3,4,D+*%
%TO.N,USB_D+*%
X60339999Y-56819999D03*
%TO.P,U3,5,UGND*%
%TO.N,GND*%
X60339999Y-57619999D03*
%TO.P,U3,6,UCAP*%
%TO.N,/UCAP*%
X60339999Y-58419999D03*
%TO.P,U3,7,VBUS*%
%TO.N,+5V*%
X60339999Y-59219999D03*
%TO.P,U3,8,PB0*%
%TO.N,unconnected-(U3-PB0-Pad8)*%
X60339999Y-60019999D03*
%TO.P,U3,9,PB1*%
%TO.N,SCK*%
X60339999Y-60819999D03*
%TO.P,U3,10,PB2*%
%TO.N,MOSI*%
X60339999Y-61619999D03*
%TO.P,U3,11,PB3*%
%TO.N,MISO*%
X60339999Y-62419999D03*
D29*
%TO.P,U3,12,PB7*%
%TO.N,Dig3*%
X62039999Y-64119999D03*
%TO.P,U3,13,~{RESET}*%
%TO.N,RST*%
X62839999Y-64119999D03*
%TO.P,U3,14,VCC*%
%TO.N,+5V*%
X63639999Y-64119999D03*
%TO.P,U3,15,GND*%
%TO.N,GND*%
X64439999Y-64119999D03*
%TO.P,U3,16,XTAL2*%
%TO.N,XTAL2*%
X65239999Y-64119999D03*
%TO.P,U3,17,XTAL1*%
%TO.N,XTAL1*%
X66039999Y-64119999D03*
%TO.P,U3,18,PD0*%
%TO.N,Button_2*%
X66839999Y-64119999D03*
%TO.P,U3,19,PD1*%
%TO.N,Button_1*%
X67639999Y-64119999D03*
%TO.P,U3,20,PD2*%
%TO.N,TX*%
X68439999Y-64119999D03*
%TO.P,U3,21,PD3*%
%TO.N,RX*%
X69239999Y-64119999D03*
%TO.P,U3,22,PD5*%
%TO.N,unconnected-(U3-PD5-Pad22)*%
X70039999Y-64119999D03*
D28*
%TO.P,U3,23,GND*%
%TO.N,GND*%
X71739999Y-62419999D03*
%TO.P,U3,24,AVCC*%
%TO.N,+5V*%
X71739999Y-61619999D03*
%TO.P,U3,25,PD4*%
%TO.N,GREEN_LED*%
X71739999Y-60819999D03*
%TO.P,U3,26,PD6*%
%TO.N,Dig2*%
X71739999Y-60019999D03*
%TO.P,U3,27,PD7*%
%TO.N,Buzzer*%
X71739999Y-59219999D03*
%TO.P,U3,28,PB4*%
%TO.N,ST_CP*%
X71739999Y-58419999D03*
%TO.P,U3,29,PB5*%
%TO.N,DS*%
X71739999Y-57619999D03*
%TO.P,U3,30,PB6*%
%TO.N,Dig4*%
X71739999Y-56819999D03*
%TO.P,U3,31,PC6*%
%TO.N,RED_LED*%
X71739999Y-56019999D03*
%TO.P,U3,32,PC7*%
%TO.N,Dig1*%
X71739999Y-55219999D03*
%TO.P,U3,33,~{HWB}/PE2*%
%TO.N,GND*%
X71739999Y-54419999D03*
D29*
%TO.P,U3,34,VCC*%
%TO.N,+5V*%
X70039999Y-52719999D03*
%TO.P,U3,35,GND*%
%TO.N,GND*%
X69239999Y-52719999D03*
%TO.P,U3,36,PF7*%
%TO.N,unconnected-(U3-PF7-Pad36)*%
X68439999Y-52719999D03*
%TO.P,U3,37,PF6*%
%TO.N,unconnected-(U3-PF6-Pad37)*%
X67639999Y-52719999D03*
%TO.P,U3,38,PF5*%
%TO.N,unconnected-(U3-PF5-Pad38)*%
X66839999Y-52719999D03*
%TO.P,U3,39,PF4*%
%TO.N,unconnected-(U3-PF4-Pad39)*%
X66039999Y-52719999D03*
%TO.P,U3,40,PF1*%
%TO.N,unconnected-(U3-PF1-Pad40)*%
X65239999Y-52719999D03*
%TO.P,U3,41,PF0*%
%TO.N,unconnected-(U3-PF0-Pad41)*%
X64439999Y-52719999D03*
%TO.P,U3,42,AREF*%
%TO.N,/AREF*%
X63639999Y-52719999D03*
%TO.P,U3,43,GND*%
%TO.N,GND*%
X62839999Y-52719999D03*
%TO.P,U3,44,AVCC*%
%TO.N,+5V*%
X62039999Y-52719999D03*
%TD*%
D30*
%TO.P,U1,1,e*%
%TO.N,Net-(U1-e)*%
X38099999Y-38099999D03*
D31*
%TO.P,U1,2,d*%
%TO.N,Net-(U1-d)*%
X40640000Y-38100000D03*
%TO.P,U1,3,DPX*%
%TO.N,Net-(U1-DPX)*%
X43180000Y-38100000D03*
%TO.P,U1,4,c*%
%TO.N,Net-(U1-c)*%
X45720000Y-38100000D03*
%TO.P,U1,5,g*%
%TO.N,Net-(U1-g)*%
X48260000Y-38100000D03*
%TO.P,U1,6,CA4*%
%TO.N,Dig4*%
X50800000Y-38100000D03*
%TO.P,U1,7,b*%
%TO.N,Net-(U1-b)*%
X50800000Y-22860000D03*
%TO.P,U1,8,CA3*%
%TO.N,Dig3*%
X48260000Y-22860000D03*
%TO.P,U1,9,CA2*%
%TO.N,Dig2*%
X45720000Y-22860000D03*
%TO.P,U1,10,f*%
%TO.N,Net-(U1-f)*%
X43180000Y-22860000D03*
%TO.P,U1,11,a*%
%TO.N,Net-(U1-a)*%
X40640000Y-22860000D03*
%TO.P,U1,12,CA1*%
%TO.N,Dig1*%
X38100000Y-22860000D03*
%TD*%
D32*
%TO.P,S3,1*%
%TO.N,GND*%
X98599999Y-74349999D03*
%TO.P,S3,2*%
%TO.N,N/C*%
X104599999Y-74349999D03*
%TO.P,S3,3*%
%TO.N,RST*%
X98599999Y-78049999D03*
%TO.P,S3,4*%
%TO.N,N/C*%
X104599999Y-78049999D03*
%TD*%
D12*
%TO.P,C15,1*%
%TO.N,Net-(U5-BP)*%
X98463299Y-64851221D03*
%TO.P,C15,2*%
%TO.N,GND*%
X100013299Y-64851221D03*
%TD*%
D10*
%TO.P,R1,1*%
%TO.N,Button_1*%
X35560000Y-47767500D03*
%TO.P,R1,2*%
%TO.N,GND*%
X35560000Y-45942500D03*
%TD*%
D12*
%TO.P,C9,1*%
%TO.N,/UCAP*%
X20320000Y-53430000D03*
%TO.P,C9,2*%
%TO.N,GND*%
X21870000Y-53430000D03*
%TD*%
%TO.P,C11,1*%
%TO.N,+5V*%
X20320000Y-58450000D03*
%TO.P,C11,2*%
%TO.N,GND*%
X21870000Y-58450000D03*
%TD*%
D33*
%TO.P,U2,1,QB*%
%TO.N,b*%
X93335000Y-23125000D03*
%TO.P,U2,2,QC*%
%TO.N,c*%
X93335000Y-23775000D03*
%TO.P,U2,3,QD*%
%TO.N,d*%
X93335000Y-24425000D03*
%TO.P,U2,4,QE*%
%TO.N,e*%
X93335000Y-25075000D03*
%TO.P,U2,5,QF*%
%TO.N,f*%
X93335000Y-25725000D03*
%TO.P,U2,6,QG*%
%TO.N,g*%
X93335000Y-26375000D03*
%TO.P,U2,7,QH*%
%TO.N,dp*%
X93335000Y-27025000D03*
%TO.P,U2,8,GND*%
%TO.N,GND*%
X93335000Y-27675000D03*
%TO.P,U2,9,QH'*%
%TO.N,unconnected-(U2-QH'-Pad9)*%
X99060000Y-27675000D03*
%TO.P,U2,10,~{SRCLR}*%
%TO.N,+5V*%
X99060000Y-27025000D03*
%TO.P,U2,11,SRCLK*%
%TO.N,SH_CP*%
X99060000Y-26375000D03*
%TO.P,U2,12,RCLK*%
%TO.N,ST_CP*%
X99060000Y-25725000D03*
%TO.P,U2,13,~{OE}*%
%TO.N,GND*%
X99060000Y-25075000D03*
%TO.P,U2,14,SER*%
%TO.N,DS*%
X99060000Y-24425000D03*
%TO.P,U2,15,QA*%
%TO.N,a*%
X99060000Y-23775000D03*
%TO.P,U2,16,VCC*%
%TO.N,+5V*%
X99060000Y-23125000D03*
%TD*%
D15*
%TO.P,R9,1*%
%TO.N,e*%
X85457882Y-32978447D03*
%TO.P,R9,2*%
%TO.N,Net-(U1-e)*%
X87282882Y-32978447D03*
%TD*%
D34*
%TO.P,U4,1,I/O1*%
%TO.N,USB_CONN_D-*%
X26802500Y-75250000D03*
%TO.P,U4,2,GND*%
%TO.N,GND*%
X26802500Y-76200000D03*
%TO.P,U4,3,I/O2*%
%TO.N,USB_CONN_D+*%
X26802500Y-77150000D03*
%TO.P,U4,4,I/O2*%
%TO.N,USB_D+*%
X29077500Y-77150000D03*
%TO.P,U4,5,VBUS*%
%TO.N,+5V*%
X29077500Y-76200000D03*
%TO.P,U4,6,I/O1*%
%TO.N,USB_D-*%
X29077500Y-75250000D03*
%TD*%
D15*
%TO.P,R7,1*%
%TO.N,c*%
X85447500Y-27940000D03*
%TO.P,R7,2*%
%TO.N,Net-(U1-c)*%
X87272500Y-27940000D03*
%TD*%
D12*
%TO.P,C12,1*%
%TO.N,/AREF*%
X20320000Y-60960000D03*
%TO.P,C12,2*%
%TO.N,GND*%
X21870000Y-60960000D03*
%TD*%
D15*
%TO.P,R12,1*%
%TO.N,dp*%
X85427391Y-40641215D03*
%TO.P,R12,2*%
%TO.N,Net-(U1-DPX)*%
X87252391Y-40641215D03*
%TD*%
D12*
%TO.P,C2,1*%
%TO.N,GND*%
X55400000Y-88900000D03*
%TO.P,C2,2*%
%TO.N,XTAL1*%
X56950000Y-88900000D03*
%TD*%
D35*
%TO.N,GND*%
X63500000Y-66040000D03*
X101601747Y-64820297D03*
X73660000Y-53340000D03*
X66040000Y-83820000D03*
X53340000Y-45720000D03*
X76200000Y-68580000D03*
X71120000Y-68580000D03*
X22860000Y-55880000D03*
X38100000Y-45720000D03*
X100881916Y-25144730D03*
X91440000Y-27940000D03*
X53340000Y-88900000D03*
X25400000Y-76200000D03*
X78740000Y-86360000D03*
X63500000Y-50800000D03*
X96998413Y-74285669D03*
X101718936Y-59233372D03*
X50800000Y-91440000D03*
X73660000Y-63500000D03*
X101600000Y-55880000D03*
X101619712Y-61912417D03*
X87936420Y-96489278D03*
X58420000Y-58420000D03*
X50800000Y-88900000D03*
X68580000Y-50800000D03*
X63500000Y-45720000D03*
X93980000Y-50800000D03*
X34030074Y-83799650D03*
X22860000Y-66040000D03*
X92439764Y-59441806D03*
X50800000Y-83820000D03*
X86360000Y-68580000D03*
X22860000Y-58420000D03*
X50800000Y-86360000D03*
X22860000Y-60960000D03*
X22860000Y-53340000D03*
%TO.N,XTAL2*%
X73660000Y-86360000D03*
X71120000Y-81280000D03*
X66040000Y-81280000D03*
%TO.N,/AREF*%
X53340000Y-41734589D03*
X53340000Y-43904500D03*
%TO.N,+3.3V*%
X93980000Y-63500000D03*
X66257299Y-78522701D03*
X73660000Y-83820000D03*
X96842000Y-63500000D03*
%TO.N,Net-(U5-BP)*%
X96842000Y-66040000D03*
X93787401Y-67340100D03*
%TO.N,MISO*%
X30480000Y-63500000D03*
X17780000Y-76200000D03*
%TO.N,MOSI*%
X27940000Y-63500000D03*
X22860000Y-68580000D03*
%TO.N,Net-(J2-D-)*%
X40640000Y-86360000D03*
X43180000Y-93980000D03*
%TO.N,Net-(J3-Pin_5)*%
X78740000Y-81280000D03*
X78740000Y-76200000D03*
%TO.N,Buzzer*%
X73660000Y-60895500D03*
X81280000Y-53340000D03*
%TO.N,Button_1*%
X33020000Y-53340000D03*
X66040000Y-68580000D03*
%TO.N,Button_2*%
X66040000Y-66040000D03*
X45720000Y-50800000D03*
%TO.N,RED_LED*%
X76200000Y-60895500D03*
X76162865Y-62445373D03*
%TO.N,GREEN_LED*%
X73660000Y-66040000D03*
X70008280Y-60506253D03*
%TO.N,b*%
X91440000Y-20320000D03*
X86160500Y-25400000D03*
%TO.N,c*%
X97655932Y-21521407D03*
X93980000Y-30480000D03*
%TO.N,d*%
X91440000Y-22860000D03*
X88900000Y-30480000D03*
%TO.N,e*%
X91849611Y-24990393D03*
X91440000Y-30480000D03*
%TO.N,Net-(U1-DPX)*%
X73660000Y-38100000D03*
X81280000Y-40640000D03*
X88900000Y-38100000D03*
%TO.N,USB_CONN_D+*%
X25400000Y-78740000D03*
X55880000Y-76200000D03*
%TO.N,Dig3*%
X48260000Y-27940000D03*
X58420000Y-63500000D03*
%TO.N,Dig2*%
X68580000Y-55880000D03*
X53340000Y-17780000D03*
%TO.N,SH_CP*%
X101890569Y-26868732D03*
X60960000Y-50800000D03*
X60960000Y-53340000D03*
%TO.N,ST_CP*%
X104140000Y-26144232D03*
X96520000Y-35560000D03*
X96520000Y-27940000D03*
X76200000Y-58420000D03*
X96520000Y-33020000D03*
X73659999Y-59860807D03*
%TO.N,DS*%
X76200000Y-55880000D03*
X73660000Y-58420000D03*
%TO.N,USB_D-*%
X30480000Y-73660000D03*
X60960000Y-48260000D03*
%TO.N,USB_D+*%
X22160500Y-83820000D03*
X25400000Y-81280000D03*
%TD*%
D36*
%TO.N,+5V*%
X98460000Y-59273273D02*
X98460000Y-56145000D01*
X27940000Y-75446751D02*
X27940000Y-73660000D01*
X98463299Y-59276572D02*
X98460000Y-59273273D01*
X51600000Y-69380000D02*
X50800000Y-68580000D01*
X63640000Y-64120000D02*
X63640000Y-63120000D01*
X99060000Y-55545000D02*
X99060000Y-30480000D01*
X92043249Y-60237500D02*
X93257500Y-60237500D01*
X45720000Y-83820000D02*
X45720000Y-86360000D01*
X61340000Y-59220000D02*
X63640000Y-61520000D01*
X17780000Y-58420000D02*
X17780000Y-55880000D01*
X62040000Y-47750000D02*
X60010000Y-45720000D01*
X101600000Y-22860000D02*
X99325000Y-22860000D01*
X101606916Y-22866916D02*
X101613832Y-22860000D01*
X100685000Y-27025000D02*
X101600000Y-27940000D01*
X17780000Y-63500000D02*
X17780000Y-58420000D01*
X99325000Y-22860000D02*
X99060000Y-23125000D01*
X71740000Y-61620000D02*
X70740000Y-61620000D01*
X35520000Y-70141751D02*
X29461751Y-76200000D01*
X106975157Y-22860000D02*
X108031745Y-23916588D01*
X91045000Y-61620000D02*
X91440000Y-61225000D01*
X91440000Y-61225000D02*
X91440000Y-60840749D01*
X45720000Y-73660000D02*
X45720000Y-83820000D01*
X60070000Y-68580000D02*
X59270000Y-69380000D01*
X106680000Y-22860000D02*
X106975157Y-22860000D01*
X50800000Y-68580000D02*
X49945000Y-69435000D01*
X47365000Y-91440000D02*
X47485000Y-91560000D01*
X61415000Y-55295000D02*
X61415000Y-59145000D01*
X93340000Y-61225000D02*
X95288428Y-59276572D01*
X22860000Y-63500000D02*
X17780000Y-63500000D01*
X65140000Y-61620000D02*
X71740000Y-61620000D01*
X61415000Y-59145000D02*
X61340000Y-59220000D01*
X93257500Y-60237500D02*
X93340000Y-60320000D01*
X96117500Y-61622371D02*
X96117500Y-83820000D01*
X63640000Y-61520000D02*
X63640000Y-64120000D01*
X60340000Y-59220000D02*
X61340000Y-59220000D01*
X45720000Y-86360000D02*
X47485000Y-86360000D01*
X59270000Y-69380000D02*
X51600000Y-69380000D01*
X63640000Y-64120000D02*
X63640000Y-64874695D01*
X25400000Y-71120000D02*
X25400000Y-66040000D01*
X49945000Y-69435000D02*
X36845000Y-69435000D01*
X45720000Y-83820000D02*
X47485000Y-83820000D01*
X29461751Y-76200000D02*
X30480000Y-77218249D01*
X91440000Y-60840749D02*
X92043249Y-60237500D01*
X71740000Y-61620000D02*
X91045000Y-61620000D01*
X99060000Y-30480000D02*
X101606916Y-27933084D01*
X69965000Y-53795000D02*
X62640000Y-53795000D01*
X29077500Y-76200000D02*
X29461751Y-76200000D01*
X101613832Y-22860000D02*
X106680000Y-22860000D01*
X60070000Y-68444695D02*
X60070000Y-68580000D01*
X63640000Y-63120000D02*
X65140000Y-61620000D01*
X62040000Y-52720000D02*
X62040000Y-54395000D01*
X17780000Y-55880000D02*
X20260000Y-55880000D01*
X61340000Y-55220000D02*
X61415000Y-55295000D01*
X45720000Y-88900000D02*
X47485000Y-88900000D01*
X27940000Y-73660000D02*
X25400000Y-71120000D01*
X50620000Y-68110000D02*
X50620000Y-68760000D01*
X35520000Y-68110000D02*
X35520000Y-70141751D01*
X61215000Y-55220000D02*
X60340000Y-55220000D01*
X98460000Y-56145000D02*
X99060000Y-55545000D01*
X93340000Y-60320000D02*
X93340000Y-61225000D01*
X60340000Y-55220000D02*
X61340000Y-55220000D01*
X62040000Y-54395000D02*
X61215000Y-55220000D01*
X50620000Y-68760000D02*
X45720000Y-73660000D01*
X25400000Y-66040000D02*
X22860000Y-63500000D01*
X104008333Y-27940000D02*
X101600000Y-27940000D01*
X62640000Y-53795000D02*
X62040000Y-54395000D01*
X36845000Y-69435000D02*
X35520000Y-68110000D01*
X29077500Y-76200000D02*
X28693249Y-76200000D01*
X30480000Y-81280000D02*
X27940000Y-83820000D01*
X63640000Y-64874695D02*
X60070000Y-68444695D01*
X62040000Y-52720000D02*
X62040000Y-53720000D01*
X62040000Y-53720000D02*
X62115000Y-53795000D01*
X20290000Y-58420000D02*
X20320000Y-58450000D01*
X62040000Y-52720000D02*
X62040000Y-47750000D01*
X45720000Y-91440000D02*
X47365000Y-91440000D01*
X70040000Y-53720000D02*
X70040000Y-52720000D01*
X108031745Y-23916588D02*
X104008333Y-27940000D01*
X45720000Y-86360000D02*
X45720000Y-88900000D01*
X45720000Y-88900000D02*
X45720000Y-91440000D01*
X20260000Y-55880000D02*
X20320000Y-55940000D01*
X28693249Y-76200000D02*
X27940000Y-75446751D01*
X98463299Y-59276572D02*
X96117500Y-61622371D01*
X101606916Y-22866916D02*
X101600000Y-22860000D01*
X30480000Y-77218249D02*
X30480000Y-81280000D01*
X17780000Y-58420000D02*
X20290000Y-58420000D01*
X95288428Y-59276572D02*
X98463299Y-59276572D01*
X69965000Y-53795000D02*
X70040000Y-53720000D01*
X99060000Y-27025000D02*
X100685000Y-27025000D01*
%TO.N,GND*%
X20320000Y-66040000D02*
X22860000Y-66040000D01*
X83820000Y-68580000D02*
X86360000Y-68580000D01*
X93070000Y-27940000D02*
X93335000Y-27675000D01*
X71120000Y-71120000D02*
X71120000Y-68580000D01*
X62840000Y-52720000D02*
X62840000Y-51460000D01*
X21870000Y-60960000D02*
X22860000Y-60960000D01*
X76975000Y-86360000D02*
X78740000Y-86360000D01*
X76200000Y-68580000D02*
X78740000Y-68580000D01*
X22800000Y-55940000D02*
X22860000Y-55880000D01*
X101675736Y-59276572D02*
X101718936Y-59233372D01*
X97062744Y-74350000D02*
X96998413Y-74285669D01*
X49035000Y-88900000D02*
X50800000Y-88900000D01*
X90160000Y-50800000D02*
X93980000Y-50800000D01*
X60340000Y-57620000D02*
X59220000Y-57620000D01*
X22830000Y-58450000D02*
X22860000Y-58420000D01*
X101570823Y-64851221D02*
X101601747Y-64820297D01*
X53340000Y-88900000D02*
X55400000Y-88900000D01*
X69240000Y-52720000D02*
X69240000Y-51460000D01*
X61910000Y-45720000D02*
X63500000Y-45720000D01*
X64440000Y-65100000D02*
X63500000Y-66040000D01*
X99060000Y-25075000D02*
X100812186Y-25075000D01*
X100096503Y-62022295D02*
X101509834Y-62022295D01*
X21870000Y-58450000D02*
X22830000Y-58450000D01*
X49035000Y-91560000D02*
X50680000Y-91560000D01*
X34030074Y-83799650D02*
X35539650Y-83799650D01*
X72580000Y-62420000D02*
X73660000Y-63500000D01*
X62840000Y-51460000D02*
X63500000Y-50800000D01*
X100010000Y-56145000D02*
X101335000Y-56145000D01*
X98600000Y-74350000D02*
X97062744Y-74350000D01*
X25400000Y-76200000D02*
X26802500Y-76200000D01*
X22770000Y-53430000D02*
X22860000Y-53340000D01*
X21870000Y-55940000D02*
X22800000Y-55940000D01*
X35560000Y-45942500D02*
X37877500Y-45942500D01*
X69240000Y-51460000D02*
X68580000Y-50800000D01*
X87960000Y-96512858D02*
X87936420Y-96489278D01*
X35539650Y-83799650D02*
X35560000Y-83820000D01*
X87960000Y-98900000D02*
X87960000Y-96512858D01*
X100812186Y-25075000D02*
X100881916Y-25144730D01*
X71740000Y-54420000D02*
X72580000Y-54420000D01*
X71740000Y-62420000D02*
X72580000Y-62420000D01*
X100013299Y-59276572D02*
X101675736Y-59276572D01*
X49035000Y-86360000D02*
X50800000Y-86360000D01*
X50680000Y-91560000D02*
X50800000Y-91440000D01*
X37877500Y-45942500D02*
X38100000Y-45720000D01*
X50800000Y-45720000D02*
X53340000Y-45720000D01*
X59220000Y-57620000D02*
X58420000Y-58420000D01*
X66040000Y-83820000D02*
X68580000Y-83820000D01*
X21870000Y-53430000D02*
X22770000Y-53430000D01*
X91440000Y-27940000D02*
X93070000Y-27940000D01*
X64440000Y-64120000D02*
X64440000Y-65100000D01*
X101335000Y-56145000D02*
X101600000Y-55880000D01*
X101509834Y-62022295D02*
X101619712Y-61912417D01*
X72580000Y-54420000D02*
X73660000Y-53340000D01*
X49035000Y-83820000D02*
X50800000Y-83820000D01*
X100013299Y-64851221D02*
X101570823Y-64851221D01*
%TO.N,XTAL1*%
X56950000Y-88900000D02*
X66040000Y-88900000D01*
X66040000Y-88900000D02*
X68580000Y-86360000D01*
X68580000Y-86360000D02*
X68580000Y-85520000D01*
X66040000Y-64120000D02*
X66040000Y-65014695D01*
X65315000Y-78605000D02*
X69605000Y-82895000D01*
X68680000Y-85520000D02*
X68580000Y-85520000D01*
X65315000Y-65739695D02*
X65315000Y-78605000D01*
X69605000Y-82895000D02*
X69605000Y-84595000D01*
X66040000Y-65014695D02*
X65315000Y-65739695D01*
X69605000Y-84595000D02*
X68680000Y-85520000D01*
%TO.N,XTAL2*%
X71120000Y-81280000D02*
X70780000Y-81620000D01*
X64865000Y-80105000D02*
X66040000Y-81280000D01*
X65240000Y-64120000D02*
X65240000Y-65178299D01*
X65240000Y-65178299D02*
X64865000Y-65553299D01*
X70780000Y-81620000D02*
X70780000Y-83820000D01*
X64865000Y-65553299D02*
X64865000Y-80105000D01*
X75425000Y-86360000D02*
X73660000Y-86360000D01*
%TO.N,/UCAP*%
X59465000Y-58420000D02*
X60340000Y-58420000D01*
X56432117Y-59599523D02*
X58565298Y-59599523D01*
X55880000Y-43180000D02*
X58420000Y-45720000D01*
X58420000Y-45720000D02*
X58420000Y-55880000D01*
X55880000Y-59047406D02*
X56432117Y-59599523D01*
X30570000Y-43180000D02*
X55880000Y-43180000D01*
X20320000Y-53430000D02*
X30570000Y-43180000D01*
X58766068Y-59118932D02*
X59465000Y-58420000D01*
X58420000Y-55880000D02*
X55880000Y-58420000D01*
X58565298Y-59599523D02*
X58766068Y-59398753D01*
X55880000Y-58420000D02*
X55880000Y-59047406D01*
X58766068Y-59398753D02*
X58766068Y-59118932D01*
%TO.N,/AREF*%
X18373714Y-62524478D02*
X18774146Y-62924910D01*
X19025075Y-61100190D02*
X18494775Y-61630490D01*
X18373714Y-61751551D02*
X18373714Y-62524478D01*
X19025075Y-61057430D02*
X19025075Y-61100190D01*
X18774146Y-62924910D02*
X20087190Y-62924910D01*
X25400000Y-50800000D02*
X32570000Y-43630000D01*
X19122505Y-60960000D02*
X19025075Y-61057430D01*
X63640000Y-51720000D02*
X63640000Y-52720000D01*
X25497678Y-62654851D02*
X25497678Y-55782322D01*
X25400000Y-55684644D02*
X25400000Y-50800000D01*
X18494775Y-61630490D02*
X18373714Y-61751551D01*
X66040000Y-49320000D02*
X63640000Y-51720000D01*
X20320000Y-60960000D02*
X19122505Y-60960000D01*
X62054589Y-41734589D02*
X66040000Y-45720000D01*
X66040000Y-45720000D02*
X66040000Y-49320000D01*
X53065500Y-43630000D02*
X53340000Y-43904500D01*
X20087190Y-62924910D02*
X25227619Y-62924910D01*
X25227619Y-62924910D02*
X25497678Y-62654851D01*
X25497678Y-55782322D02*
X25400000Y-55684644D01*
X53340000Y-41734589D02*
X62054589Y-41734589D01*
X40640000Y-43630000D02*
X53065500Y-43630000D01*
X32570000Y-43630000D02*
X40640000Y-43630000D01*
%TO.N,+3.3V*%
X93340000Y-63500000D02*
X93980000Y-63500000D01*
X66257299Y-78522701D02*
X68362701Y-78522701D01*
X66257299Y-75982701D02*
X68580000Y-73660000D01*
X96842000Y-63500000D02*
X97068798Y-63500000D01*
X97068798Y-63500000D02*
X98546503Y-62022295D01*
X68362701Y-78522701D02*
X68580000Y-78740000D01*
X73660000Y-82170000D02*
X73660000Y-83820000D01*
X66257299Y-78522701D02*
X68580000Y-76200000D01*
X66257299Y-78522701D02*
X66257299Y-75982701D01*
X74550000Y-81280000D02*
X73660000Y-82170000D01*
%TO.N,Net-(U5-BP)*%
X92740100Y-67340100D02*
X93787401Y-67340100D01*
X96842000Y-66040000D02*
X96567500Y-66040000D01*
X96842000Y-66040000D02*
X97274520Y-66040000D01*
X91440000Y-63500000D02*
X91440000Y-66040000D01*
X97274520Y-66040000D02*
X98463299Y-64851221D01*
X91440000Y-66040000D02*
X92740100Y-67340100D01*
%TO.N,Net-(D1-A)*%
X79765000Y-67730000D02*
X79765000Y-70095000D01*
X79765000Y-70095000D02*
X78740000Y-71120000D01*
X78740000Y-66705000D02*
X79765000Y-67730000D01*
%TO.N,Net-(D2-A)*%
X88900000Y-68580000D02*
X86360000Y-71120000D01*
X83820000Y-66705000D02*
X87025000Y-66705000D01*
X86360000Y-71120000D02*
X83820000Y-71120000D01*
X87025000Y-66705000D02*
X88900000Y-68580000D01*
%TO.N,Net-(D3-A)*%
X30615000Y-82795000D02*
X36410000Y-82795000D01*
X36410000Y-82795000D02*
X37435000Y-83820000D01*
X29590000Y-83820000D02*
X30615000Y-82795000D01*
%TO.N,Net-(J2-VBUS)*%
X84760000Y-90500000D02*
X91440000Y-83820000D01*
X91440000Y-83820000D02*
X91842500Y-83820000D01*
X84760000Y-98900000D02*
X84760000Y-90500000D01*
%TO.N,MISO*%
X60340000Y-62420000D02*
X31560000Y-62420000D01*
X17780000Y-76200000D02*
X17780000Y-71120000D01*
X31560000Y-62420000D02*
X30480000Y-63500000D01*
%TO.N,MOSI*%
X29820000Y-61620000D02*
X27940000Y-63500000D01*
X60340000Y-61620000D02*
X29820000Y-61620000D01*
X20320000Y-68580000D02*
X22860000Y-68580000D01*
%TO.N,RST*%
X61838299Y-66040000D02*
X60960000Y-66040000D01*
X62840000Y-65038299D02*
X61838299Y-66040000D01*
X60960000Y-66040000D02*
X58420000Y-68580000D01*
X62840000Y-64120000D02*
X62840000Y-65038299D01*
%TO.N,Net-(J2-D-)*%
X85560000Y-100000000D02*
X85560000Y-98900000D01*
X49425000Y-100225000D02*
X85335000Y-100225000D01*
X43180000Y-93980000D02*
X49425000Y-100225000D01*
X40640000Y-76200000D02*
X40640000Y-86360000D01*
X85335000Y-100225000D02*
X85560000Y-100000000D01*
%TO.N,Net-(J2-D+)*%
X71845000Y-80979695D02*
X71845000Y-86405000D01*
X86360000Y-91878173D02*
X92730000Y-85508173D01*
X71845000Y-86405000D02*
X68550000Y-89700000D01*
X92730000Y-82131827D02*
X90584975Y-79986802D01*
X56497183Y-89700000D02*
X56175000Y-89377817D01*
X86360000Y-98900000D02*
X86360000Y-91878173D01*
X56175000Y-89377817D02*
X56175000Y-76930305D01*
X56175000Y-76930305D02*
X60209305Y-72896000D01*
X72837893Y-79986802D02*
X71845000Y-80979695D01*
X60209305Y-72896000D02*
X60209305Y-71365909D01*
X68550000Y-89700000D02*
X56497183Y-89700000D01*
X90584975Y-79986802D02*
X72837893Y-79986802D01*
X92730000Y-85508173D02*
X92730000Y-82131827D01*
%TO.N,TX*%
X68440000Y-64120000D02*
X68440000Y-70980000D01*
X68440000Y-70980000D02*
X68580000Y-71120000D01*
%TO.N,Net-(J3-Pin_5)*%
X75321701Y-76200000D02*
X71606701Y-79915000D01*
X69945000Y-77375000D02*
X71120000Y-76200000D01*
X70633299Y-79915000D02*
X69945000Y-79226701D01*
X76200000Y-81280000D02*
X78740000Y-81280000D01*
X69945000Y-79226701D02*
X69945000Y-77375000D01*
X71606701Y-79915000D02*
X70633299Y-79915000D01*
X78740000Y-76200000D02*
X75321701Y-76200000D01*
%TO.N,RX*%
X70640000Y-63045000D02*
X72295000Y-64700000D01*
X69315000Y-63045000D02*
X70640000Y-63045000D01*
X72295000Y-64700000D02*
X72295000Y-77565000D01*
X72295000Y-77565000D02*
X71120000Y-78740000D01*
X69240000Y-63120000D02*
X69315000Y-63045000D01*
X69240000Y-64120000D02*
X69240000Y-63120000D01*
%TO.N,Buzzer*%
X81280000Y-53340000D02*
X82560000Y-52060000D01*
X72934999Y-60170499D02*
X73660000Y-60895500D01*
X71740000Y-59220000D02*
X72778605Y-59220000D01*
X72934999Y-59376394D02*
X72934999Y-60170499D01*
X82560000Y-52060000D02*
X82560000Y-50800000D01*
X72778605Y-59220000D02*
X72934999Y-59376394D01*
%TO.N,Button_1*%
X33020000Y-53340000D02*
X32550000Y-53810000D01*
X35560000Y-48770000D02*
X35560000Y-47767500D01*
X67640000Y-64120000D02*
X67640000Y-66980000D01*
X32550000Y-53810000D02*
X30520000Y-53810000D01*
X30520000Y-53810000D02*
X35560000Y-48770000D01*
X67640000Y-66980000D02*
X66040000Y-68580000D01*
%TO.N,Button_2*%
X66840000Y-64120000D02*
X66840000Y-65240000D01*
X45620000Y-52725000D02*
X50800000Y-47545000D01*
X45620000Y-53810000D02*
X45620000Y-52725000D01*
X45720000Y-50800000D02*
X45620000Y-50900000D01*
X45620000Y-50900000D02*
X45620000Y-53810000D01*
X66840000Y-65240000D02*
X66040000Y-66040000D01*
%TO.N,RED_LED*%
X72740000Y-56020000D02*
X76200000Y-59480000D01*
X75475000Y-63133238D02*
X75475000Y-69680000D01*
X71740000Y-56020000D02*
X72740000Y-56020000D01*
X76162865Y-62445373D02*
X75475000Y-63133238D01*
X75475000Y-69680000D02*
X78740000Y-72945000D01*
X76200000Y-59480000D02*
X76200000Y-60895500D01*
%TO.N,GREEN_LED*%
X83820000Y-72945000D02*
X82982500Y-73782500D01*
X70322027Y-60820000D02*
X70008280Y-60506253D01*
X71740000Y-60820000D02*
X70322027Y-60820000D01*
X82982500Y-73782500D02*
X78051827Y-73782500D01*
X78051827Y-73782500D02*
X73660000Y-69390673D01*
X73660000Y-69390673D02*
X73660000Y-66040000D01*
%TO.N,a*%
X94397500Y-27951041D02*
X93683541Y-28665000D01*
X90715000Y-27215000D02*
X87385000Y-23885000D01*
X98021459Y-23775000D02*
X94397500Y-27398959D01*
X93683541Y-28665000D02*
X91139695Y-28665000D01*
X91139695Y-28665000D02*
X90715000Y-28240305D01*
X87385000Y-23885000D02*
X86472500Y-23885000D01*
X94397500Y-27398959D02*
X94397500Y-27951041D01*
X90715000Y-28240305D02*
X90715000Y-27215000D01*
X99060000Y-23775000D02*
X98021459Y-23775000D01*
X86472500Y-23885000D02*
X85447500Y-22860000D01*
%TO.N,b*%
X93335000Y-23125000D02*
X91440000Y-21230000D01*
X91440000Y-21230000D02*
X91440000Y-20320000D01*
X86160500Y-25400000D02*
X85447500Y-25400000D01*
%TO.N,c*%
X97655932Y-21521407D02*
X95402339Y-23775000D01*
X91440000Y-29755000D02*
X93255000Y-29755000D01*
X93255000Y-29755000D02*
X93980000Y-30480000D01*
X86962500Y-26425000D02*
X88110000Y-26425000D01*
X95402339Y-23775000D02*
X93335000Y-23775000D01*
X85447500Y-27940000D02*
X86962500Y-26425000D01*
X88110000Y-26425000D02*
X91440000Y-29755000D01*
%TO.N,d*%
X93335000Y-24425000D02*
X92309523Y-24425000D01*
X86472500Y-29455000D02*
X87875000Y-29455000D01*
X87875000Y-29455000D02*
X88900000Y-30480000D01*
X92309523Y-24425000D02*
X91440000Y-23555477D01*
X91440000Y-23555477D02*
X91440000Y-22860000D01*
X85447500Y-30480000D02*
X86472500Y-29455000D01*
%TO.N,e*%
X86482882Y-31953447D02*
X89966553Y-31953447D01*
X85457882Y-32978447D02*
X86482882Y-31953447D01*
X91849611Y-24990393D02*
X91655509Y-25184495D01*
X91849611Y-24990393D02*
X93250393Y-24990393D01*
X89966553Y-31953447D02*
X91440000Y-30480000D01*
X93250393Y-24990393D02*
X93335000Y-25075000D01*
%TO.N,f*%
X87423785Y-42116215D02*
X91440000Y-38100000D01*
X84740322Y-42116215D02*
X87423785Y-42116215D01*
X89923785Y-37076215D02*
X87753064Y-37076215D01*
X89010000Y-23175381D02*
X89010000Y-21799035D01*
X91440000Y-38100000D02*
X91440000Y-35560000D01*
X89010000Y-21799035D02*
X88145965Y-20935000D01*
X83689891Y-21819144D02*
X83689891Y-41065784D01*
X88145965Y-20935000D02*
X84574035Y-20935000D01*
X87753064Y-37076215D02*
X86942391Y-37076215D01*
X93335000Y-25725000D02*
X91559619Y-25725000D01*
X91559619Y-25725000D02*
X89010000Y-23175381D01*
X83689891Y-41065784D02*
X84740322Y-42116215D01*
X84574035Y-20935000D02*
X83689891Y-21819144D01*
X91440000Y-35560000D02*
X89923785Y-37076215D01*
X86942391Y-37076215D02*
X85427391Y-35561215D01*
%TO.N,g*%
X84760431Y-21385000D02*
X84139891Y-22005540D01*
X84139891Y-22005540D02*
X84139891Y-40879388D01*
X84139891Y-40879388D02*
X84926718Y-41666215D01*
X91573223Y-26375000D02*
X88560000Y-23361777D01*
X88560000Y-21985431D02*
X87959569Y-21385000D01*
X84926718Y-41666215D02*
X85928064Y-41666215D01*
X87959569Y-21385000D02*
X84760431Y-21385000D01*
X85928064Y-41666215D02*
X86264891Y-41329388D01*
X93335000Y-26375000D02*
X91573223Y-26375000D01*
X86264891Y-41329388D02*
X86264891Y-38938715D01*
X88560000Y-23361777D02*
X88560000Y-21985431D01*
X86264891Y-38938715D02*
X85427391Y-38101215D01*
%TO.N,dp*%
X88110000Y-22171827D02*
X87773173Y-21835000D01*
X91586827Y-27025000D02*
X88110000Y-23548173D01*
X93335000Y-27025000D02*
X91586827Y-27025000D01*
X84589891Y-39803715D02*
X85427391Y-40641215D01*
X84589891Y-22191936D02*
X84589891Y-39803715D01*
X88110000Y-23548173D02*
X88110000Y-22171827D01*
X84946827Y-21835000D02*
X84589891Y-22191936D01*
X87773173Y-21835000D02*
X84946827Y-21835000D01*
%TO.N,Net-(U1-DPX)*%
X44255000Y-37025000D02*
X72585000Y-37025000D01*
X72585000Y-37025000D02*
X73660000Y-38100000D01*
X88900000Y-38993606D02*
X88900000Y-38100000D01*
X43180000Y-38100000D02*
X44255000Y-37025000D01*
X87252391Y-40641215D02*
X88900000Y-38993606D01*
D37*
%TO.N,USB_CONN_D+*%
X55880000Y-76200000D02*
X55880000Y-73660000D01*
X26802500Y-77150000D02*
X25400000Y-78552500D01*
X58559305Y-71259305D02*
X58559305Y-71365909D01*
X25400000Y-78552500D02*
X25400000Y-78740000D01*
X55880000Y-73660000D02*
X58420000Y-71120000D01*
X58420000Y-71120000D02*
X58559305Y-71259305D01*
%TO.N,USB_CONN_D-*%
X25400000Y-88900000D02*
X40640000Y-88900000D01*
X22860000Y-86360000D02*
X25400000Y-88900000D01*
X43180000Y-86360000D02*
X43180000Y-77090000D01*
X40640000Y-88900000D02*
X43180000Y-86360000D01*
X26802500Y-75250000D02*
X23810000Y-75250000D01*
X23810000Y-75250000D02*
X22860000Y-76200000D01*
X43180000Y-77090000D02*
X42290000Y-76200000D01*
X22860000Y-76200000D02*
X22860000Y-86360000D01*
D36*
%TO.N,Dig4*%
X71740000Y-56820000D02*
X70865000Y-56820000D01*
X70865000Y-56820000D02*
X70665000Y-56620000D01*
X63500000Y-38100000D02*
X50800000Y-38100000D01*
X70665000Y-45265000D02*
X63500000Y-38100000D01*
X70665000Y-56620000D02*
X70665000Y-45265000D01*
%TO.N,Dig3*%
X59040000Y-64120000D02*
X58420000Y-63500000D01*
X48260000Y-27940000D02*
X48260000Y-22860000D01*
X62040000Y-64120000D02*
X59040000Y-64120000D01*
%TO.N,Dig2*%
X71740000Y-60020000D02*
X70740000Y-60020000D01*
X70740000Y-60020000D02*
X68580000Y-57860000D01*
X53340000Y-17780000D02*
X50800000Y-17780000D01*
X68580000Y-57860000D02*
X68580000Y-55880000D01*
X50800000Y-17780000D02*
X45720000Y-22860000D01*
%TO.N,Dig1*%
X74320000Y-55220000D02*
X76200000Y-53340000D01*
X73660000Y-15240000D02*
X45720000Y-15240000D01*
X76200000Y-53340000D02*
X76200000Y-17780000D01*
X76200000Y-17780000D02*
X73660000Y-15240000D01*
X45720000Y-15240000D02*
X38100000Y-22860000D01*
X71740000Y-55220000D02*
X74320000Y-55220000D01*
%TO.N,SH_CP*%
X101165128Y-26868732D02*
X101890569Y-26868732D01*
X100871396Y-26575000D02*
X101165128Y-26868732D01*
X60960000Y-53340000D02*
X60960000Y-53800000D01*
X100671396Y-26375000D02*
X100871396Y-26575000D01*
X60960000Y-53800000D02*
X60340000Y-54420000D01*
X60340000Y-54420000D02*
X60340000Y-51420000D01*
X60340000Y-51420000D02*
X60960000Y-50800000D01*
X99060000Y-26375000D02*
X100671396Y-26375000D01*
%TO.N,ST_CP*%
X103377288Y-24725341D02*
X104140000Y-25488053D01*
X100436881Y-25725000D02*
X100581611Y-25869730D01*
X101823375Y-25228576D02*
X101823375Y-25026411D01*
X96520000Y-39490000D02*
X96520000Y-35560000D01*
X96520000Y-33020000D02*
X96520000Y-27940000D01*
X101182221Y-25869730D02*
X101823375Y-25228576D01*
X100581611Y-25869730D02*
X101182221Y-25869730D01*
X72615000Y-58420000D02*
X73659999Y-59464999D01*
X101823375Y-25026411D02*
X102124445Y-24725341D01*
X71740000Y-58420000D02*
X72615000Y-58420000D01*
X77590000Y-58420000D02*
X96520000Y-39490000D01*
X104140000Y-25488053D02*
X104140000Y-26144232D01*
X76200000Y-58420000D02*
X77590000Y-58420000D01*
X102124445Y-24725341D02*
X103377288Y-24725341D01*
X73659999Y-59464999D02*
X73659999Y-59860807D01*
X100436881Y-25725000D02*
X99060000Y-25725000D01*
%TO.N,DS*%
X97997500Y-24798959D02*
X98371459Y-24425000D01*
X98371459Y-24425000D02*
X99060000Y-24425000D01*
X71740000Y-57620000D02*
X72860000Y-57620000D01*
X76200000Y-55880000D02*
X76200000Y-54555000D01*
X72860000Y-57620000D02*
X73660000Y-58420000D01*
X97997500Y-32757500D02*
X97997500Y-24798959D01*
X76200000Y-54555000D02*
X97997500Y-32757500D01*
D37*
%TO.N,USB_D-*%
X29077500Y-75062500D02*
X30480000Y-73660000D01*
X59290000Y-55920000D02*
X59290000Y-49930000D01*
X29077500Y-75250000D02*
X29077500Y-75062500D01*
X59290000Y-49930000D02*
X60960000Y-48260000D01*
X59390000Y-56020000D02*
X59290000Y-55920000D01*
X60340000Y-56020000D02*
X59390000Y-56020000D01*
%TO.N,USB_D+*%
X17355000Y-63676041D02*
X17603959Y-63925000D01*
X29777538Y-42755000D02*
X17355000Y-55177538D01*
X17355000Y-55177538D02*
X17355000Y-63676041D01*
X60340000Y-56820000D02*
X59390000Y-56820000D01*
X58845000Y-45543959D02*
X56056040Y-42755000D01*
X58845000Y-56275000D02*
X58845000Y-45543959D01*
X29077500Y-77602500D02*
X29077500Y-77150000D01*
X22160500Y-76333815D02*
X22160500Y-83820000D01*
X23644314Y-74850000D02*
X22160500Y-76333815D01*
X25400000Y-81280000D02*
X29077500Y-77602500D01*
X23644314Y-64885354D02*
X23644314Y-74850000D01*
X56056040Y-42755000D02*
X29777538Y-42755000D01*
X59390000Y-56820000D02*
X58845000Y-56275000D01*
X22683960Y-63925000D02*
X23644314Y-64885354D01*
X17603959Y-63925000D02*
X22683960Y-63925000D01*
%TD*%
M02*
