%TF.GenerationSoftware,KiCad,Pcbnew,(7.0.0-0)*%
%TF.CreationDate,2023-05-29T15:25:59-06:00*%
%TF.ProjectId,Phase_B_ATMEGA_v3,50686173-655f-4425-9f41-544d4547415f,rev?*%
%TF.SameCoordinates,Original*%
%TF.FileFunction,Copper,L2,Bot*%
%TF.FilePolarity,Positive*%
%FSLAX46Y46*%
G04 Gerber Fmt 4.6, Leading zero omitted, Abs format (unit mm)*
G04 Created by KiCad (PCBNEW (7.0.0-0)) date 2023-05-29 15:25:59*
%MOMM*%
%LPD*%
G01*
G04 APERTURE LIST*
%TA.AperFunction,ComponentPad*%
%ADD10R,2.000000X2.000000*%
%TD*%
%TA.AperFunction,ComponentPad*%
%ADD11C,2.000000*%
%TD*%
%TA.AperFunction,ComponentPad*%
%ADD12R,1.700000X1.700000*%
%TD*%
%TA.AperFunction,ComponentPad*%
%ADD13O,1.700000X1.700000*%
%TD*%
%TA.AperFunction,ComponentPad*%
%ADD14R,1.500000X1.500000*%
%TD*%
%TA.AperFunction,ComponentPad*%
%ADD15C,1.500000*%
%TD*%
%TA.AperFunction,ViaPad*%
%ADD16C,0.800000*%
%TD*%
%TA.AperFunction,Conductor*%
%ADD17C,0.250000*%
%TD*%
%TA.AperFunction,Conductor*%
%ADD18C,0.200000*%
%TD*%
G04 APERTURE END LIST*
D10*
%TO.P,LS1,1,1*%
%TO.N,Buzzer*%
X82559999Y-50799999D03*
D11*
%TO.P,LS1,2,2*%
%TO.N,GND*%
X90160000Y-50800000D03*
%TD*%
D12*
%TO.P,J3,1,Pin_1*%
%TO.N,GND*%
X71119999Y-71119999D03*
D13*
%TO.P,J3,2,Pin_2*%
%TO.N,TX*%
X68579999Y-71119999D03*
%TO.P,J3,3,Pin_3*%
%TO.N,unconnected-(J3-Pin_3-Pad3)*%
X71119999Y-73659999D03*
%TO.P,J3,4,Pin_4*%
%TO.N,+3.3V*%
X68579999Y-73659999D03*
%TO.P,J3,5,Pin_5*%
%TO.N,Net-(J3-Pin_5)*%
X71119999Y-76199999D03*
%TO.P,J3,6,Pin_6*%
%TO.N,+3.3V*%
X68579999Y-76199999D03*
%TO.P,J3,7,Pin_7*%
%TO.N,RX*%
X71119999Y-78739999D03*
%TO.P,J3,8,Pin_8*%
%TO.N,+3.3V*%
X68579999Y-78739999D03*
%TD*%
D12*
%TO.P,J1,1,MISO*%
%TO.N,MISO*%
X17779999Y-71119999D03*
D13*
%TO.P,J1,2,VCC*%
%TO.N,+5V*%
X20319999Y-71119999D03*
%TO.P,J1,3,SCK*%
%TO.N,SCK*%
X17779999Y-68579999D03*
%TO.P,J1,4,MOSI*%
%TO.N,MOSI*%
X20319999Y-68579999D03*
%TO.P,J1,5,~{RST}*%
%TO.N,RST*%
X17779999Y-66039999D03*
%TO.P,J1,6,GND*%
%TO.N,GND*%
X20319999Y-66039999D03*
%TD*%
D14*
%TO.P,U1,1,e*%
%TO.N,Net-(U1-e)*%
X38099999Y-38099999D03*
D15*
%TO.P,U1,2,d*%
%TO.N,Net-(U1-d)*%
X40640000Y-38100000D03*
%TO.P,U1,3,DPX*%
%TO.N,Net-(U1-DPX)*%
X43180000Y-38100000D03*
%TO.P,U1,4,c*%
%TO.N,Net-(U1-c)*%
X45720000Y-38100000D03*
%TO.P,U1,5,g*%
%TO.N,Net-(U1-g)*%
X48260000Y-38100000D03*
%TO.P,U1,6,CA4*%
%TO.N,Dig4*%
X50800000Y-38100000D03*
%TO.P,U1,7,b*%
%TO.N,Net-(U1-b)*%
X50800000Y-22860000D03*
%TO.P,U1,8,CA3*%
%TO.N,Dig3*%
X48260000Y-22860000D03*
%TO.P,U1,9,CA2*%
%TO.N,Dig2*%
X45720000Y-22860000D03*
%TO.P,U1,10,f*%
%TO.N,Net-(U1-f)*%
X43180000Y-22860000D03*
%TO.P,U1,11,a*%
%TO.N,Net-(U1-a)*%
X40640000Y-22860000D03*
%TO.P,U1,12,CA1*%
%TO.N,Dig1*%
X38100000Y-22860000D03*
%TD*%
D16*
%TO.N,GND*%
X63500000Y-66040000D03*
X101601747Y-64820297D03*
X73660000Y-53340000D03*
X66040000Y-83820000D03*
X53340000Y-45720000D03*
X76200000Y-68580000D03*
X71120000Y-68580000D03*
X22860000Y-55880000D03*
X38100000Y-45720000D03*
X100881916Y-25144730D03*
X91440000Y-27940000D03*
X53340000Y-88900000D03*
X25400000Y-76200000D03*
X78740000Y-86360000D03*
X63500000Y-50800000D03*
X96998413Y-74285669D03*
X101718936Y-59233372D03*
X50800000Y-91440000D03*
X73660000Y-63500000D03*
X101600000Y-55880000D03*
X101619712Y-61912417D03*
X87936420Y-96489278D03*
X58420000Y-58420000D03*
X50800000Y-88900000D03*
X68580000Y-50800000D03*
X63500000Y-45720000D03*
X93980000Y-50800000D03*
X34030074Y-83799650D03*
X22860000Y-66040000D03*
X92439764Y-59441806D03*
X50800000Y-83820000D03*
X86360000Y-68580000D03*
X22860000Y-58420000D03*
X50800000Y-86360000D03*
X22860000Y-60960000D03*
X22860000Y-53340000D03*
%TO.N,XTAL2*%
X73660000Y-86360000D03*
X71120000Y-81280000D03*
X66040000Y-81280000D03*
%TO.N,/AREF*%
X53340000Y-41734589D03*
X53340000Y-43904500D03*
%TO.N,+3.3V*%
X93980000Y-63500000D03*
X66257299Y-78522701D03*
X73660000Y-83820000D03*
X96842000Y-63500000D03*
%TO.N,Net-(U5-BP)*%
X96842000Y-66040000D03*
X93787401Y-67340100D03*
%TO.N,MISO*%
X30480000Y-63500000D03*
X17780000Y-76200000D03*
%TO.N,MOSI*%
X27940000Y-63500000D03*
X22860000Y-68580000D03*
%TO.N,Net-(J2-D-)*%
X40640000Y-86360000D03*
X43180000Y-93980000D03*
%TO.N,Net-(J3-Pin_5)*%
X78740000Y-81280000D03*
X78740000Y-76200000D03*
%TO.N,Buzzer*%
X73660000Y-60895500D03*
X81280000Y-53340000D03*
%TO.N,Button_1*%
X33020000Y-53340000D03*
X66040000Y-68580000D03*
%TO.N,Button_2*%
X66040000Y-66040000D03*
X45720000Y-50800000D03*
%TO.N,RED_LED*%
X76200000Y-60895500D03*
X76162865Y-62445373D03*
%TO.N,GREEN_LED*%
X73660000Y-66040000D03*
X70008280Y-60506253D03*
%TO.N,b*%
X91440000Y-20320000D03*
X86160500Y-25400000D03*
%TO.N,c*%
X97655932Y-21521407D03*
X93980000Y-30480000D03*
%TO.N,d*%
X91440000Y-22860000D03*
X88900000Y-30480000D03*
%TO.N,e*%
X91849611Y-24990393D03*
X91440000Y-30480000D03*
%TO.N,Net-(U1-DPX)*%
X73660000Y-38100000D03*
X81280000Y-40640000D03*
X88900000Y-38100000D03*
%TO.N,USB_CONN_D+*%
X25400000Y-78740000D03*
X55880000Y-76200000D03*
%TO.N,Dig3*%
X48260000Y-27940000D03*
X58420000Y-63500000D03*
%TO.N,Dig2*%
X68580000Y-55880000D03*
X53340000Y-17780000D03*
%TO.N,SH_CP*%
X101890569Y-26868732D03*
X60960000Y-50800000D03*
X60960000Y-53340000D03*
%TO.N,ST_CP*%
X104140000Y-26144232D03*
X96520000Y-35560000D03*
X96520000Y-27940000D03*
X76200000Y-58420000D03*
X96520000Y-33020000D03*
X73659999Y-59860807D03*
%TO.N,DS*%
X76200000Y-55880000D03*
X73660000Y-58420000D03*
%TO.N,USB_D-*%
X30480000Y-73660000D03*
X60960000Y-48260000D03*
%TO.N,USB_D+*%
X22160500Y-83820000D03*
X25400000Y-81280000D03*
%TD*%
D17*
%TO.N,XTAL2*%
X66040000Y-81280000D02*
X71120000Y-81280000D01*
X73660000Y-86360000D02*
X71120000Y-83820000D01*
X71120000Y-83820000D02*
X71120000Y-81280000D01*
%TO.N,/AREF*%
X53340000Y-43904500D02*
X53340000Y-41734589D01*
X53404352Y-41670237D02*
X53340000Y-41734589D01*
%TO.N,+3.3V*%
X73660000Y-83820000D02*
X73660000Y-82794695D01*
X93980000Y-63500000D02*
X96842000Y-63500000D01*
X73660000Y-82794695D02*
X71420305Y-80555000D01*
X68289598Y-80555000D02*
X66257299Y-78522701D01*
X71420305Y-80555000D02*
X68289598Y-80555000D01*
%TO.N,Net-(U5-BP)*%
X93787401Y-67340100D02*
X95541900Y-67340100D01*
X95541900Y-67340100D02*
X96842000Y-66040000D01*
%TO.N,MISO*%
X30480000Y-63500000D02*
X17780000Y-76200000D01*
%TO.N,MOSI*%
X27940000Y-63500000D02*
X22860000Y-68580000D01*
%TO.N,Net-(J2-D-)*%
X40640000Y-91440000D02*
X43180000Y-93980000D01*
X40640000Y-86360000D02*
X40640000Y-91440000D01*
%TO.N,Net-(J3-Pin_5)*%
X78740000Y-81280000D02*
X78740000Y-76200000D01*
%TO.N,Buzzer*%
X76989500Y-60170500D02*
X81280000Y-55880000D01*
X81280000Y-55880000D02*
X81280000Y-53340000D01*
X73660000Y-60895500D02*
X74385000Y-60170500D01*
X74385000Y-60170500D02*
X76989500Y-60170500D01*
%TO.N,Button_1*%
X66040000Y-68580000D02*
X48260000Y-68580000D01*
X48260000Y-68580000D02*
X33020000Y-53340000D01*
%TO.N,Button_2*%
X60960000Y-60960000D02*
X55880000Y-60960000D01*
X66040000Y-66040000D02*
X60960000Y-60960000D01*
X55880000Y-60960000D02*
X45720000Y-50800000D01*
%TO.N,RED_LED*%
X76200000Y-60895500D02*
X76200000Y-62408238D01*
X76200000Y-62408238D02*
X76162865Y-62445373D01*
%TO.N,GREEN_LED*%
X73660000Y-66040000D02*
X71120000Y-63500000D01*
X71120000Y-61617973D02*
X71120000Y-63500000D01*
X70008280Y-60506253D02*
X71120000Y-61617973D01*
%TO.N,b*%
X86360000Y-25400000D02*
X86160500Y-25400000D01*
X91440000Y-20320000D02*
X86360000Y-25400000D01*
%TO.N,c*%
X93980000Y-25197339D02*
X97655932Y-21521407D01*
X93980000Y-30480000D02*
X93980000Y-25197339D01*
%TO.N,d*%
X88900000Y-30480000D02*
X88900000Y-30314792D01*
X89811223Y-29403569D02*
X89811223Y-24488777D01*
X89811223Y-24488777D02*
X91440000Y-22860000D01*
X88900000Y-30314792D02*
X89811223Y-29403569D01*
%TO.N,e*%
X91440000Y-25400000D02*
X91849607Y-24990393D01*
X90715000Y-29755000D02*
X90715000Y-26125000D01*
X91440000Y-30480000D02*
X90715000Y-29755000D01*
X90715000Y-26125000D02*
X91440000Y-25400000D01*
X91849607Y-24990393D02*
X91849611Y-24990393D01*
%TO.N,Net-(U1-DPX)*%
X73660000Y-38100000D02*
X78740000Y-38100000D01*
X88900000Y-38100000D02*
X86360000Y-40640000D01*
X86360000Y-40640000D02*
X81280000Y-40640000D01*
X78740000Y-38100000D02*
X81280000Y-40640000D01*
D18*
%TO.N,USB_CONN_D+*%
X53340000Y-78740000D02*
X55880000Y-76200000D01*
X25400000Y-78740000D02*
X53340000Y-78740000D01*
D17*
%TO.N,Dig3*%
X44995000Y-45995000D02*
X49725000Y-41265000D01*
X49725000Y-29405000D02*
X48260000Y-27940000D01*
X44995000Y-51100305D02*
X44995000Y-45995000D01*
X57394695Y-63500000D02*
X44995000Y-51100305D01*
X58420000Y-63500000D02*
X57394695Y-63500000D01*
X49725000Y-41265000D02*
X49725000Y-29405000D01*
%TO.N,Dig2*%
X55880000Y-20320000D02*
X53340000Y-17780000D01*
X68580000Y-55880000D02*
X62474695Y-55880000D01*
X62474695Y-55880000D02*
X55880000Y-49285305D01*
X55880000Y-49285305D02*
X55880000Y-20320000D01*
%TO.N,SH_CP*%
X101890569Y-26868732D02*
X101645963Y-26868732D01*
X101645963Y-26868732D02*
X74449695Y-54065000D01*
X61685000Y-54065000D02*
X60960000Y-53340000D01*
X74449695Y-54065000D02*
X61685000Y-54065000D01*
%TO.N,ST_CP*%
X96520000Y-35560000D02*
X96520000Y-33020000D01*
X75100806Y-58420000D02*
X76200000Y-58420000D01*
X73659999Y-59860807D02*
X75100806Y-58420000D01*
X98315768Y-26144232D02*
X96520000Y-27940000D01*
X104140000Y-26144232D02*
X98315768Y-26144232D01*
%TO.N,DS*%
X73660000Y-58420000D02*
X76200000Y-55880000D01*
D18*
%TO.N,USB_D-*%
X66740000Y-60746346D02*
X66740000Y-68869950D01*
X61949950Y-73660000D02*
X30480000Y-73660000D01*
X53050050Y-17080000D02*
X52640000Y-17490050D01*
X66740000Y-68869950D02*
X61949950Y-73660000D01*
X53629950Y-17080000D02*
X53050050Y-17080000D01*
X60960000Y-48260000D02*
X60960000Y-24410050D01*
X52640000Y-17490050D02*
X52640000Y-46646346D01*
X52640000Y-46646346D02*
X66740000Y-60746346D01*
X60960000Y-24410050D02*
X53629950Y-17080000D01*
%TO.N,USB_D+*%
X22860000Y-83820000D02*
X25400000Y-81280000D01*
X22160500Y-83820000D02*
X22860000Y-83820000D01*
%TD*%
%TA.AperFunction,Conductor*%
%TO.N,GND*%
G36*
X51981210Y-38798112D02*
G01*
X52023953Y-38843154D01*
X52039500Y-38903270D01*
X52039500Y-46598859D01*
X52038438Y-46615044D01*
X52034318Y-46646346D01*
X52035379Y-46654405D01*
X52039500Y-46685707D01*
X52053894Y-46795048D01*
X52053895Y-46795054D01*
X52054956Y-46803108D01*
X52115464Y-46949187D01*
X52211718Y-47074628D01*
X52218164Y-47079574D01*
X52236769Y-47093850D01*
X52248964Y-47104545D01*
X66103181Y-60958762D01*
X66130061Y-60998990D01*
X66139500Y-61046443D01*
X66139500Y-64955548D01*
X66125985Y-65011843D01*
X66088385Y-65055866D01*
X66034898Y-65078021D01*
X65977182Y-65073479D01*
X65927819Y-65043229D01*
X63722771Y-62838181D01*
X61457286Y-60572695D01*
X61449842Y-60564514D01*
X61445786Y-60558123D01*
X61396775Y-60512098D01*
X61393978Y-60509387D01*
X61377227Y-60492636D01*
X61377226Y-60492635D01*
X61374471Y-60489880D01*
X61371290Y-60487412D01*
X61362414Y-60479830D01*
X61336269Y-60455278D01*
X61336267Y-60455276D01*
X61330582Y-60449938D01*
X61323749Y-60446182D01*
X61323743Y-60446177D01*
X61313025Y-60440285D01*
X61296766Y-60429606D01*
X61287095Y-60422104D01*
X61287092Y-60422102D01*
X61280936Y-60417327D01*
X61273779Y-60414229D01*
X61273776Y-60414228D01*
X61240849Y-60399978D01*
X61230363Y-60394841D01*
X61198932Y-60377562D01*
X61198923Y-60377558D01*
X61192092Y-60373803D01*
X61184535Y-60371862D01*
X61184531Y-60371861D01*
X61172688Y-60368820D01*
X61154284Y-60362519D01*
X61143057Y-60357660D01*
X61143050Y-60357658D01*
X61135896Y-60354562D01*
X61128192Y-60353341D01*
X61128190Y-60353341D01*
X61092759Y-60347729D01*
X61081324Y-60345361D01*
X61046571Y-60336438D01*
X61046563Y-60336437D01*
X61039019Y-60334500D01*
X61031223Y-60334500D01*
X61018983Y-60334500D01*
X60999597Y-60332974D01*
X60979804Y-60329840D01*
X60972038Y-60330574D01*
X60972035Y-60330574D01*
X60936324Y-60333950D01*
X60924655Y-60334500D01*
X56190452Y-60334500D01*
X56142999Y-60325061D01*
X56102771Y-60298181D01*
X46658961Y-50854370D01*
X46634721Y-50820072D01*
X46623321Y-50779650D01*
X46606353Y-50618204D01*
X46606352Y-50618203D01*
X46605674Y-50611744D01*
X46547179Y-50431716D01*
X46452533Y-50267784D01*
X46325871Y-50127112D01*
X46320613Y-50123292D01*
X46320611Y-50123290D01*
X46177988Y-50019669D01*
X46177987Y-50019668D01*
X46172730Y-50015849D01*
X46166792Y-50013205D01*
X46005745Y-49941501D01*
X46005740Y-49941499D01*
X45999803Y-49938856D01*
X45993444Y-49937504D01*
X45993440Y-49937503D01*
X45821008Y-49900852D01*
X45821005Y-49900851D01*
X45814646Y-49899500D01*
X45744500Y-49899500D01*
X45682500Y-49882887D01*
X45637113Y-49837500D01*
X45620500Y-49775500D01*
X45620500Y-46305452D01*
X45629939Y-46257999D01*
X45656819Y-46217771D01*
X47788295Y-44086295D01*
X50112311Y-41762278D01*
X50120481Y-41754844D01*
X50126877Y-41750786D01*
X50172918Y-41701756D01*
X50175535Y-41699054D01*
X50195120Y-41679471D01*
X50197585Y-41676292D01*
X50205167Y-41667416D01*
X50235062Y-41635582D01*
X50244713Y-41618023D01*
X50255390Y-41601770D01*
X50267673Y-41585936D01*
X50285018Y-41545852D01*
X50290151Y-41535371D01*
X50311197Y-41497092D01*
X50316179Y-41477684D01*
X50322482Y-41459276D01*
X50330437Y-41440896D01*
X50337271Y-41397744D01*
X50339633Y-41386338D01*
X50350500Y-41344019D01*
X50350500Y-41323983D01*
X50352027Y-41304585D01*
X50353939Y-41292513D01*
X50353938Y-41292513D01*
X50355160Y-41284804D01*
X50351050Y-41241324D01*
X50350500Y-41229655D01*
X50350500Y-39435771D01*
X50363288Y-39380927D01*
X50399013Y-39337395D01*
X50450309Y-39314154D01*
X50506593Y-39315996D01*
X50574592Y-39334216D01*
X50582023Y-39336207D01*
X50800000Y-39355277D01*
X51017977Y-39336207D01*
X51229330Y-39279575D01*
X51427639Y-39187102D01*
X51606877Y-39061598D01*
X51761598Y-38906877D01*
X51767903Y-38897872D01*
X51813925Y-38832147D01*
X51861142Y-38791820D01*
X51921990Y-38779440D01*
X51981210Y-38798112D01*
G37*
%TD.AperFunction*%
%TA.AperFunction,Conductor*%
G36*
X53402818Y-18746521D02*
G01*
X53452180Y-18776770D01*
X54458365Y-19782956D01*
X55218181Y-20542772D01*
X55245061Y-20583000D01*
X55254500Y-20630453D01*
X55254500Y-48112249D01*
X55240985Y-48168544D01*
X55203385Y-48212567D01*
X55149898Y-48234722D01*
X55092182Y-48230180D01*
X55042819Y-48199930D01*
X53276819Y-46433930D01*
X53249939Y-46393702D01*
X53240500Y-46346249D01*
X53240500Y-44929000D01*
X53257113Y-44867000D01*
X53302500Y-44821613D01*
X53364500Y-44805000D01*
X53428143Y-44805000D01*
X53434646Y-44805000D01*
X53619803Y-44765644D01*
X53792730Y-44688651D01*
X53945871Y-44577388D01*
X54072533Y-44436716D01*
X54167179Y-44272784D01*
X54225674Y-44092756D01*
X54245460Y-43904500D01*
X54225674Y-43716244D01*
X54167179Y-43536216D01*
X54072533Y-43372284D01*
X53997349Y-43288784D01*
X53973736Y-43250251D01*
X53965500Y-43205813D01*
X53965500Y-42433276D01*
X53973736Y-42388838D01*
X53997350Y-42350304D01*
X54072533Y-42266805D01*
X54167179Y-42102873D01*
X54225674Y-41922845D01*
X54245460Y-41734589D01*
X54229836Y-41585936D01*
X54226353Y-41552793D01*
X54226352Y-41552792D01*
X54225674Y-41546333D01*
X54167179Y-41366305D01*
X54072533Y-41202373D01*
X54045379Y-41172216D01*
X53950220Y-41066531D01*
X53950219Y-41066530D01*
X53945871Y-41061701D01*
X53940613Y-41057881D01*
X53940611Y-41057879D01*
X53797988Y-40954258D01*
X53797987Y-40954257D01*
X53792730Y-40950438D01*
X53786792Y-40947794D01*
X53625745Y-40876090D01*
X53625740Y-40876088D01*
X53619803Y-40873445D01*
X53613444Y-40872093D01*
X53613440Y-40872092D01*
X53441008Y-40835441D01*
X53441005Y-40835440D01*
X53434646Y-40834089D01*
X53364500Y-40834089D01*
X53302500Y-40817476D01*
X53257113Y-40772089D01*
X53240500Y-40710089D01*
X53240500Y-18864452D01*
X53254015Y-18808157D01*
X53291615Y-18764134D01*
X53345102Y-18741979D01*
X53402818Y-18746521D01*
G37*
%TD.AperFunction*%
%TA.AperFunction,Conductor*%
G36*
X111697500Y-12717113D02*
G01*
X111742887Y-12762500D01*
X111759500Y-12824500D01*
X111759500Y-109095500D01*
X111742887Y-109157500D01*
X111697500Y-109202887D01*
X111635500Y-109219500D01*
X12824500Y-109219500D01*
X12762500Y-109202887D01*
X12717113Y-109157500D01*
X12700500Y-109095500D01*
X12700500Y-101643935D01*
X83405669Y-101643935D01*
X83436135Y-101816711D01*
X83505623Y-101977804D01*
X83610390Y-102118530D01*
X83744786Y-102231302D01*
X83901567Y-102310040D01*
X84072279Y-102350500D01*
X84200111Y-102350500D01*
X84203709Y-102350500D01*
X84334255Y-102335241D01*
X84499117Y-102275237D01*
X84645696Y-102178830D01*
X84766092Y-102051218D01*
X84853812Y-101899281D01*
X84904130Y-101731210D01*
X84909213Y-101643935D01*
X87805669Y-101643935D01*
X87836135Y-101816711D01*
X87905623Y-101977804D01*
X88010390Y-102118530D01*
X88144786Y-102231302D01*
X88301567Y-102310040D01*
X88472279Y-102350500D01*
X88600111Y-102350500D01*
X88603709Y-102350500D01*
X88734255Y-102335241D01*
X88899117Y-102275237D01*
X89045696Y-102178830D01*
X89166092Y-102051218D01*
X89253812Y-101899281D01*
X89304130Y-101731210D01*
X89314331Y-101556065D01*
X89283865Y-101383289D01*
X89214377Y-101222196D01*
X89109610Y-101081470D01*
X89037747Y-101021170D01*
X88980745Y-100973339D01*
X88980744Y-100973338D01*
X88975214Y-100968698D01*
X88882810Y-100922291D01*
X88824883Y-100893199D01*
X88824880Y-100893198D01*
X88818433Y-100889960D01*
X88811407Y-100888294D01*
X88811405Y-100888294D01*
X88654749Y-100851165D01*
X88654743Y-100851164D01*
X88647721Y-100849500D01*
X88516291Y-100849500D01*
X88512725Y-100849916D01*
X88512721Y-100849917D01*
X88392915Y-100863920D01*
X88392907Y-100863921D01*
X88385745Y-100864759D01*
X88378967Y-100867225D01*
X88378958Y-100867228D01*
X88227674Y-100922291D01*
X88227671Y-100922292D01*
X88220883Y-100924763D01*
X88214850Y-100928730D01*
X88214842Y-100928735D01*
X88080340Y-101017199D01*
X88080334Y-101017203D01*
X88074304Y-101021170D01*
X88069351Y-101026419D01*
X88069346Y-101026424D01*
X87958865Y-101143527D01*
X87958861Y-101143531D01*
X87953908Y-101148782D01*
X87950299Y-101155032D01*
X87950296Y-101155037D01*
X87869799Y-101294463D01*
X87869796Y-101294468D01*
X87866188Y-101300719D01*
X87864117Y-101307634D01*
X87864117Y-101307636D01*
X87817941Y-101461869D01*
X87817939Y-101461877D01*
X87815870Y-101468790D01*
X87815450Y-101475996D01*
X87815449Y-101476004D01*
X87806088Y-101636725D01*
X87806088Y-101636733D01*
X87805669Y-101643935D01*
X84909213Y-101643935D01*
X84914331Y-101556065D01*
X84883865Y-101383289D01*
X84814377Y-101222196D01*
X84709610Y-101081470D01*
X84637747Y-101021170D01*
X84580745Y-100973339D01*
X84580744Y-100973338D01*
X84575214Y-100968698D01*
X84482810Y-100922291D01*
X84424883Y-100893199D01*
X84424880Y-100893198D01*
X84418433Y-100889960D01*
X84411407Y-100888294D01*
X84411405Y-100888294D01*
X84254749Y-100851165D01*
X84254743Y-100851164D01*
X84247721Y-100849500D01*
X84116291Y-100849500D01*
X84112725Y-100849916D01*
X84112721Y-100849917D01*
X83992915Y-100863920D01*
X83992907Y-100863921D01*
X83985745Y-100864759D01*
X83978967Y-100867225D01*
X83978958Y-100867228D01*
X83827674Y-100922291D01*
X83827671Y-100922292D01*
X83820883Y-100924763D01*
X83814850Y-100928730D01*
X83814842Y-100928735D01*
X83680340Y-101017199D01*
X83680334Y-101017203D01*
X83674304Y-101021170D01*
X83669351Y-101026419D01*
X83669346Y-101026424D01*
X83558865Y-101143527D01*
X83558861Y-101143531D01*
X83553908Y-101148782D01*
X83550299Y-101155032D01*
X83550296Y-101155037D01*
X83469799Y-101294463D01*
X83469796Y-101294468D01*
X83466188Y-101300719D01*
X83464117Y-101307634D01*
X83464117Y-101307636D01*
X83417941Y-101461869D01*
X83417939Y-101461877D01*
X83415870Y-101468790D01*
X83415450Y-101475996D01*
X83415449Y-101476004D01*
X83406088Y-101636725D01*
X83406088Y-101636733D01*
X83405669Y-101643935D01*
X12700500Y-101643935D01*
X12700500Y-86360000D01*
X39734540Y-86360000D01*
X39735219Y-86366460D01*
X39753646Y-86541795D01*
X39753647Y-86541803D01*
X39754326Y-86548256D01*
X39756331Y-86554428D01*
X39756333Y-86554435D01*
X39810813Y-86722105D01*
X39812821Y-86728284D01*
X39907467Y-86892216D01*
X39911811Y-86897041D01*
X39911813Y-86897043D01*
X39982650Y-86975715D01*
X40006264Y-87014249D01*
X40014500Y-87058687D01*
X40014500Y-91362225D01*
X40013978Y-91373280D01*
X40012327Y-91380667D01*
X40012571Y-91388453D01*
X40012571Y-91388461D01*
X40014439Y-91447873D01*
X40014500Y-91451768D01*
X40014500Y-91479350D01*
X40014988Y-91483219D01*
X40014989Y-91483225D01*
X40015004Y-91483343D01*
X40015918Y-91494966D01*
X40017045Y-91530830D01*
X40017046Y-91530837D01*
X40017291Y-91538627D01*
X40019467Y-91546119D01*
X40019468Y-91546121D01*
X40022879Y-91557862D01*
X40026825Y-91576915D01*
X40029336Y-91596792D01*
X40032206Y-91604042D01*
X40032208Y-91604048D01*
X40045414Y-91637404D01*
X40049197Y-91648451D01*
X40061382Y-91690390D01*
X40065353Y-91697105D01*
X40065354Y-91697107D01*
X40071581Y-91707637D01*
X40080136Y-91725099D01*
X40084642Y-91736480D01*
X40084643Y-91736483D01*
X40087514Y-91743732D01*
X40109440Y-91773912D01*
X40113181Y-91779060D01*
X40119593Y-91788822D01*
X40137856Y-91819702D01*
X40137859Y-91819707D01*
X40141830Y-91826420D01*
X40147345Y-91831935D01*
X40155990Y-91840580D01*
X40168626Y-91855374D01*
X40175819Y-91865275D01*
X40175823Y-91865279D01*
X40180406Y-91871587D01*
X40186415Y-91876558D01*
X40186416Y-91876559D01*
X40214058Y-91899426D01*
X40222699Y-91907289D01*
X42241038Y-93925629D01*
X42265278Y-93959927D01*
X42276678Y-94000348D01*
X42292091Y-94146998D01*
X42294326Y-94168256D01*
X42296331Y-94174428D01*
X42296333Y-94174435D01*
X42350813Y-94342105D01*
X42352821Y-94348284D01*
X42447467Y-94512216D01*
X42574129Y-94652888D01*
X42727270Y-94764151D01*
X42900197Y-94841144D01*
X43085354Y-94880500D01*
X43268143Y-94880500D01*
X43274646Y-94880500D01*
X43459803Y-94841144D01*
X43632730Y-94764151D01*
X43785871Y-94652888D01*
X43912533Y-94512216D01*
X44007179Y-94348284D01*
X44065674Y-94168256D01*
X44085460Y-93980000D01*
X44065674Y-93791744D01*
X44007179Y-93611716D01*
X43912533Y-93447784D01*
X43785871Y-93307112D01*
X43780613Y-93303292D01*
X43780611Y-93303290D01*
X43637988Y-93199669D01*
X43637987Y-93199668D01*
X43632730Y-93195849D01*
X43626792Y-93193205D01*
X43465745Y-93121501D01*
X43465740Y-93121499D01*
X43459803Y-93118856D01*
X43453444Y-93117504D01*
X43453440Y-93117503D01*
X43281008Y-93080852D01*
X43281005Y-93080851D01*
X43274646Y-93079500D01*
X43268143Y-93079500D01*
X43215453Y-93079500D01*
X43168000Y-93070061D01*
X43127772Y-93043181D01*
X41301819Y-91217228D01*
X41274939Y-91177000D01*
X41265500Y-91129547D01*
X41265500Y-87058687D01*
X41273736Y-87014249D01*
X41297350Y-86975715D01*
X41372533Y-86892216D01*
X41467179Y-86728284D01*
X41525674Y-86548256D01*
X41545460Y-86360000D01*
X41525674Y-86171744D01*
X41467179Y-85991716D01*
X41372533Y-85827784D01*
X41245871Y-85687112D01*
X41240613Y-85683292D01*
X41240611Y-85683290D01*
X41097988Y-85579669D01*
X41097987Y-85579668D01*
X41092730Y-85575849D01*
X41086792Y-85573205D01*
X40925745Y-85501501D01*
X40925740Y-85501499D01*
X40919803Y-85498856D01*
X40913444Y-85497504D01*
X40913440Y-85497503D01*
X40741008Y-85460852D01*
X40741005Y-85460851D01*
X40734646Y-85459500D01*
X40545354Y-85459500D01*
X40538995Y-85460851D01*
X40538991Y-85460852D01*
X40366559Y-85497503D01*
X40366552Y-85497505D01*
X40360197Y-85498856D01*
X40354262Y-85501498D01*
X40354254Y-85501501D01*
X40193207Y-85573205D01*
X40193202Y-85573207D01*
X40187270Y-85575849D01*
X40182016Y-85579665D01*
X40182011Y-85579669D01*
X40039388Y-85683290D01*
X40039381Y-85683295D01*
X40034129Y-85687112D01*
X40029784Y-85691937D01*
X40029779Y-85691942D01*
X39911813Y-85822956D01*
X39911808Y-85822962D01*
X39907467Y-85827784D01*
X39904222Y-85833404D01*
X39904218Y-85833410D01*
X39816069Y-85986089D01*
X39816066Y-85986094D01*
X39812821Y-85991716D01*
X39810815Y-85997888D01*
X39810813Y-85997894D01*
X39756333Y-86165564D01*
X39756331Y-86165573D01*
X39754326Y-86171744D01*
X39753648Y-86178194D01*
X39753646Y-86178204D01*
X39740254Y-86305629D01*
X39734540Y-86360000D01*
X12700500Y-86360000D01*
X12700500Y-83820000D01*
X21255040Y-83820000D01*
X21256071Y-83829814D01*
X21274146Y-84001795D01*
X21274147Y-84001803D01*
X21274826Y-84008256D01*
X21276831Y-84014428D01*
X21276833Y-84014435D01*
X21323825Y-84159060D01*
X21333321Y-84188284D01*
X21336568Y-84193908D01*
X21336569Y-84193910D01*
X21401160Y-84305786D01*
X21427967Y-84352216D01*
X21432311Y-84357041D01*
X21432313Y-84357043D01*
X21529182Y-84464626D01*
X21554629Y-84492888D01*
X21707770Y-84604151D01*
X21880697Y-84681144D01*
X22065854Y-84720500D01*
X22248643Y-84720500D01*
X22255146Y-84720500D01*
X22440303Y-84681144D01*
X22613230Y-84604151D01*
X22766371Y-84492888D01*
X22791820Y-84464623D01*
X22826232Y-84437858D01*
X22867782Y-84424657D01*
X23016762Y-84405044D01*
X23162841Y-84344536D01*
X23213341Y-84305786D01*
X23288282Y-84248282D01*
X23307510Y-84223222D01*
X23318189Y-84211044D01*
X25312416Y-82216819D01*
X25352645Y-82189939D01*
X25400098Y-82180500D01*
X25488143Y-82180500D01*
X25494646Y-82180500D01*
X25679803Y-82141144D01*
X25852730Y-82064151D01*
X26005871Y-81952888D01*
X26132533Y-81812216D01*
X26227179Y-81648284D01*
X26285674Y-81468256D01*
X26305460Y-81280000D01*
X65134540Y-81280000D01*
X65135219Y-81286460D01*
X65153646Y-81461795D01*
X65153647Y-81461803D01*
X65154326Y-81468256D01*
X65156331Y-81474428D01*
X65156333Y-81474435D01*
X65210813Y-81642105D01*
X65212821Y-81648284D01*
X65307467Y-81812216D01*
X65311811Y-81817041D01*
X65311813Y-81817043D01*
X65401112Y-81916219D01*
X65434129Y-81952888D01*
X65587270Y-82064151D01*
X65760197Y-82141144D01*
X65945354Y-82180500D01*
X66128143Y-82180500D01*
X66134646Y-82180500D01*
X66319803Y-82141144D01*
X66492730Y-82064151D01*
X66645871Y-81952888D01*
X66651601Y-81946523D01*
X66653271Y-81945310D01*
X66655050Y-81943709D01*
X66655218Y-81943895D01*
X66693315Y-81916219D01*
X66743748Y-81905500D01*
X70370500Y-81905500D01*
X70432500Y-81922113D01*
X70477887Y-81967500D01*
X70494500Y-82029500D01*
X70494500Y-83742225D01*
X70493978Y-83753280D01*
X70492327Y-83760667D01*
X70492571Y-83768453D01*
X70492571Y-83768461D01*
X70494439Y-83827873D01*
X70494500Y-83831768D01*
X70494500Y-83859350D01*
X70494988Y-83863219D01*
X70494989Y-83863225D01*
X70495004Y-83863343D01*
X70495918Y-83874966D01*
X70497045Y-83910830D01*
X70497046Y-83910837D01*
X70497291Y-83918627D01*
X70499467Y-83926119D01*
X70499468Y-83926121D01*
X70502879Y-83937862D01*
X70506825Y-83956915D01*
X70509336Y-83976792D01*
X70512206Y-83984042D01*
X70512208Y-83984048D01*
X70525414Y-84017404D01*
X70529197Y-84028451D01*
X70541382Y-84070390D01*
X70545353Y-84077105D01*
X70545354Y-84077107D01*
X70551581Y-84087637D01*
X70560136Y-84105099D01*
X70564642Y-84116480D01*
X70564643Y-84116483D01*
X70567514Y-84123732D01*
X70589440Y-84153912D01*
X70593181Y-84159060D01*
X70599593Y-84168822D01*
X70617856Y-84199702D01*
X70617859Y-84199707D01*
X70621830Y-84206420D01*
X70627344Y-84211934D01*
X70627345Y-84211935D01*
X70635990Y-84220580D01*
X70648626Y-84235374D01*
X70655819Y-84245275D01*
X70655823Y-84245279D01*
X70660406Y-84251587D01*
X70666415Y-84256558D01*
X70666416Y-84256559D01*
X70694058Y-84279426D01*
X70702699Y-84287289D01*
X72721038Y-86305629D01*
X72745278Y-86339927D01*
X72756678Y-86380348D01*
X72772091Y-86526998D01*
X72774326Y-86548256D01*
X72776331Y-86554428D01*
X72776333Y-86554435D01*
X72830813Y-86722105D01*
X72832821Y-86728284D01*
X72927467Y-86892216D01*
X73054129Y-87032888D01*
X73207270Y-87144151D01*
X73380197Y-87221144D01*
X73565354Y-87260500D01*
X73748143Y-87260500D01*
X73754646Y-87260500D01*
X73939803Y-87221144D01*
X74112730Y-87144151D01*
X74265871Y-87032888D01*
X74392533Y-86892216D01*
X74487179Y-86728284D01*
X74545674Y-86548256D01*
X74565460Y-86360000D01*
X74545674Y-86171744D01*
X74487179Y-85991716D01*
X74392533Y-85827784D01*
X74265871Y-85687112D01*
X74260613Y-85683292D01*
X74260611Y-85683290D01*
X74117988Y-85579669D01*
X74117987Y-85579668D01*
X74112730Y-85575849D01*
X74106792Y-85573205D01*
X73945745Y-85501501D01*
X73945740Y-85501499D01*
X73939803Y-85498856D01*
X73933444Y-85497504D01*
X73933440Y-85497503D01*
X73761008Y-85460852D01*
X73761005Y-85460851D01*
X73754646Y-85459500D01*
X73748143Y-85459500D01*
X73695453Y-85459500D01*
X73648000Y-85450061D01*
X73607772Y-85423181D01*
X71781819Y-83597228D01*
X71754939Y-83557000D01*
X71745500Y-83509547D01*
X71745500Y-82064147D01*
X71759015Y-82007852D01*
X71796615Y-81963829D01*
X71850102Y-81941674D01*
X71907818Y-81946216D01*
X71957180Y-81976465D01*
X72478924Y-82498210D01*
X72998181Y-83017467D01*
X73025061Y-83057695D01*
X73034500Y-83105148D01*
X73034500Y-83121313D01*
X73026264Y-83165751D01*
X73002650Y-83204285D01*
X72931813Y-83282956D01*
X72931808Y-83282962D01*
X72927467Y-83287784D01*
X72924222Y-83293404D01*
X72924218Y-83293410D01*
X72836069Y-83446089D01*
X72836066Y-83446094D01*
X72832821Y-83451716D01*
X72830815Y-83457888D01*
X72830813Y-83457894D01*
X72776333Y-83625564D01*
X72776331Y-83625573D01*
X72774326Y-83631744D01*
X72773648Y-83638194D01*
X72773646Y-83638204D01*
X72760776Y-83760667D01*
X72754540Y-83820000D01*
X72755571Y-83829814D01*
X72773646Y-84001795D01*
X72773647Y-84001803D01*
X72774326Y-84008256D01*
X72776331Y-84014428D01*
X72776333Y-84014435D01*
X72823325Y-84159060D01*
X72832821Y-84188284D01*
X72836068Y-84193908D01*
X72836069Y-84193910D01*
X72900660Y-84305786D01*
X72927467Y-84352216D01*
X72931811Y-84357041D01*
X72931813Y-84357043D01*
X73028682Y-84464626D01*
X73054129Y-84492888D01*
X73207270Y-84604151D01*
X73380197Y-84681144D01*
X73565354Y-84720500D01*
X73748143Y-84720500D01*
X73754646Y-84720500D01*
X73939803Y-84681144D01*
X74112730Y-84604151D01*
X74265871Y-84492888D01*
X74392533Y-84352216D01*
X74487179Y-84188284D01*
X74545674Y-84008256D01*
X74565460Y-83820000D01*
X74545674Y-83631744D01*
X74487179Y-83451716D01*
X74392533Y-83287784D01*
X74317349Y-83204284D01*
X74293736Y-83165751D01*
X74285500Y-83121313D01*
X74285500Y-82872467D01*
X74286020Y-82861414D01*
X74287672Y-82854028D01*
X74285561Y-82786840D01*
X74285500Y-82782946D01*
X74285500Y-82759240D01*
X74285500Y-82755345D01*
X74284998Y-82751376D01*
X74284080Y-82739719D01*
X74282954Y-82703868D01*
X74282709Y-82696068D01*
X74277120Y-82676835D01*
X74273174Y-82657778D01*
X74271641Y-82645639D01*
X74270664Y-82637903D01*
X74254582Y-82597286D01*
X74250803Y-82586246D01*
X74240795Y-82551797D01*
X74240793Y-82551794D01*
X74238618Y-82544305D01*
X74228417Y-82527055D01*
X74219863Y-82509596D01*
X74212486Y-82490963D01*
X74186808Y-82455620D01*
X74180401Y-82445866D01*
X74162142Y-82414991D01*
X74162141Y-82414989D01*
X74158170Y-82408275D01*
X74144005Y-82394110D01*
X74131370Y-82379317D01*
X74119594Y-82363108D01*
X74113583Y-82358135D01*
X74113581Y-82358133D01*
X74085941Y-82335268D01*
X74077300Y-82327405D01*
X73029895Y-81280000D01*
X77834540Y-81280000D01*
X77835219Y-81286460D01*
X77853646Y-81461795D01*
X77853647Y-81461803D01*
X77854326Y-81468256D01*
X77856331Y-81474428D01*
X77856333Y-81474435D01*
X77910813Y-81642105D01*
X77912821Y-81648284D01*
X78007467Y-81812216D01*
X78011811Y-81817041D01*
X78011813Y-81817043D01*
X78101112Y-81916219D01*
X78134129Y-81952888D01*
X78287270Y-82064151D01*
X78460197Y-82141144D01*
X78645354Y-82180500D01*
X78828143Y-82180500D01*
X78834646Y-82180500D01*
X79019803Y-82141144D01*
X79192730Y-82064151D01*
X79345871Y-81952888D01*
X79472533Y-81812216D01*
X79567179Y-81648284D01*
X79625674Y-81468256D01*
X79645460Y-81280000D01*
X79625674Y-81091744D01*
X79567179Y-80911716D01*
X79472533Y-80747784D01*
X79397349Y-80664284D01*
X79373736Y-80625751D01*
X79365500Y-80581313D01*
X79365500Y-76898687D01*
X79373736Y-76854249D01*
X79397350Y-76815715D01*
X79472533Y-76732216D01*
X79567179Y-76568284D01*
X79625674Y-76388256D01*
X79645460Y-76200000D01*
X79625674Y-76011744D01*
X79567179Y-75831716D01*
X79472533Y-75667784D01*
X79345871Y-75527112D01*
X79340613Y-75523292D01*
X79340611Y-75523290D01*
X79197988Y-75419669D01*
X79197987Y-75419668D01*
X79192730Y-75415849D01*
X79186792Y-75413205D01*
X79025745Y-75341501D01*
X79025740Y-75341499D01*
X79019803Y-75338856D01*
X79013444Y-75337504D01*
X79013440Y-75337503D01*
X78841008Y-75300852D01*
X78841005Y-75300851D01*
X78834646Y-75299500D01*
X78645354Y-75299500D01*
X78638995Y-75300851D01*
X78638991Y-75300852D01*
X78466559Y-75337503D01*
X78466552Y-75337505D01*
X78460197Y-75338856D01*
X78454262Y-75341498D01*
X78454254Y-75341501D01*
X78293207Y-75413205D01*
X78293202Y-75413207D01*
X78287270Y-75415849D01*
X78282016Y-75419665D01*
X78282011Y-75419669D01*
X78139388Y-75523290D01*
X78139381Y-75523295D01*
X78134129Y-75527112D01*
X78129784Y-75531937D01*
X78129779Y-75531942D01*
X78011813Y-75662956D01*
X78011808Y-75662962D01*
X78007467Y-75667784D01*
X78004222Y-75673404D01*
X78004218Y-75673410D01*
X77916069Y-75826089D01*
X77916066Y-75826094D01*
X77912821Y-75831716D01*
X77910815Y-75837888D01*
X77910813Y-75837894D01*
X77856333Y-76005564D01*
X77856331Y-76005573D01*
X77854326Y-76011744D01*
X77853648Y-76018194D01*
X77853646Y-76018204D01*
X77836650Y-76179925D01*
X77834540Y-76200000D01*
X77835219Y-76206460D01*
X77853646Y-76381795D01*
X77853647Y-76381803D01*
X77854326Y-76388256D01*
X77856331Y-76394428D01*
X77856333Y-76394435D01*
X77910813Y-76562105D01*
X77912821Y-76568284D01*
X77916068Y-76573908D01*
X77916069Y-76573910D01*
X77964866Y-76658430D01*
X78007467Y-76732216D01*
X78011811Y-76737041D01*
X78011813Y-76737043D01*
X78082650Y-76815715D01*
X78106264Y-76854249D01*
X78114500Y-76898687D01*
X78114500Y-80581313D01*
X78106264Y-80625751D01*
X78082650Y-80664285D01*
X78011813Y-80742956D01*
X78011808Y-80742962D01*
X78007467Y-80747784D01*
X78004222Y-80753404D01*
X78004218Y-80753410D01*
X77916069Y-80906089D01*
X77916066Y-80906094D01*
X77912821Y-80911716D01*
X77910815Y-80917888D01*
X77910813Y-80917894D01*
X77856333Y-81085564D01*
X77856331Y-81085573D01*
X77854326Y-81091744D01*
X77853648Y-81098194D01*
X77853646Y-81098204D01*
X77835962Y-81266464D01*
X77834540Y-81280000D01*
X73029895Y-81280000D01*
X71917591Y-80167695D01*
X71910147Y-80159514D01*
X71906091Y-80153123D01*
X71857080Y-80107098D01*
X71854283Y-80104387D01*
X71837532Y-80087636D01*
X71834776Y-80084880D01*
X71831698Y-80082492D01*
X71828774Y-80079914D01*
X71829752Y-80078804D01*
X71798383Y-80039808D01*
X71786423Y-79983585D01*
X71801101Y-79928009D01*
X71839263Y-79885023D01*
X71986961Y-79781604D01*
X71986961Y-79781603D01*
X71991401Y-79778495D01*
X72158495Y-79611401D01*
X72294035Y-79417830D01*
X72393903Y-79203663D01*
X72455063Y-78975408D01*
X72475659Y-78740000D01*
X72455063Y-78504592D01*
X72393903Y-78276337D01*
X72294035Y-78062171D01*
X72158495Y-77868599D01*
X71991401Y-77701505D01*
X71986968Y-77698401D01*
X71986961Y-77698395D01*
X71805842Y-77571575D01*
X71766976Y-77527257D01*
X71752965Y-77470000D01*
X71766976Y-77412743D01*
X71805842Y-77368425D01*
X71986961Y-77241604D01*
X71986961Y-77241603D01*
X71991401Y-77238495D01*
X72158495Y-77071401D01*
X72294035Y-76877830D01*
X72393903Y-76663663D01*
X72455063Y-76435408D01*
X72475659Y-76200000D01*
X72455063Y-75964592D01*
X72393903Y-75736337D01*
X72294035Y-75522171D01*
X72158495Y-75328599D01*
X71991401Y-75161505D01*
X71986968Y-75158401D01*
X71986961Y-75158395D01*
X71805842Y-75031575D01*
X71766976Y-74987257D01*
X71752965Y-74930000D01*
X71766976Y-74872743D01*
X71805842Y-74828425D01*
X71986961Y-74701604D01*
X71986961Y-74701603D01*
X71991401Y-74698495D01*
X72158495Y-74531401D01*
X72294035Y-74337830D01*
X72393903Y-74123663D01*
X72455063Y-73895408D01*
X72475659Y-73660000D01*
X72455063Y-73424592D01*
X72393903Y-73196337D01*
X72294035Y-72982171D01*
X72158495Y-72788599D01*
X72036181Y-72666285D01*
X72004885Y-72613539D01*
X72002696Y-72552246D01*
X72030149Y-72497401D01*
X72080529Y-72462422D01*
X72203777Y-72416452D01*
X72219189Y-72408037D01*
X72320092Y-72332501D01*
X72332501Y-72320092D01*
X72408037Y-72219189D01*
X72416452Y-72203777D01*
X72460888Y-72084641D01*
X72464426Y-72069667D01*
X72469646Y-72021114D01*
X72470000Y-72014518D01*
X72470000Y-71386326D01*
X72466549Y-71373450D01*
X72453674Y-71370000D01*
X70994000Y-71370000D01*
X70932000Y-71353387D01*
X70886613Y-71308000D01*
X70870000Y-71246000D01*
X70870000Y-70853674D01*
X71370000Y-70853674D01*
X71373450Y-70866549D01*
X71386326Y-70870000D01*
X72453674Y-70870000D01*
X72466549Y-70866549D01*
X72470000Y-70853674D01*
X72470000Y-70225482D01*
X72469646Y-70218885D01*
X72464426Y-70170332D01*
X72460888Y-70155358D01*
X72416452Y-70036222D01*
X72408037Y-70020810D01*
X72332501Y-69919907D01*
X72320092Y-69907498D01*
X72219189Y-69831962D01*
X72203777Y-69823547D01*
X72084641Y-69779111D01*
X72069667Y-69775573D01*
X72021114Y-69770353D01*
X72014518Y-69770000D01*
X71386326Y-69770000D01*
X71373450Y-69773450D01*
X71370000Y-69786326D01*
X71370000Y-70853674D01*
X70870000Y-70853674D01*
X70870000Y-69786326D01*
X70866549Y-69773450D01*
X70853674Y-69770000D01*
X70225482Y-69770000D01*
X70218885Y-69770353D01*
X70170332Y-69775573D01*
X70155358Y-69779111D01*
X70036222Y-69823547D01*
X70020810Y-69831962D01*
X69919907Y-69907498D01*
X69907498Y-69919907D01*
X69831962Y-70020810D01*
X69823544Y-70036226D01*
X69777576Y-70159471D01*
X69742597Y-70209850D01*
X69687753Y-70237303D01*
X69626460Y-70235114D01*
X69573714Y-70203818D01*
X69455232Y-70085336D01*
X69455230Y-70085334D01*
X69451401Y-70081505D01*
X69446970Y-70078402D01*
X69446966Y-70078399D01*
X69262259Y-69949066D01*
X69262257Y-69949064D01*
X69257830Y-69945965D01*
X69252933Y-69943681D01*
X69252927Y-69943678D01*
X69048572Y-69848386D01*
X69048570Y-69848385D01*
X69043663Y-69846097D01*
X69038438Y-69844697D01*
X69038430Y-69844694D01*
X68820634Y-69786337D01*
X68820630Y-69786336D01*
X68815408Y-69784937D01*
X68810020Y-69784465D01*
X68810017Y-69784465D01*
X68585395Y-69764813D01*
X68580000Y-69764341D01*
X68574605Y-69764813D01*
X68349982Y-69784465D01*
X68349977Y-69784465D01*
X68344592Y-69784937D01*
X68339371Y-69786335D01*
X68339365Y-69786337D01*
X68121569Y-69844694D01*
X68121557Y-69844698D01*
X68116337Y-69846097D01*
X68111432Y-69848383D01*
X68111427Y-69848386D01*
X67907081Y-69943675D01*
X67907077Y-69943677D01*
X67902171Y-69945965D01*
X67897738Y-69949068D01*
X67897731Y-69949073D01*
X67713034Y-70078399D01*
X67713029Y-70078402D01*
X67708599Y-70081505D01*
X67704775Y-70085328D01*
X67704769Y-70085334D01*
X67545334Y-70244769D01*
X67545328Y-70244775D01*
X67541505Y-70248599D01*
X67538402Y-70253029D01*
X67538399Y-70253034D01*
X67409073Y-70437731D01*
X67409068Y-70437738D01*
X67405965Y-70442171D01*
X67403677Y-70447077D01*
X67403675Y-70447081D01*
X67308386Y-70651427D01*
X67308383Y-70651432D01*
X67306097Y-70656337D01*
X67304698Y-70661557D01*
X67304694Y-70661569D01*
X67246337Y-70879365D01*
X67246335Y-70879371D01*
X67244937Y-70884592D01*
X67224341Y-71120000D01*
X67244937Y-71355408D01*
X67246336Y-71360630D01*
X67246337Y-71360634D01*
X67304694Y-71578430D01*
X67304697Y-71578438D01*
X67306097Y-71583663D01*
X67308385Y-71588570D01*
X67308386Y-71588572D01*
X67403678Y-71792927D01*
X67403681Y-71792933D01*
X67405965Y-71797830D01*
X67409064Y-71802257D01*
X67409066Y-71802259D01*
X67538399Y-71986966D01*
X67538402Y-71986970D01*
X67541505Y-71991401D01*
X67708599Y-72158495D01*
X67713032Y-72161599D01*
X67713038Y-72161604D01*
X67894158Y-72288425D01*
X67933024Y-72332743D01*
X67947035Y-72390000D01*
X67933024Y-72447257D01*
X67894159Y-72491575D01*
X67713041Y-72618395D01*
X67708599Y-72621505D01*
X67704775Y-72625328D01*
X67704769Y-72625334D01*
X67545334Y-72784769D01*
X67545328Y-72784775D01*
X67541505Y-72788599D01*
X67538402Y-72793029D01*
X67538399Y-72793034D01*
X67409073Y-72977731D01*
X67409068Y-72977738D01*
X67405965Y-72982171D01*
X67403677Y-72987077D01*
X67403675Y-72987081D01*
X67308386Y-73191427D01*
X67308383Y-73191432D01*
X67306097Y-73196337D01*
X67304698Y-73201557D01*
X67304694Y-73201569D01*
X67246337Y-73419365D01*
X67246335Y-73419371D01*
X67244937Y-73424592D01*
X67244465Y-73429977D01*
X67244465Y-73429982D01*
X67240246Y-73478204D01*
X67224341Y-73660000D01*
X67224813Y-73665395D01*
X67240811Y-73848256D01*
X67244937Y-73895408D01*
X67246336Y-73900630D01*
X67246337Y-73900634D01*
X67304694Y-74118430D01*
X67304697Y-74118438D01*
X67306097Y-74123663D01*
X67308385Y-74128570D01*
X67308386Y-74128572D01*
X67403678Y-74332927D01*
X67403681Y-74332933D01*
X67405965Y-74337830D01*
X67409064Y-74342257D01*
X67409066Y-74342259D01*
X67538399Y-74526966D01*
X67538402Y-74526970D01*
X67541505Y-74531401D01*
X67708599Y-74698495D01*
X67713032Y-74701599D01*
X67713038Y-74701604D01*
X67894158Y-74828425D01*
X67933024Y-74872743D01*
X67947035Y-74930000D01*
X67933024Y-74987257D01*
X67894159Y-75031575D01*
X67713041Y-75158395D01*
X67708599Y-75161505D01*
X67704775Y-75165328D01*
X67704769Y-75165334D01*
X67545334Y-75324769D01*
X67545328Y-75324775D01*
X67541505Y-75328599D01*
X67538402Y-75333029D01*
X67538399Y-75333034D01*
X67409073Y-75517731D01*
X67409068Y-75517738D01*
X67405965Y-75522171D01*
X67403677Y-75527077D01*
X67403675Y-75527081D01*
X67308386Y-75731427D01*
X67308383Y-75731432D01*
X67306097Y-75736337D01*
X67304698Y-75741557D01*
X67304694Y-75741569D01*
X67246337Y-75959365D01*
X67246335Y-75959371D01*
X67244937Y-75964592D01*
X67244465Y-75969977D01*
X67244465Y-75969982D01*
X67240246Y-76018204D01*
X67224341Y-76200000D01*
X67224813Y-76205395D01*
X67240811Y-76388256D01*
X67244937Y-76435408D01*
X67246336Y-76440630D01*
X67246337Y-76440634D01*
X67304694Y-76658430D01*
X67304697Y-76658438D01*
X67306097Y-76663663D01*
X67308385Y-76668570D01*
X67308386Y-76668572D01*
X67403678Y-76872927D01*
X67403681Y-76872933D01*
X67405965Y-76877830D01*
X67409064Y-76882257D01*
X67409066Y-76882259D01*
X67538399Y-77066966D01*
X67538402Y-77066970D01*
X67541505Y-77071401D01*
X67708599Y-77238495D01*
X67713032Y-77241599D01*
X67713038Y-77241604D01*
X67894158Y-77368425D01*
X67933024Y-77412743D01*
X67947035Y-77470000D01*
X67933024Y-77527257D01*
X67894159Y-77571575D01*
X67713041Y-77698395D01*
X67708599Y-77701505D01*
X67704775Y-77705328D01*
X67704769Y-77705334D01*
X67545334Y-77864769D01*
X67545328Y-77864775D01*
X67541505Y-77868599D01*
X67538402Y-77873029D01*
X67538399Y-77873034D01*
X67409073Y-78057731D01*
X67409068Y-78057738D01*
X67405965Y-78062171D01*
X67403678Y-78067074D01*
X67403677Y-78067077D01*
X67331869Y-78221068D01*
X67295144Y-78266907D01*
X67241444Y-78290702D01*
X67182818Y-78287116D01*
X67132419Y-78256952D01*
X67101558Y-78206984D01*
X67084478Y-78154417D01*
X66989832Y-77990485D01*
X66876636Y-77864769D01*
X66867519Y-77854643D01*
X66867518Y-77854642D01*
X66863170Y-77849813D01*
X66857912Y-77845993D01*
X66857910Y-77845991D01*
X66715287Y-77742370D01*
X66715286Y-77742369D01*
X66710029Y-77738550D01*
X66704091Y-77735906D01*
X66543044Y-77664202D01*
X66543039Y-77664200D01*
X66537102Y-77661557D01*
X66530743Y-77660205D01*
X66530739Y-77660204D01*
X66358307Y-77623553D01*
X66358304Y-77623552D01*
X66351945Y-77622201D01*
X66162653Y-77622201D01*
X66156294Y-77623552D01*
X66156290Y-77623553D01*
X65983858Y-77660204D01*
X65983851Y-77660206D01*
X65977496Y-77661557D01*
X65971561Y-77664199D01*
X65971553Y-77664202D01*
X65810506Y-77735906D01*
X65810501Y-77735908D01*
X65804569Y-77738550D01*
X65799315Y-77742366D01*
X65799310Y-77742370D01*
X65656687Y-77845991D01*
X65656680Y-77845996D01*
X65651428Y-77849813D01*
X65647083Y-77854638D01*
X65647078Y-77854643D01*
X65529112Y-77985657D01*
X65529107Y-77985663D01*
X65524766Y-77990485D01*
X65521521Y-77996105D01*
X65521517Y-77996111D01*
X65433368Y-78148790D01*
X65433365Y-78148795D01*
X65430120Y-78154417D01*
X65428115Y-78160588D01*
X65428112Y-78160595D01*
X65373632Y-78328265D01*
X65373630Y-78328274D01*
X65371625Y-78334445D01*
X65370947Y-78340895D01*
X65370945Y-78340905D01*
X65367058Y-78377894D01*
X65351839Y-78522701D01*
X65352518Y-78529161D01*
X65370945Y-78704496D01*
X65370946Y-78704504D01*
X65371625Y-78710957D01*
X65373630Y-78717129D01*
X65373632Y-78717136D01*
X65428112Y-78884806D01*
X65430120Y-78890985D01*
X65433367Y-78896609D01*
X65433368Y-78896611D01*
X65478861Y-78975408D01*
X65524766Y-79054917D01*
X65529110Y-79059742D01*
X65529112Y-79059744D01*
X65631295Y-79173229D01*
X65651428Y-79195589D01*
X65656686Y-79199409D01*
X65656687Y-79199410D01*
X65674060Y-79212032D01*
X65804569Y-79306852D01*
X65977496Y-79383845D01*
X66162653Y-79423201D01*
X66221847Y-79423201D01*
X66269300Y-79432640D01*
X66309528Y-79459520D01*
X67292826Y-80442819D01*
X67323076Y-80492182D01*
X67327618Y-80549898D01*
X67305463Y-80603385D01*
X67261440Y-80640985D01*
X67205145Y-80654500D01*
X66743748Y-80654500D01*
X66693315Y-80643781D01*
X66655218Y-80616104D01*
X66655050Y-80616291D01*
X66653271Y-80614689D01*
X66651601Y-80613476D01*
X66645871Y-80607112D01*
X66640613Y-80603292D01*
X66640611Y-80603290D01*
X66497988Y-80499669D01*
X66497987Y-80499668D01*
X66492730Y-80495849D01*
X66484494Y-80492182D01*
X66325745Y-80421501D01*
X66325740Y-80421499D01*
X66319803Y-80418856D01*
X66313444Y-80417504D01*
X66313440Y-80417503D01*
X66141008Y-80380852D01*
X66141005Y-80380851D01*
X66134646Y-80379500D01*
X65945354Y-80379500D01*
X65938995Y-80380851D01*
X65938991Y-80380852D01*
X65766559Y-80417503D01*
X65766552Y-80417505D01*
X65760197Y-80418856D01*
X65754262Y-80421498D01*
X65754254Y-80421501D01*
X65593207Y-80493205D01*
X65593202Y-80493207D01*
X65587270Y-80495849D01*
X65582016Y-80499665D01*
X65582011Y-80499669D01*
X65439388Y-80603290D01*
X65439381Y-80603295D01*
X65434129Y-80607112D01*
X65429784Y-80611937D01*
X65429779Y-80611942D01*
X65311813Y-80742956D01*
X65311808Y-80742962D01*
X65307467Y-80747784D01*
X65304222Y-80753404D01*
X65304218Y-80753410D01*
X65216069Y-80906089D01*
X65216066Y-80906094D01*
X65212821Y-80911716D01*
X65210815Y-80917888D01*
X65210813Y-80917894D01*
X65156333Y-81085564D01*
X65156331Y-81085573D01*
X65154326Y-81091744D01*
X65153648Y-81098194D01*
X65153646Y-81098204D01*
X65135962Y-81266464D01*
X65134540Y-81280000D01*
X26305460Y-81280000D01*
X26285674Y-81091744D01*
X26227179Y-80911716D01*
X26132533Y-80747784D01*
X26048539Y-80654500D01*
X26010220Y-80611942D01*
X26010219Y-80611941D01*
X26005871Y-80607112D01*
X26000613Y-80603292D01*
X26000611Y-80603290D01*
X25857988Y-80499669D01*
X25857987Y-80499668D01*
X25852730Y-80495849D01*
X25844494Y-80492182D01*
X25685745Y-80421501D01*
X25685740Y-80421499D01*
X25679803Y-80418856D01*
X25673444Y-80417504D01*
X25673440Y-80417503D01*
X25501008Y-80380852D01*
X25501005Y-80380851D01*
X25494646Y-80379500D01*
X25305354Y-80379500D01*
X25298995Y-80380851D01*
X25298991Y-80380852D01*
X25126559Y-80417503D01*
X25126552Y-80417505D01*
X25120197Y-80418856D01*
X25114262Y-80421498D01*
X25114254Y-80421501D01*
X24953207Y-80493205D01*
X24953202Y-80493207D01*
X24947270Y-80495849D01*
X24942016Y-80499665D01*
X24942011Y-80499669D01*
X24799388Y-80603290D01*
X24799381Y-80603295D01*
X24794129Y-80607112D01*
X24789784Y-80611937D01*
X24789779Y-80611942D01*
X24671813Y-80742956D01*
X24671808Y-80742962D01*
X24667467Y-80747784D01*
X24664222Y-80753404D01*
X24664218Y-80753410D01*
X24576069Y-80906089D01*
X24576066Y-80906094D01*
X24572821Y-80911716D01*
X24570815Y-80917888D01*
X24570813Y-80917894D01*
X24516333Y-81085564D01*
X24516331Y-81085573D01*
X24514326Y-81091744D01*
X24513648Y-81098194D01*
X24513646Y-81098204D01*
X24495962Y-81266464D01*
X24494540Y-81280000D01*
X24495062Y-81284969D01*
X24485780Y-81331635D01*
X24458900Y-81371863D01*
X22793347Y-83037416D01*
X22743985Y-83067666D01*
X22686270Y-83072209D01*
X22632783Y-83050055D01*
X22613230Y-83035849D01*
X22571944Y-83017467D01*
X22446245Y-82961501D01*
X22446240Y-82961499D01*
X22440303Y-82958856D01*
X22433944Y-82957504D01*
X22433940Y-82957503D01*
X22261508Y-82920852D01*
X22261505Y-82920851D01*
X22255146Y-82919500D01*
X22065854Y-82919500D01*
X22059495Y-82920851D01*
X22059491Y-82920852D01*
X21887059Y-82957503D01*
X21887052Y-82957505D01*
X21880697Y-82958856D01*
X21874762Y-82961498D01*
X21874754Y-82961501D01*
X21713707Y-83033205D01*
X21713702Y-83033207D01*
X21707770Y-83035849D01*
X21702516Y-83039665D01*
X21702511Y-83039669D01*
X21559888Y-83143290D01*
X21559881Y-83143295D01*
X21554629Y-83147112D01*
X21550284Y-83151937D01*
X21550279Y-83151942D01*
X21432313Y-83282956D01*
X21432308Y-83282962D01*
X21427967Y-83287784D01*
X21424722Y-83293404D01*
X21424718Y-83293410D01*
X21336569Y-83446089D01*
X21336566Y-83446094D01*
X21333321Y-83451716D01*
X21331315Y-83457888D01*
X21331313Y-83457894D01*
X21276833Y-83625564D01*
X21276831Y-83625573D01*
X21274826Y-83631744D01*
X21274148Y-83638194D01*
X21274146Y-83638204D01*
X21261276Y-83760667D01*
X21255040Y-83820000D01*
X12700500Y-83820000D01*
X12700500Y-78740000D01*
X24494540Y-78740000D01*
X24495219Y-78746460D01*
X24513646Y-78921795D01*
X24513647Y-78921803D01*
X24514326Y-78928256D01*
X24516331Y-78934428D01*
X24516333Y-78934435D01*
X24557049Y-79059744D01*
X24572821Y-79108284D01*
X24576068Y-79113908D01*
X24576069Y-79113910D01*
X24625432Y-79199410D01*
X24667467Y-79272216D01*
X24671811Y-79277041D01*
X24671813Y-79277043D01*
X24732661Y-79344621D01*
X24794129Y-79412888D01*
X24947270Y-79524151D01*
X25120197Y-79601144D01*
X25305354Y-79640500D01*
X25488143Y-79640500D01*
X25494646Y-79640500D01*
X25679803Y-79601144D01*
X25852730Y-79524151D01*
X26005871Y-79412888D01*
X26010223Y-79408055D01*
X26034110Y-79381527D01*
X26075824Y-79351220D01*
X26126259Y-79340500D01*
X53292513Y-79340500D01*
X53308698Y-79341561D01*
X53340000Y-79345682D01*
X53496762Y-79325044D01*
X53642841Y-79264536D01*
X53696710Y-79223201D01*
X53768282Y-79168282D01*
X53787510Y-79143222D01*
X53798189Y-79131044D01*
X55792416Y-77136819D01*
X55832645Y-77109939D01*
X55880098Y-77100500D01*
X55968143Y-77100500D01*
X55974646Y-77100500D01*
X56159803Y-77061144D01*
X56332730Y-76984151D01*
X56485871Y-76872888D01*
X56612533Y-76732216D01*
X56707179Y-76568284D01*
X56765674Y-76388256D01*
X56785460Y-76200000D01*
X56765674Y-76011744D01*
X56707179Y-75831716D01*
X56612533Y-75667784D01*
X56485871Y-75527112D01*
X56480613Y-75523292D01*
X56480611Y-75523290D01*
X56337988Y-75419669D01*
X56337987Y-75419668D01*
X56332730Y-75415849D01*
X56326792Y-75413205D01*
X56165745Y-75341501D01*
X56165740Y-75341499D01*
X56159803Y-75338856D01*
X56153444Y-75337504D01*
X56153440Y-75337503D01*
X55981008Y-75300852D01*
X55981005Y-75300851D01*
X55974646Y-75299500D01*
X55785354Y-75299500D01*
X55778995Y-75300851D01*
X55778991Y-75300852D01*
X55606559Y-75337503D01*
X55606552Y-75337505D01*
X55600197Y-75338856D01*
X55594262Y-75341498D01*
X55594254Y-75341501D01*
X55433207Y-75413205D01*
X55433202Y-75413207D01*
X55427270Y-75415849D01*
X55422016Y-75419665D01*
X55422011Y-75419669D01*
X55279388Y-75523290D01*
X55279381Y-75523295D01*
X55274129Y-75527112D01*
X55269784Y-75531937D01*
X55269779Y-75531942D01*
X55151813Y-75662956D01*
X55151808Y-75662962D01*
X55147467Y-75667784D01*
X55144222Y-75673404D01*
X55144218Y-75673410D01*
X55056069Y-75826089D01*
X55056066Y-75826094D01*
X55052821Y-75831716D01*
X55050815Y-75837888D01*
X55050813Y-75837894D01*
X54996333Y-76005564D01*
X54996331Y-76005573D01*
X54994326Y-76011744D01*
X54993648Y-76018194D01*
X54993646Y-76018204D01*
X54976650Y-76179925D01*
X54974540Y-76200000D01*
X54975062Y-76204969D01*
X54965780Y-76251635D01*
X54938900Y-76291863D01*
X54415049Y-76815715D01*
X53566563Y-77664202D01*
X53127584Y-78103181D01*
X53087356Y-78130061D01*
X53039903Y-78139500D01*
X26126259Y-78139500D01*
X26075824Y-78128780D01*
X26034110Y-78098473D01*
X26010223Y-78071944D01*
X26010216Y-78071938D01*
X26005871Y-78067112D01*
X26000612Y-78063291D01*
X25857988Y-77959669D01*
X25857987Y-77959668D01*
X25852730Y-77955849D01*
X25846792Y-77953205D01*
X25685745Y-77881501D01*
X25685740Y-77881499D01*
X25679803Y-77878856D01*
X25673444Y-77877504D01*
X25673440Y-77877503D01*
X25501008Y-77840852D01*
X25501005Y-77840851D01*
X25494646Y-77839500D01*
X25305354Y-77839500D01*
X25298995Y-77840851D01*
X25298991Y-77840852D01*
X25126559Y-77877503D01*
X25126552Y-77877505D01*
X25120197Y-77878856D01*
X25114262Y-77881498D01*
X25114254Y-77881501D01*
X24953207Y-77953205D01*
X24953202Y-77953207D01*
X24947270Y-77955849D01*
X24942016Y-77959665D01*
X24942011Y-77959669D01*
X24799388Y-78063290D01*
X24799381Y-78063295D01*
X24794129Y-78067112D01*
X24789784Y-78071937D01*
X24789779Y-78071942D01*
X24671813Y-78202956D01*
X24671808Y-78202962D01*
X24667467Y-78207784D01*
X24664222Y-78213404D01*
X24664218Y-78213410D01*
X24576069Y-78366089D01*
X24576066Y-78366094D01*
X24572821Y-78371716D01*
X24570815Y-78377888D01*
X24570813Y-78377894D01*
X24516333Y-78545564D01*
X24516331Y-78545573D01*
X24514326Y-78551744D01*
X24513648Y-78558194D01*
X24513646Y-78558204D01*
X24497592Y-78710957D01*
X24494540Y-78740000D01*
X12700500Y-78740000D01*
X12700500Y-68580000D01*
X16424341Y-68580000D01*
X16424813Y-68585395D01*
X16440811Y-68768256D01*
X16444937Y-68815408D01*
X16446336Y-68820630D01*
X16446337Y-68820634D01*
X16504694Y-69038430D01*
X16504697Y-69038438D01*
X16506097Y-69043663D01*
X16508385Y-69048570D01*
X16508386Y-69048572D01*
X16603678Y-69252927D01*
X16603681Y-69252933D01*
X16605965Y-69257830D01*
X16609064Y-69262257D01*
X16609066Y-69262259D01*
X16738399Y-69446966D01*
X16738402Y-69446970D01*
X16741505Y-69451401D01*
X16745335Y-69455231D01*
X16745336Y-69455232D01*
X16863430Y-69573326D01*
X16894726Y-69626072D01*
X16896915Y-69687365D01*
X16869462Y-69742210D01*
X16819083Y-69777189D01*
X16703702Y-69820223D01*
X16687669Y-69826204D01*
X16680572Y-69831516D01*
X16680568Y-69831519D01*
X16579550Y-69907141D01*
X16579546Y-69907144D01*
X16572454Y-69912454D01*
X16567144Y-69919546D01*
X16567141Y-69919550D01*
X16491519Y-70020568D01*
X16491516Y-70020572D01*
X16486204Y-70027669D01*
X16483104Y-70035978D01*
X16483104Y-70035980D01*
X16438620Y-70155247D01*
X16438619Y-70155250D01*
X16435909Y-70162517D01*
X16435079Y-70170227D01*
X16435079Y-70170232D01*
X16429855Y-70218819D01*
X16429854Y-70218831D01*
X16429500Y-70222127D01*
X16429500Y-70225448D01*
X16429500Y-70225449D01*
X16429500Y-72014560D01*
X16429500Y-72014578D01*
X16429501Y-72017872D01*
X16429853Y-72021150D01*
X16429854Y-72021161D01*
X16435079Y-72069768D01*
X16435080Y-72069773D01*
X16435909Y-72077483D01*
X16438619Y-72084749D01*
X16438620Y-72084753D01*
X16464695Y-72154663D01*
X16486204Y-72212331D01*
X16491518Y-72219430D01*
X16491519Y-72219431D01*
X16547367Y-72294035D01*
X16572454Y-72327546D01*
X16687669Y-72413796D01*
X16822517Y-72464091D01*
X16882127Y-72470500D01*
X18677872Y-72470499D01*
X18737483Y-72464091D01*
X18872331Y-72413796D01*
X18987546Y-72327546D01*
X19073796Y-72212331D01*
X19122810Y-72080916D01*
X19157789Y-72030537D01*
X19212634Y-72003084D01*
X19273927Y-72005273D01*
X19326673Y-72036569D01*
X19448599Y-72158495D01*
X19453031Y-72161598D01*
X19453033Y-72161600D01*
X19597260Y-72262589D01*
X19642170Y-72294035D01*
X19856337Y-72393903D01*
X20084592Y-72455063D01*
X20320000Y-72475659D01*
X20322070Y-72475477D01*
X20377154Y-72488702D01*
X20421177Y-72526302D01*
X20443332Y-72579789D01*
X20438790Y-72637505D01*
X20408540Y-72686868D01*
X17832228Y-75263181D01*
X17792000Y-75290061D01*
X17744547Y-75299500D01*
X17685354Y-75299500D01*
X17678995Y-75300851D01*
X17678991Y-75300852D01*
X17506559Y-75337503D01*
X17506552Y-75337505D01*
X17500197Y-75338856D01*
X17494262Y-75341498D01*
X17494254Y-75341501D01*
X17333207Y-75413205D01*
X17333202Y-75413207D01*
X17327270Y-75415849D01*
X17322016Y-75419665D01*
X17322011Y-75419669D01*
X17179388Y-75523290D01*
X17179381Y-75523295D01*
X17174129Y-75527112D01*
X17169784Y-75531937D01*
X17169779Y-75531942D01*
X17051813Y-75662956D01*
X17051808Y-75662962D01*
X17047467Y-75667784D01*
X17044222Y-75673404D01*
X17044218Y-75673410D01*
X16956069Y-75826089D01*
X16956066Y-75826094D01*
X16952821Y-75831716D01*
X16950815Y-75837888D01*
X16950813Y-75837894D01*
X16896333Y-76005564D01*
X16896331Y-76005573D01*
X16894326Y-76011744D01*
X16893648Y-76018194D01*
X16893646Y-76018204D01*
X16876650Y-76179925D01*
X16874540Y-76200000D01*
X16875219Y-76206460D01*
X16893646Y-76381795D01*
X16893647Y-76381803D01*
X16894326Y-76388256D01*
X16896331Y-76394428D01*
X16896333Y-76394435D01*
X16950813Y-76562105D01*
X16952821Y-76568284D01*
X16956068Y-76573908D01*
X16956069Y-76573910D01*
X17004866Y-76658430D01*
X17047467Y-76732216D01*
X17174129Y-76872888D01*
X17327270Y-76984151D01*
X17500197Y-77061144D01*
X17685354Y-77100500D01*
X17868143Y-77100500D01*
X17874646Y-77100500D01*
X18059803Y-77061144D01*
X18232730Y-76984151D01*
X18385871Y-76872888D01*
X18512533Y-76732216D01*
X18607179Y-76568284D01*
X18665674Y-76388256D01*
X18683321Y-76220344D01*
X18694721Y-76179925D01*
X18718958Y-76145630D01*
X21204588Y-73660000D01*
X29574540Y-73660000D01*
X29575219Y-73666460D01*
X29593646Y-73841795D01*
X29593647Y-73841803D01*
X29594326Y-73848256D01*
X29596331Y-73854428D01*
X29596333Y-73854435D01*
X29650813Y-74022105D01*
X29652821Y-74028284D01*
X29656068Y-74033908D01*
X29656069Y-74033910D01*
X29741481Y-74181849D01*
X29747467Y-74192216D01*
X29751811Y-74197041D01*
X29751813Y-74197043D01*
X29812661Y-74264621D01*
X29874129Y-74332888D01*
X30027270Y-74444151D01*
X30200197Y-74521144D01*
X30385354Y-74560500D01*
X30568143Y-74560500D01*
X30574646Y-74560500D01*
X30759803Y-74521144D01*
X30932730Y-74444151D01*
X31085871Y-74332888D01*
X31090223Y-74328055D01*
X31114110Y-74301527D01*
X31155824Y-74271220D01*
X31206259Y-74260500D01*
X61902463Y-74260500D01*
X61918648Y-74261561D01*
X61949950Y-74265682D01*
X62106712Y-74245044D01*
X62252791Y-74184536D01*
X62252790Y-74184536D01*
X62378232Y-74088282D01*
X62397460Y-74063222D01*
X62408139Y-74051044D01*
X67131044Y-69328139D01*
X67143222Y-69317460D01*
X67168282Y-69298232D01*
X67264536Y-69172791D01*
X67325044Y-69026712D01*
X67340500Y-68909311D01*
X67345682Y-68869950D01*
X67341561Y-68838648D01*
X67340500Y-68822463D01*
X67340500Y-67340100D01*
X92881941Y-67340100D01*
X92882620Y-67346560D01*
X92901047Y-67521895D01*
X92901048Y-67521903D01*
X92901727Y-67528356D01*
X92903732Y-67534528D01*
X92903734Y-67534535D01*
X92939036Y-67643181D01*
X92960222Y-67708384D01*
X92963469Y-67714008D01*
X92963470Y-67714010D01*
X93035211Y-67838270D01*
X93054868Y-67872316D01*
X93059212Y-67877141D01*
X93059214Y-67877143D01*
X93140818Y-67967773D01*
X93181530Y-68012988D01*
X93186788Y-68016808D01*
X93186789Y-68016809D01*
X93229423Y-68047784D01*
X93334671Y-68124251D01*
X93507598Y-68201244D01*
X93692755Y-68240600D01*
X93875544Y-68240600D01*
X93882047Y-68240600D01*
X94067204Y-68201244D01*
X94240131Y-68124251D01*
X94393272Y-68012988D01*
X94399002Y-68006623D01*
X94400672Y-68005410D01*
X94402451Y-68003809D01*
X94402619Y-68003995D01*
X94440716Y-67976319D01*
X94491149Y-67965600D01*
X95464125Y-67965600D01*
X95475180Y-67966121D01*
X95482567Y-67967773D01*
X95549772Y-67965661D01*
X95553668Y-67965600D01*
X95577348Y-67965600D01*
X95581250Y-67965600D01*
X95585213Y-67965099D01*
X95596863Y-67964180D01*
X95640527Y-67962809D01*
X95659761Y-67957219D01*
X95678817Y-67953274D01*
X95698692Y-67950764D01*
X95739295Y-67934687D01*
X95750350Y-67930902D01*
X95792290Y-67918718D01*
X95809529Y-67908522D01*
X95827003Y-67899962D01*
X95838374Y-67895460D01*
X95838376Y-67895458D01*
X95845632Y-67892586D01*
X95880969Y-67866911D01*
X95890724Y-67860503D01*
X95928320Y-67838270D01*
X95942484Y-67824105D01*
X95957279Y-67811468D01*
X95973487Y-67799694D01*
X96001328Y-67766038D01*
X96009179Y-67757409D01*
X96789771Y-66976819D01*
X96830000Y-66949939D01*
X96877453Y-66940500D01*
X96930143Y-66940500D01*
X96936646Y-66940500D01*
X97121803Y-66901144D01*
X97294730Y-66824151D01*
X97447871Y-66712888D01*
X97574533Y-66572216D01*
X97669179Y-66408284D01*
X97727674Y-66228256D01*
X97747460Y-66040000D01*
X97727674Y-65851744D01*
X97669179Y-65671716D01*
X97574533Y-65507784D01*
X97447871Y-65367112D01*
X97442613Y-65363292D01*
X97442611Y-65363290D01*
X97299988Y-65259669D01*
X97299987Y-65259668D01*
X97294730Y-65255849D01*
X97288792Y-65253205D01*
X97127745Y-65181501D01*
X97127740Y-65181499D01*
X97121803Y-65178856D01*
X97115444Y-65177504D01*
X97115440Y-65177503D01*
X96943008Y-65140852D01*
X96943005Y-65140851D01*
X96936646Y-65139500D01*
X96747354Y-65139500D01*
X96740995Y-65140851D01*
X96740991Y-65140852D01*
X96568559Y-65177503D01*
X96568552Y-65177505D01*
X96562197Y-65178856D01*
X96556262Y-65181498D01*
X96556254Y-65181501D01*
X96395207Y-65253205D01*
X96395202Y-65253207D01*
X96389270Y-65255849D01*
X96384016Y-65259665D01*
X96384011Y-65259669D01*
X96241388Y-65363290D01*
X96241381Y-65363295D01*
X96236129Y-65367112D01*
X96231784Y-65371937D01*
X96231779Y-65371942D01*
X96113813Y-65502956D01*
X96113808Y-65502962D01*
X96109467Y-65507784D01*
X96106222Y-65513404D01*
X96106218Y-65513410D01*
X96018069Y-65666089D01*
X96018066Y-65666094D01*
X96014821Y-65671716D01*
X96012815Y-65677888D01*
X96012813Y-65677894D01*
X95958333Y-65845564D01*
X95958331Y-65845573D01*
X95956326Y-65851744D01*
X95955647Y-65858203D01*
X95955647Y-65858204D01*
X95938678Y-66019650D01*
X95927278Y-66060071D01*
X95903038Y-66094369D01*
X95319128Y-66678281D01*
X95278900Y-66705161D01*
X95231447Y-66714600D01*
X94491149Y-66714600D01*
X94440716Y-66703881D01*
X94402619Y-66676204D01*
X94402451Y-66676391D01*
X94400672Y-66674789D01*
X94399002Y-66673576D01*
X94398059Y-66672529D01*
X94393272Y-66667212D01*
X94388014Y-66663392D01*
X94388012Y-66663390D01*
X94245389Y-66559769D01*
X94245388Y-66559768D01*
X94240131Y-66555949D01*
X94234193Y-66553305D01*
X94073146Y-66481601D01*
X94073141Y-66481599D01*
X94067204Y-66478956D01*
X94060845Y-66477604D01*
X94060841Y-66477603D01*
X93888409Y-66440952D01*
X93888406Y-66440951D01*
X93882047Y-66439600D01*
X93692755Y-66439600D01*
X93686396Y-66440951D01*
X93686392Y-66440952D01*
X93513960Y-66477603D01*
X93513953Y-66477605D01*
X93507598Y-66478956D01*
X93501663Y-66481598D01*
X93501655Y-66481601D01*
X93340608Y-66553305D01*
X93340603Y-66553307D01*
X93334671Y-66555949D01*
X93329417Y-66559765D01*
X93329412Y-66559769D01*
X93186789Y-66663390D01*
X93186782Y-66663395D01*
X93181530Y-66667212D01*
X93177185Y-66672037D01*
X93177180Y-66672042D01*
X93059214Y-66803056D01*
X93059209Y-66803062D01*
X93054868Y-66807884D01*
X93051623Y-66813504D01*
X93051619Y-66813510D01*
X92963470Y-66966189D01*
X92963467Y-66966194D01*
X92960222Y-66971816D01*
X92958216Y-66977988D01*
X92958214Y-66977994D01*
X92903734Y-67145664D01*
X92903732Y-67145673D01*
X92901727Y-67151844D01*
X92901049Y-67158294D01*
X92901047Y-67158304D01*
X92883363Y-67326564D01*
X92881941Y-67340100D01*
X67340500Y-67340100D01*
X67340500Y-60793833D01*
X67341561Y-60777648D01*
X67344621Y-60754405D01*
X67345682Y-60746346D01*
X67325044Y-60589584D01*
X67290527Y-60506253D01*
X69102820Y-60506253D01*
X69103499Y-60512713D01*
X69121926Y-60688048D01*
X69121927Y-60688056D01*
X69122606Y-60694509D01*
X69124611Y-60700681D01*
X69124613Y-60700688D01*
X69179093Y-60868358D01*
X69181101Y-60874537D01*
X69184348Y-60880161D01*
X69184349Y-60880163D01*
X69196933Y-60901960D01*
X69275747Y-61038469D01*
X69280091Y-61043294D01*
X69280093Y-61043296D01*
X69322087Y-61089935D01*
X69402409Y-61179141D01*
X69555550Y-61290404D01*
X69728477Y-61367397D01*
X69913634Y-61406753D01*
X69972828Y-61406753D01*
X70020281Y-61416192D01*
X70060509Y-61443072D01*
X70458181Y-61840744D01*
X70485061Y-61880972D01*
X70494500Y-61928425D01*
X70494500Y-63422225D01*
X70493978Y-63433280D01*
X70492327Y-63440667D01*
X70492571Y-63448453D01*
X70492571Y-63448461D01*
X70494439Y-63507873D01*
X70494500Y-63511768D01*
X70494500Y-63539350D01*
X70494988Y-63543219D01*
X70494989Y-63543225D01*
X70495004Y-63543343D01*
X70495918Y-63554966D01*
X70497045Y-63590830D01*
X70497046Y-63590837D01*
X70497291Y-63598627D01*
X70499467Y-63606119D01*
X70499468Y-63606121D01*
X70502879Y-63617862D01*
X70506825Y-63636915D01*
X70509336Y-63656792D01*
X70512206Y-63664042D01*
X70512208Y-63664048D01*
X70525414Y-63697404D01*
X70529197Y-63708451D01*
X70541382Y-63750390D01*
X70545353Y-63757105D01*
X70545354Y-63757107D01*
X70551581Y-63767637D01*
X70560136Y-63785099D01*
X70564642Y-63796480D01*
X70564643Y-63796483D01*
X70567514Y-63803732D01*
X70589440Y-63833912D01*
X70593181Y-63839060D01*
X70599593Y-63848822D01*
X70617856Y-63879702D01*
X70617859Y-63879707D01*
X70621830Y-63886420D01*
X70627344Y-63891934D01*
X70627345Y-63891935D01*
X70635990Y-63900580D01*
X70648626Y-63915374D01*
X70655819Y-63925275D01*
X70655823Y-63925279D01*
X70660406Y-63931587D01*
X70666415Y-63936558D01*
X70666416Y-63936559D01*
X70694058Y-63959426D01*
X70702699Y-63967289D01*
X72721038Y-65985629D01*
X72745278Y-66019927D01*
X72756678Y-66060348D01*
X72760254Y-66094369D01*
X72774326Y-66228256D01*
X72776331Y-66234428D01*
X72776333Y-66234435D01*
X72798865Y-66303780D01*
X72832821Y-66408284D01*
X72836068Y-66413908D01*
X72836069Y-66413910D01*
X72920280Y-66559769D01*
X72927467Y-66572216D01*
X72931811Y-66577041D01*
X72931813Y-66577043D01*
X73049779Y-66708057D01*
X73054129Y-66712888D01*
X73059387Y-66716708D01*
X73059388Y-66716709D01*
X73130699Y-66768519D01*
X73207270Y-66824151D01*
X73380197Y-66901144D01*
X73565354Y-66940500D01*
X73748143Y-66940500D01*
X73754646Y-66940500D01*
X73939803Y-66901144D01*
X74112730Y-66824151D01*
X74265871Y-66712888D01*
X74392533Y-66572216D01*
X74487179Y-66408284D01*
X74545674Y-66228256D01*
X74565460Y-66040000D01*
X74545674Y-65851744D01*
X74487179Y-65671716D01*
X74392533Y-65507784D01*
X74265871Y-65367112D01*
X74260613Y-65363292D01*
X74260611Y-65363290D01*
X74117988Y-65259669D01*
X74117987Y-65259668D01*
X74112730Y-65255849D01*
X74106792Y-65253205D01*
X73945745Y-65181501D01*
X73945740Y-65181499D01*
X73939803Y-65178856D01*
X73933444Y-65177504D01*
X73933440Y-65177503D01*
X73761008Y-65140852D01*
X73761005Y-65140851D01*
X73754646Y-65139500D01*
X73748143Y-65139500D01*
X73695453Y-65139500D01*
X73648000Y-65130061D01*
X73607772Y-65103181D01*
X72004591Y-63500000D01*
X93074540Y-63500000D01*
X93075571Y-63509814D01*
X93093646Y-63681795D01*
X93093647Y-63681803D01*
X93094326Y-63688256D01*
X93096331Y-63694428D01*
X93096333Y-63694435D01*
X93143325Y-63839060D01*
X93152821Y-63868284D01*
X93156068Y-63873908D01*
X93156069Y-63873910D01*
X93242962Y-64024414D01*
X93247467Y-64032216D01*
X93251811Y-64037041D01*
X93251813Y-64037043D01*
X93335656Y-64130160D01*
X93374129Y-64172888D01*
X93527270Y-64284151D01*
X93700197Y-64361144D01*
X93885354Y-64400500D01*
X94068143Y-64400500D01*
X94074646Y-64400500D01*
X94259803Y-64361144D01*
X94432730Y-64284151D01*
X94585871Y-64172888D01*
X94591601Y-64166523D01*
X94593271Y-64165310D01*
X94595050Y-64163709D01*
X94595218Y-64163895D01*
X94633315Y-64136219D01*
X94683748Y-64125500D01*
X96138252Y-64125500D01*
X96188685Y-64136219D01*
X96226781Y-64163895D01*
X96226950Y-64163709D01*
X96228728Y-64165310D01*
X96230398Y-64166523D01*
X96236129Y-64172888D01*
X96389270Y-64284151D01*
X96562197Y-64361144D01*
X96747354Y-64400500D01*
X96930143Y-64400500D01*
X96936646Y-64400500D01*
X97121803Y-64361144D01*
X97294730Y-64284151D01*
X97447871Y-64172888D01*
X97574533Y-64032216D01*
X97669179Y-63868284D01*
X97727674Y-63688256D01*
X97747460Y-63500000D01*
X97727674Y-63311744D01*
X97669179Y-63131716D01*
X97574533Y-62967784D01*
X97490539Y-62874500D01*
X97452220Y-62831942D01*
X97452219Y-62831941D01*
X97447871Y-62827112D01*
X97442613Y-62823292D01*
X97442611Y-62823290D01*
X97299988Y-62719669D01*
X97299987Y-62719668D01*
X97294730Y-62715849D01*
X97288792Y-62713205D01*
X97127745Y-62641501D01*
X97127740Y-62641499D01*
X97121803Y-62638856D01*
X97115444Y-62637504D01*
X97115440Y-62637503D01*
X96943008Y-62600852D01*
X96943005Y-62600851D01*
X96936646Y-62599500D01*
X96747354Y-62599500D01*
X96740995Y-62600851D01*
X96740991Y-62600852D01*
X96568559Y-62637503D01*
X96568552Y-62637505D01*
X96562197Y-62638856D01*
X96556262Y-62641498D01*
X96556254Y-62641501D01*
X96395207Y-62713205D01*
X96395202Y-62713207D01*
X96389270Y-62715849D01*
X96384016Y-62719665D01*
X96384011Y-62719669D01*
X96241388Y-62823290D01*
X96241381Y-62823295D01*
X96236129Y-62827112D01*
X96231780Y-62831941D01*
X96231781Y-62831941D01*
X96230399Y-62833476D01*
X96228728Y-62834689D01*
X96226950Y-62836291D01*
X96226781Y-62836104D01*
X96188685Y-62863781D01*
X96138252Y-62874500D01*
X94683748Y-62874500D01*
X94633315Y-62863781D01*
X94595218Y-62836104D01*
X94595050Y-62836291D01*
X94593271Y-62834689D01*
X94591601Y-62833476D01*
X94585871Y-62827112D01*
X94580613Y-62823292D01*
X94580611Y-62823290D01*
X94437988Y-62719669D01*
X94437987Y-62719668D01*
X94432730Y-62715849D01*
X94426792Y-62713205D01*
X94265745Y-62641501D01*
X94265740Y-62641499D01*
X94259803Y-62638856D01*
X94253444Y-62637504D01*
X94253440Y-62637503D01*
X94081008Y-62600852D01*
X94081005Y-62600851D01*
X94074646Y-62599500D01*
X93885354Y-62599500D01*
X93878995Y-62600851D01*
X93878991Y-62600852D01*
X93706559Y-62637503D01*
X93706552Y-62637505D01*
X93700197Y-62638856D01*
X93694262Y-62641498D01*
X93694254Y-62641501D01*
X93533207Y-62713205D01*
X93533202Y-62713207D01*
X93527270Y-62715849D01*
X93522016Y-62719665D01*
X93522011Y-62719669D01*
X93379388Y-62823290D01*
X93379381Y-62823295D01*
X93374129Y-62827112D01*
X93369784Y-62831937D01*
X93369779Y-62831942D01*
X93251813Y-62962956D01*
X93251808Y-62962962D01*
X93247467Y-62967784D01*
X93244222Y-62973404D01*
X93244218Y-62973410D01*
X93156069Y-63126089D01*
X93156066Y-63126094D01*
X93152821Y-63131716D01*
X93150815Y-63137888D01*
X93150813Y-63137894D01*
X93096333Y-63305564D01*
X93096331Y-63305573D01*
X93094326Y-63311744D01*
X93093648Y-63318194D01*
X93093646Y-63318204D01*
X93080776Y-63440667D01*
X93074540Y-63500000D01*
X72004591Y-63500000D01*
X71781819Y-63277228D01*
X71754939Y-63237000D01*
X71745500Y-63189547D01*
X71745500Y-61695748D01*
X71746021Y-61684692D01*
X71747673Y-61677306D01*
X71745561Y-61610086D01*
X71745500Y-61606192D01*
X71745500Y-61582515D01*
X71745500Y-61578623D01*
X71744998Y-61574656D01*
X71744081Y-61562999D01*
X71743665Y-61549749D01*
X71742710Y-61519346D01*
X71737118Y-61500101D01*
X71733174Y-61481056D01*
X71730664Y-61461181D01*
X71714579Y-61420556D01*
X71710806Y-61409535D01*
X71698618Y-61367583D01*
X71694646Y-61360868D01*
X71694645Y-61360864D01*
X71688420Y-61350339D01*
X71679859Y-61332865D01*
X71672486Y-61314241D01*
X71646808Y-61278899D01*
X71640405Y-61269149D01*
X71622143Y-61238269D01*
X71622142Y-61238267D01*
X71618171Y-61231553D01*
X71604006Y-61217388D01*
X71591368Y-61202591D01*
X71584184Y-61192702D01*
X71584178Y-61192696D01*
X71579594Y-61186386D01*
X71545946Y-61158550D01*
X71537305Y-61150687D01*
X70947241Y-60560623D01*
X70923001Y-60526325D01*
X70911601Y-60485903D01*
X70894633Y-60324457D01*
X70894632Y-60324456D01*
X70893954Y-60317997D01*
X70835459Y-60137969D01*
X70740813Y-59974037D01*
X70638860Y-59860807D01*
X72754539Y-59860807D01*
X72755218Y-59867267D01*
X72773645Y-60042602D01*
X72773646Y-60042610D01*
X72774325Y-60049063D01*
X72776330Y-60055235D01*
X72776332Y-60055242D01*
X72830812Y-60222912D01*
X72832820Y-60229091D01*
X72866915Y-60288145D01*
X72883086Y-60316155D01*
X72899698Y-60378153D01*
X72883086Y-60440152D01*
X72843114Y-60509387D01*
X72832821Y-60527216D01*
X72830814Y-60533390D01*
X72830811Y-60533399D01*
X72776333Y-60701064D01*
X72776331Y-60701073D01*
X72774326Y-60707244D01*
X72773648Y-60713694D01*
X72773646Y-60713704D01*
X72759253Y-60850660D01*
X72754540Y-60895500D01*
X72755219Y-60901960D01*
X72773646Y-61077295D01*
X72773647Y-61077303D01*
X72774326Y-61083756D01*
X72776331Y-61089928D01*
X72776333Y-61089935D01*
X72830813Y-61257605D01*
X72832821Y-61263784D01*
X72836068Y-61269408D01*
X72836069Y-61269410D01*
X72920813Y-61416192D01*
X72927467Y-61427716D01*
X72931811Y-61432541D01*
X72931813Y-61432543D01*
X72957599Y-61461181D01*
X73054129Y-61568388D01*
X73207270Y-61679651D01*
X73380197Y-61756644D01*
X73565354Y-61796000D01*
X73748143Y-61796000D01*
X73754646Y-61796000D01*
X73939803Y-61756644D01*
X74112730Y-61679651D01*
X74265871Y-61568388D01*
X74392533Y-61427716D01*
X74487179Y-61263784D01*
X74545674Y-61083756D01*
X74563321Y-60915848D01*
X74574723Y-60875425D01*
X74598966Y-60841125D01*
X74607778Y-60832314D01*
X74648005Y-60805438D01*
X74695454Y-60796000D01*
X75172432Y-60796000D01*
X75230647Y-60810515D01*
X75275233Y-60850660D01*
X75295753Y-60907039D01*
X75313646Y-61077295D01*
X75313647Y-61077303D01*
X75314326Y-61083756D01*
X75316331Y-61089928D01*
X75316333Y-61089935D01*
X75370813Y-61257605D01*
X75372821Y-61263784D01*
X75376068Y-61269408D01*
X75376069Y-61269410D01*
X75460813Y-61416192D01*
X75467467Y-61427716D01*
X75471811Y-61432541D01*
X75471813Y-61432543D01*
X75542650Y-61511215D01*
X75566264Y-61549749D01*
X75574500Y-61594187D01*
X75574500Y-61705444D01*
X75566264Y-61749882D01*
X75542650Y-61788416D01*
X75434678Y-61908329D01*
X75434673Y-61908335D01*
X75430332Y-61913157D01*
X75427087Y-61918777D01*
X75427083Y-61918783D01*
X75338934Y-62071462D01*
X75338931Y-62071467D01*
X75335686Y-62077089D01*
X75333680Y-62083261D01*
X75333678Y-62083267D01*
X75279198Y-62250937D01*
X75279196Y-62250946D01*
X75277191Y-62257117D01*
X75276513Y-62263567D01*
X75276511Y-62263577D01*
X75258827Y-62431837D01*
X75257405Y-62445373D01*
X75258084Y-62451833D01*
X75276511Y-62627168D01*
X75276512Y-62627176D01*
X75277191Y-62633629D01*
X75279196Y-62639801D01*
X75279198Y-62639808D01*
X75303906Y-62715849D01*
X75335686Y-62813657D01*
X75338933Y-62819281D01*
X75338934Y-62819283D01*
X75421883Y-62962956D01*
X75430332Y-62977589D01*
X75556994Y-63118261D01*
X75562252Y-63122081D01*
X75562253Y-63122082D01*
X75633564Y-63173892D01*
X75710135Y-63229524D01*
X75883062Y-63306517D01*
X76068219Y-63345873D01*
X76251008Y-63345873D01*
X76257511Y-63345873D01*
X76442668Y-63306517D01*
X76615595Y-63229524D01*
X76768736Y-63118261D01*
X76895398Y-62977589D01*
X76990044Y-62813657D01*
X77048539Y-62633629D01*
X77068325Y-62445373D01*
X77048539Y-62257117D01*
X76990044Y-62077089D01*
X76895398Y-61913157D01*
X76891051Y-61908329D01*
X76891047Y-61908323D01*
X76857351Y-61870901D01*
X76833736Y-61832366D01*
X76825500Y-61787928D01*
X76825500Y-61594187D01*
X76833736Y-61549749D01*
X76857350Y-61511215D01*
X76884516Y-61481044D01*
X76932533Y-61427716D01*
X77027179Y-61263784D01*
X77085674Y-61083756D01*
X77105460Y-60895500D01*
X77104781Y-60889040D01*
X77104781Y-60882539D01*
X77106785Y-60882539D01*
X77111311Y-60841985D01*
X77138897Y-60796403D01*
X77183065Y-60766604D01*
X77186899Y-60765086D01*
X77197950Y-60761302D01*
X77239890Y-60749118D01*
X77257129Y-60738922D01*
X77274603Y-60730362D01*
X77285974Y-60725860D01*
X77285976Y-60725858D01*
X77293232Y-60722986D01*
X77328569Y-60697311D01*
X77338324Y-60690903D01*
X77375920Y-60668670D01*
X77390084Y-60654505D01*
X77404879Y-60641868D01*
X77421087Y-60630094D01*
X77448928Y-60596438D01*
X77456779Y-60587809D01*
X81667311Y-56377278D01*
X81675481Y-56369844D01*
X81681877Y-56365786D01*
X81727918Y-56316756D01*
X81730535Y-56314054D01*
X81750120Y-56294471D01*
X81752585Y-56291292D01*
X81760167Y-56282416D01*
X81790062Y-56250582D01*
X81799713Y-56233023D01*
X81810390Y-56216770D01*
X81822673Y-56200936D01*
X81840018Y-56160852D01*
X81845151Y-56150371D01*
X81866197Y-56112092D01*
X81871179Y-56092684D01*
X81877482Y-56074276D01*
X81885437Y-56055896D01*
X81892271Y-56012744D01*
X81894633Y-56001338D01*
X81905500Y-55959019D01*
X81905500Y-55938983D01*
X81907027Y-55919585D01*
X81908939Y-55907513D01*
X81908938Y-55907513D01*
X81910160Y-55899804D01*
X81906050Y-55856324D01*
X81905500Y-55844655D01*
X81905500Y-54038687D01*
X81913736Y-53994249D01*
X81937350Y-53955715D01*
X82012533Y-53872216D01*
X82107179Y-53708284D01*
X82165674Y-53528256D01*
X82185460Y-53340000D01*
X82165674Y-53151744D01*
X82107179Y-52971716D01*
X82012533Y-52807784D01*
X81930483Y-52716659D01*
X81890220Y-52671942D01*
X81890219Y-52671941D01*
X81885871Y-52667112D01*
X81880612Y-52663291D01*
X81880611Y-52663290D01*
X81737988Y-52559669D01*
X81737987Y-52559668D01*
X81732730Y-52555849D01*
X81692141Y-52537777D01*
X81640756Y-52495266D01*
X81618825Y-52432284D01*
X81632691Y-52367049D01*
X81678345Y-52318434D01*
X81742576Y-52300499D01*
X83607872Y-52300499D01*
X83667483Y-52294091D01*
X83802331Y-52243796D01*
X83917546Y-52157546D01*
X84003796Y-52042331D01*
X84010913Y-52023248D01*
X89295749Y-52023248D01*
X89303855Y-52034439D01*
X89332717Y-52056903D01*
X89341279Y-52062496D01*
X89550885Y-52175929D01*
X89560239Y-52180032D01*
X89785656Y-52257417D01*
X89795568Y-52259928D01*
X90030643Y-52299155D01*
X90040839Y-52300000D01*
X90279161Y-52300000D01*
X90289356Y-52299155D01*
X90524431Y-52259928D01*
X90534343Y-52257417D01*
X90759760Y-52180032D01*
X90769114Y-52175929D01*
X90978723Y-52062495D01*
X90987281Y-52056903D01*
X91016146Y-52034437D01*
X91024250Y-52023250D01*
X91017589Y-52011142D01*
X90171542Y-51165095D01*
X90160000Y-51158431D01*
X90148457Y-51165095D01*
X89302408Y-52011143D01*
X89295749Y-52023248D01*
X84010913Y-52023248D01*
X84054091Y-51907483D01*
X84060500Y-51847873D01*
X84060500Y-50805117D01*
X88655283Y-50805117D01*
X88674962Y-51042618D01*
X88676646Y-51052712D01*
X88735153Y-51283747D01*
X88738472Y-51293414D01*
X88834208Y-51511673D01*
X88839070Y-51520656D01*
X88928999Y-51658304D01*
X88936963Y-51666024D01*
X88946345Y-51660100D01*
X89794904Y-50811542D01*
X89801568Y-50799999D01*
X90518431Y-50799999D01*
X90525095Y-50811542D01*
X91373653Y-51660100D01*
X91383034Y-51666024D01*
X91391002Y-51658299D01*
X91480924Y-51520664D01*
X91485792Y-51511669D01*
X91581527Y-51293414D01*
X91584846Y-51283747D01*
X91643353Y-51052712D01*
X91645037Y-51042618D01*
X91664717Y-50805117D01*
X91664717Y-50794883D01*
X91645037Y-50557381D01*
X91643353Y-50547287D01*
X91584846Y-50316252D01*
X91581527Y-50306585D01*
X91485792Y-50088330D01*
X91480924Y-50079335D01*
X91391002Y-49941699D01*
X91383034Y-49933974D01*
X91373653Y-49939898D01*
X90525095Y-50788457D01*
X90518431Y-50799999D01*
X89801568Y-50799999D01*
X89794904Y-50788457D01*
X88946345Y-49939898D01*
X88936964Y-49933974D01*
X88928997Y-49941699D01*
X88839072Y-50079338D01*
X88834207Y-50088328D01*
X88738472Y-50306585D01*
X88735153Y-50316252D01*
X88676646Y-50547287D01*
X88674962Y-50557381D01*
X88655283Y-50794883D01*
X88655283Y-50805117D01*
X84060500Y-50805117D01*
X84060499Y-49752128D01*
X84054091Y-49692517D01*
X84010912Y-49576749D01*
X89295748Y-49576749D01*
X89302408Y-49588855D01*
X90148457Y-50434904D01*
X90160000Y-50441568D01*
X90171542Y-50434904D01*
X91017590Y-49588855D01*
X91024250Y-49576749D01*
X91016143Y-49565559D01*
X90987286Y-49543099D01*
X90978719Y-49537503D01*
X90769114Y-49424070D01*
X90759760Y-49419967D01*
X90534343Y-49342582D01*
X90524431Y-49340071D01*
X90289356Y-49300844D01*
X90279161Y-49300000D01*
X90040839Y-49300000D01*
X90030643Y-49300844D01*
X89795568Y-49340071D01*
X89785656Y-49342582D01*
X89560239Y-49419967D01*
X89550885Y-49424070D01*
X89341276Y-49537504D01*
X89332717Y-49543096D01*
X89303854Y-49565560D01*
X89295748Y-49576749D01*
X84010912Y-49576749D01*
X84003796Y-49557669D01*
X83917546Y-49442454D01*
X83802331Y-49356204D01*
X83667483Y-49305909D01*
X83659770Y-49305079D01*
X83659767Y-49305079D01*
X83611180Y-49299855D01*
X83611169Y-49299854D01*
X83607873Y-49299500D01*
X83604550Y-49299500D01*
X81515439Y-49299500D01*
X81515420Y-49299500D01*
X81512128Y-49299501D01*
X81508850Y-49299853D01*
X81508838Y-49299854D01*
X81460231Y-49305079D01*
X81460225Y-49305080D01*
X81452517Y-49305909D01*
X81445252Y-49308618D01*
X81445246Y-49308620D01*
X81325980Y-49353104D01*
X81325978Y-49353104D01*
X81317669Y-49356204D01*
X81310572Y-49361516D01*
X81310568Y-49361519D01*
X81209550Y-49437141D01*
X81209546Y-49437144D01*
X81202454Y-49442454D01*
X81197144Y-49449546D01*
X81197141Y-49449550D01*
X81121519Y-49550568D01*
X81121516Y-49550572D01*
X81116204Y-49557669D01*
X81113104Y-49565978D01*
X81113104Y-49565980D01*
X81068620Y-49685247D01*
X81068619Y-49685250D01*
X81065909Y-49692517D01*
X81065079Y-49700227D01*
X81065079Y-49700232D01*
X81059855Y-49748819D01*
X81059854Y-49748831D01*
X81059500Y-49752127D01*
X81059500Y-49755448D01*
X81059500Y-49755449D01*
X81059500Y-51844560D01*
X81059500Y-51844578D01*
X81059501Y-51847872D01*
X81059853Y-51851150D01*
X81059854Y-51851161D01*
X81065079Y-51899768D01*
X81065080Y-51899773D01*
X81065909Y-51907483D01*
X81068619Y-51914749D01*
X81068620Y-51914753D01*
X81102217Y-52004831D01*
X81116204Y-52042331D01*
X81121518Y-52049430D01*
X81121519Y-52049431D01*
X81131299Y-52062496D01*
X81202454Y-52157546D01*
X81232491Y-52180032D01*
X81280850Y-52216233D01*
X81319334Y-52263989D01*
X81330223Y-52324346D01*
X81310854Y-52382540D01*
X81265966Y-52424332D01*
X81206539Y-52439500D01*
X81185354Y-52439500D01*
X81178995Y-52440851D01*
X81178991Y-52440852D01*
X81006559Y-52477503D01*
X81006552Y-52477505D01*
X81000197Y-52478856D01*
X80994262Y-52481498D01*
X80994254Y-52481501D01*
X80833207Y-52553205D01*
X80833202Y-52553207D01*
X80827270Y-52555849D01*
X80822016Y-52559665D01*
X80822011Y-52559669D01*
X80679388Y-52663290D01*
X80679381Y-52663295D01*
X80674129Y-52667112D01*
X80669784Y-52671937D01*
X80669779Y-52671942D01*
X80551813Y-52802956D01*
X80551808Y-52802962D01*
X80547467Y-52807784D01*
X80544222Y-52813404D01*
X80544218Y-52813410D01*
X80456069Y-52966089D01*
X80456066Y-52966094D01*
X80452821Y-52971716D01*
X80450815Y-52977888D01*
X80450813Y-52977894D01*
X80396333Y-53145564D01*
X80396331Y-53145573D01*
X80394326Y-53151744D01*
X80393648Y-53158194D01*
X80393646Y-53158204D01*
X80376679Y-53319649D01*
X80374540Y-53340000D01*
X80375219Y-53346460D01*
X80393646Y-53521795D01*
X80393647Y-53521803D01*
X80394326Y-53528256D01*
X80396331Y-53534428D01*
X80396333Y-53534435D01*
X80450813Y-53702105D01*
X80452821Y-53708284D01*
X80547467Y-53872216D01*
X80551811Y-53877041D01*
X80551813Y-53877043D01*
X80622650Y-53955715D01*
X80646264Y-53994249D01*
X80654500Y-54038687D01*
X80654500Y-55569547D01*
X80645061Y-55617000D01*
X80618181Y-55657228D01*
X76766728Y-59508681D01*
X76726500Y-59535561D01*
X76679047Y-59545000D01*
X76418237Y-59545000D01*
X76360022Y-59530485D01*
X76315436Y-59490340D01*
X76294916Y-59433961D01*
X76303266Y-59374549D01*
X76338531Y-59326010D01*
X76392456Y-59299710D01*
X76479803Y-59281144D01*
X76652730Y-59204151D01*
X76805871Y-59092888D01*
X76932533Y-58952216D01*
X77027179Y-58788284D01*
X77085674Y-58608256D01*
X77105460Y-58420000D01*
X77085674Y-58231744D01*
X77027179Y-58051716D01*
X76932533Y-57887784D01*
X76848539Y-57794500D01*
X76810220Y-57751942D01*
X76810219Y-57751941D01*
X76805871Y-57747112D01*
X76800613Y-57743292D01*
X76800611Y-57743290D01*
X76657988Y-57639669D01*
X76657987Y-57639668D01*
X76652730Y-57635849D01*
X76644494Y-57632182D01*
X76485745Y-57561501D01*
X76485740Y-57561499D01*
X76479803Y-57558856D01*
X76473444Y-57557504D01*
X76473440Y-57557503D01*
X76301008Y-57520852D01*
X76301005Y-57520851D01*
X76294646Y-57519500D01*
X76105354Y-57519500D01*
X76098995Y-57520851D01*
X76098991Y-57520852D01*
X75926559Y-57557503D01*
X75926552Y-57557505D01*
X75920197Y-57558856D01*
X75914262Y-57561498D01*
X75914254Y-57561501D01*
X75753207Y-57633205D01*
X75753202Y-57633207D01*
X75747270Y-57635849D01*
X75742016Y-57639665D01*
X75742011Y-57639669D01*
X75599388Y-57743290D01*
X75599381Y-57743295D01*
X75594129Y-57747112D01*
X75589780Y-57751941D01*
X75589781Y-57751941D01*
X75588399Y-57753476D01*
X75586728Y-57754689D01*
X75584950Y-57756291D01*
X75584781Y-57756104D01*
X75546685Y-57783781D01*
X75496252Y-57794500D01*
X75469452Y-57794500D01*
X75413157Y-57780985D01*
X75369134Y-57743385D01*
X75346979Y-57689898D01*
X75351521Y-57632182D01*
X75381771Y-57582819D01*
X76147772Y-56816819D01*
X76188000Y-56789939D01*
X76235453Y-56780500D01*
X76288143Y-56780500D01*
X76294646Y-56780500D01*
X76479803Y-56741144D01*
X76652730Y-56664151D01*
X76805871Y-56552888D01*
X76932533Y-56412216D01*
X77027179Y-56248284D01*
X77085674Y-56068256D01*
X77105460Y-55880000D01*
X77085674Y-55691744D01*
X77027179Y-55511716D01*
X76932533Y-55347784D01*
X76848539Y-55254500D01*
X76810220Y-55211942D01*
X76810219Y-55211941D01*
X76805871Y-55207112D01*
X76800613Y-55203292D01*
X76800611Y-55203290D01*
X76657988Y-55099669D01*
X76657987Y-55099668D01*
X76652730Y-55095849D01*
X76646792Y-55093205D01*
X76485745Y-55021501D01*
X76485740Y-55021499D01*
X76479803Y-55018856D01*
X76473444Y-55017504D01*
X76473440Y-55017503D01*
X76301008Y-54980852D01*
X76301005Y-54980851D01*
X76294646Y-54979500D01*
X76105354Y-54979500D01*
X76098995Y-54980851D01*
X76098991Y-54980852D01*
X75926559Y-55017503D01*
X75926552Y-55017505D01*
X75920197Y-55018856D01*
X75914262Y-55021498D01*
X75914254Y-55021501D01*
X75753207Y-55093205D01*
X75753202Y-55093207D01*
X75747270Y-55095849D01*
X75742016Y-55099665D01*
X75742011Y-55099669D01*
X75599388Y-55203290D01*
X75599381Y-55203295D01*
X75594129Y-55207112D01*
X75589784Y-55211937D01*
X75589779Y-55211942D01*
X75471813Y-55342956D01*
X75471808Y-55342962D01*
X75467467Y-55347784D01*
X75464222Y-55353404D01*
X75464218Y-55353410D01*
X75376069Y-55506089D01*
X75376066Y-55506094D01*
X75372821Y-55511716D01*
X75370815Y-55517888D01*
X75370813Y-55517894D01*
X75316333Y-55685564D01*
X75316331Y-55685573D01*
X75314326Y-55691744D01*
X75313647Y-55698203D01*
X75313647Y-55698204D01*
X75296678Y-55859650D01*
X75285278Y-55900071D01*
X75261038Y-55934369D01*
X73712228Y-57483181D01*
X73672000Y-57510061D01*
X73624547Y-57519500D01*
X73565354Y-57519500D01*
X73558995Y-57520851D01*
X73558991Y-57520852D01*
X73386559Y-57557503D01*
X73386552Y-57557505D01*
X73380197Y-57558856D01*
X73374262Y-57561498D01*
X73374254Y-57561501D01*
X73213207Y-57633205D01*
X73213202Y-57633207D01*
X73207270Y-57635849D01*
X73202016Y-57639665D01*
X73202011Y-57639669D01*
X73059388Y-57743290D01*
X73059381Y-57743295D01*
X73054129Y-57747112D01*
X73049784Y-57751937D01*
X73049779Y-57751942D01*
X72931813Y-57882956D01*
X72931808Y-57882962D01*
X72927467Y-57887784D01*
X72924222Y-57893404D01*
X72924218Y-57893410D01*
X72836069Y-58046089D01*
X72836066Y-58046094D01*
X72832821Y-58051716D01*
X72830815Y-58057888D01*
X72830813Y-58057894D01*
X72776333Y-58225564D01*
X72776331Y-58225573D01*
X72774326Y-58231744D01*
X72773648Y-58238194D01*
X72773646Y-58238204D01*
X72755962Y-58406464D01*
X72754540Y-58420000D01*
X72755219Y-58426460D01*
X72773646Y-58601795D01*
X72773647Y-58601803D01*
X72774326Y-58608256D01*
X72776331Y-58614428D01*
X72776333Y-58614435D01*
X72830813Y-58782105D01*
X72832821Y-58788284D01*
X72927467Y-58952216D01*
X73022205Y-59057433D01*
X73050370Y-59110403D01*
X73050370Y-59170400D01*
X73022203Y-59223374D01*
X72931813Y-59323762D01*
X72931808Y-59323768D01*
X72927466Y-59328591D01*
X72924221Y-59334211D01*
X72924217Y-59334217D01*
X72836068Y-59486896D01*
X72836065Y-59486901D01*
X72832820Y-59492523D01*
X72830814Y-59498695D01*
X72830812Y-59498701D01*
X72776332Y-59666371D01*
X72776330Y-59666380D01*
X72774325Y-59672551D01*
X72773647Y-59679001D01*
X72773645Y-59679011D01*
X72757825Y-59829543D01*
X72754539Y-59860807D01*
X70638860Y-59860807D01*
X70614151Y-59833365D01*
X70608893Y-59829545D01*
X70608891Y-59829543D01*
X70466268Y-59725922D01*
X70466267Y-59725921D01*
X70461010Y-59722102D01*
X70455072Y-59719458D01*
X70294025Y-59647754D01*
X70294020Y-59647752D01*
X70288083Y-59645109D01*
X70281724Y-59643757D01*
X70281720Y-59643756D01*
X70109288Y-59607105D01*
X70109285Y-59607104D01*
X70102926Y-59605753D01*
X69913634Y-59605753D01*
X69907275Y-59607104D01*
X69907271Y-59607105D01*
X69734839Y-59643756D01*
X69734832Y-59643758D01*
X69728477Y-59645109D01*
X69722542Y-59647751D01*
X69722534Y-59647754D01*
X69561487Y-59719458D01*
X69561482Y-59719460D01*
X69555550Y-59722102D01*
X69550296Y-59725918D01*
X69550291Y-59725922D01*
X69407668Y-59829543D01*
X69407661Y-59829548D01*
X69402409Y-59833365D01*
X69398064Y-59838190D01*
X69398059Y-59838195D01*
X69280093Y-59969209D01*
X69280088Y-59969215D01*
X69275747Y-59974037D01*
X69272502Y-59979657D01*
X69272498Y-59979663D01*
X69184349Y-60132342D01*
X69184346Y-60132347D01*
X69181101Y-60137969D01*
X69179095Y-60144141D01*
X69179093Y-60144147D01*
X69124613Y-60311817D01*
X69124611Y-60311826D01*
X69122606Y-60317997D01*
X69121928Y-60324447D01*
X69121926Y-60324457D01*
X69105597Y-60479830D01*
X69102820Y-60506253D01*
X67290527Y-60506253D01*
X67264536Y-60443505D01*
X67236919Y-60407514D01*
X67236919Y-60407513D01*
X67173228Y-60324510D01*
X67168282Y-60318064D01*
X67143222Y-60298835D01*
X67131034Y-60288145D01*
X63560070Y-56717181D01*
X63529820Y-56667818D01*
X63525278Y-56610102D01*
X63547433Y-56556615D01*
X63591456Y-56519015D01*
X63647751Y-56505500D01*
X67876252Y-56505500D01*
X67926685Y-56516219D01*
X67964781Y-56543895D01*
X67964950Y-56543709D01*
X67966728Y-56545310D01*
X67968398Y-56546523D01*
X67974129Y-56552888D01*
X68127270Y-56664151D01*
X68300197Y-56741144D01*
X68485354Y-56780500D01*
X68668143Y-56780500D01*
X68674646Y-56780500D01*
X68859803Y-56741144D01*
X69032730Y-56664151D01*
X69185871Y-56552888D01*
X69312533Y-56412216D01*
X69407179Y-56248284D01*
X69465674Y-56068256D01*
X69485460Y-55880000D01*
X69465674Y-55691744D01*
X69407179Y-55511716D01*
X69312533Y-55347784D01*
X69228539Y-55254500D01*
X69190220Y-55211942D01*
X69190219Y-55211941D01*
X69185871Y-55207112D01*
X69180613Y-55203292D01*
X69180611Y-55203290D01*
X69037988Y-55099669D01*
X69037987Y-55099668D01*
X69032730Y-55095849D01*
X69026792Y-55093205D01*
X68865745Y-55021501D01*
X68865740Y-55021499D01*
X68859803Y-55018856D01*
X68853444Y-55017504D01*
X68853440Y-55017503D01*
X68681008Y-54980852D01*
X68681005Y-54980851D01*
X68674646Y-54979500D01*
X68485354Y-54979500D01*
X68478995Y-54980851D01*
X68478991Y-54980852D01*
X68306559Y-55017503D01*
X68306552Y-55017505D01*
X68300197Y-55018856D01*
X68294262Y-55021498D01*
X68294254Y-55021501D01*
X68133207Y-55093205D01*
X68133202Y-55093207D01*
X68127270Y-55095849D01*
X68122016Y-55099665D01*
X68122011Y-55099669D01*
X67979388Y-55203290D01*
X67979381Y-55203295D01*
X67974129Y-55207112D01*
X67969780Y-55211941D01*
X67969781Y-55211941D01*
X67968399Y-55213476D01*
X67966728Y-55214689D01*
X67964950Y-55216291D01*
X67964781Y-55216104D01*
X67926685Y-55243781D01*
X67876252Y-55254500D01*
X62785147Y-55254500D01*
X62737694Y-55245061D01*
X62697466Y-55218181D01*
X62381466Y-54902181D01*
X62351216Y-54852818D01*
X62346674Y-54795102D01*
X62368829Y-54741615D01*
X62412852Y-54704015D01*
X62469147Y-54690500D01*
X74371920Y-54690500D01*
X74382975Y-54691021D01*
X74390362Y-54692673D01*
X74457567Y-54690561D01*
X74461463Y-54690500D01*
X74485143Y-54690500D01*
X74489045Y-54690500D01*
X74493008Y-54689999D01*
X74504658Y-54689080D01*
X74548322Y-54687709D01*
X74567556Y-54682119D01*
X74586612Y-54678174D01*
X74606487Y-54675664D01*
X74647090Y-54659587D01*
X74658145Y-54655802D01*
X74700085Y-54643618D01*
X74717324Y-54633422D01*
X74734798Y-54624862D01*
X74746169Y-54620360D01*
X74746171Y-54620358D01*
X74753427Y-54617486D01*
X74788764Y-54591811D01*
X74798519Y-54585403D01*
X74836115Y-54563170D01*
X74850279Y-54549005D01*
X74865074Y-54536368D01*
X74881282Y-54524594D01*
X74909123Y-54490938D01*
X74916974Y-54482309D01*
X95682818Y-33716466D01*
X95732182Y-33686216D01*
X95789898Y-33681674D01*
X95843385Y-33703829D01*
X95880985Y-33747852D01*
X95894500Y-33804147D01*
X95894500Y-34861313D01*
X95886264Y-34905751D01*
X95862650Y-34944285D01*
X95791813Y-35022956D01*
X95791808Y-35022962D01*
X95787467Y-35027784D01*
X95784222Y-35033404D01*
X95784218Y-35033410D01*
X95696069Y-35186089D01*
X95696066Y-35186094D01*
X95692821Y-35191716D01*
X95690815Y-35197888D01*
X95690813Y-35197894D01*
X95636333Y-35365564D01*
X95636331Y-35365573D01*
X95634326Y-35371744D01*
X95633648Y-35378194D01*
X95633646Y-35378204D01*
X95615962Y-35546464D01*
X95614540Y-35560000D01*
X95615219Y-35566460D01*
X95633646Y-35741795D01*
X95633647Y-35741803D01*
X95634326Y-35748256D01*
X95636331Y-35754428D01*
X95636333Y-35754435D01*
X95690813Y-35922105D01*
X95692821Y-35928284D01*
X95787467Y-36092216D01*
X95914129Y-36232888D01*
X96067270Y-36344151D01*
X96240197Y-36421144D01*
X96425354Y-36460500D01*
X96608143Y-36460500D01*
X96614646Y-36460500D01*
X96799803Y-36421144D01*
X96972730Y-36344151D01*
X97125871Y-36232888D01*
X97252533Y-36092216D01*
X97347179Y-35928284D01*
X97405674Y-35748256D01*
X97425460Y-35560000D01*
X97405674Y-35371744D01*
X97347179Y-35191716D01*
X97252533Y-35027784D01*
X97177349Y-34944284D01*
X97153736Y-34905751D01*
X97145500Y-34861313D01*
X97145500Y-33718687D01*
X97153736Y-33674249D01*
X97177350Y-33635715D01*
X97252533Y-33552216D01*
X97347179Y-33388284D01*
X97405674Y-33208256D01*
X97425460Y-33020000D01*
X97405674Y-32831744D01*
X97347179Y-32651716D01*
X97252533Y-32487784D01*
X97169689Y-32395777D01*
X97141018Y-32340700D01*
X97142644Y-32278627D01*
X97174157Y-32225127D01*
X101611523Y-27787760D01*
X101663984Y-27756549D01*
X101724983Y-27754153D01*
X101795923Y-27769232D01*
X101978712Y-27769232D01*
X101985215Y-27769232D01*
X102170372Y-27729876D01*
X102343299Y-27652883D01*
X102496440Y-27541620D01*
X102623102Y-27400948D01*
X102717748Y-27237016D01*
X102776243Y-27056988D01*
X102794764Y-26880771D01*
X102815284Y-26824392D01*
X102859870Y-26784247D01*
X102918085Y-26769732D01*
X103436252Y-26769732D01*
X103486685Y-26780451D01*
X103524781Y-26808127D01*
X103524950Y-26807941D01*
X103526728Y-26809542D01*
X103528398Y-26810755D01*
X103534129Y-26817120D01*
X103687270Y-26928383D01*
X103860197Y-27005376D01*
X104045354Y-27044732D01*
X104228143Y-27044732D01*
X104234646Y-27044732D01*
X104419803Y-27005376D01*
X104592730Y-26928383D01*
X104745871Y-26817120D01*
X104872533Y-26676448D01*
X104967179Y-26512516D01*
X105025674Y-26332488D01*
X105045460Y-26144232D01*
X105025674Y-25955976D01*
X104967179Y-25775948D01*
X104872533Y-25612016D01*
X104864690Y-25603306D01*
X104750220Y-25476174D01*
X104750219Y-25476173D01*
X104745871Y-25471344D01*
X104740613Y-25467524D01*
X104740611Y-25467522D01*
X104597988Y-25363901D01*
X104597987Y-25363900D01*
X104592730Y-25360081D01*
X104575699Y-25352498D01*
X104425745Y-25285733D01*
X104425740Y-25285731D01*
X104419803Y-25283088D01*
X104413444Y-25281736D01*
X104413440Y-25281735D01*
X104241008Y-25245084D01*
X104241005Y-25245083D01*
X104234646Y-25243732D01*
X104045354Y-25243732D01*
X104038995Y-25245083D01*
X104038991Y-25245084D01*
X103866559Y-25281735D01*
X103866552Y-25281737D01*
X103860197Y-25283088D01*
X103854262Y-25285730D01*
X103854254Y-25285733D01*
X103693207Y-25357437D01*
X103693202Y-25357439D01*
X103687270Y-25360081D01*
X103682016Y-25363897D01*
X103682011Y-25363901D01*
X103539388Y-25467522D01*
X103539381Y-25467527D01*
X103534129Y-25471344D01*
X103529780Y-25476173D01*
X103529781Y-25476173D01*
X103528399Y-25477708D01*
X103526728Y-25478921D01*
X103524950Y-25480523D01*
X103524781Y-25480336D01*
X103486685Y-25508013D01*
X103436252Y-25518732D01*
X98393539Y-25518732D01*
X98382486Y-25518211D01*
X98375100Y-25516560D01*
X98367302Y-25516805D01*
X98307912Y-25518671D01*
X98304018Y-25518732D01*
X98276418Y-25518732D01*
X98272567Y-25519218D01*
X98272536Y-25519220D01*
X98272408Y-25519237D01*
X98260797Y-25520150D01*
X98224939Y-25521277D01*
X98224932Y-25521278D01*
X98217140Y-25521523D01*
X98209656Y-25523697D01*
X98209645Y-25523699D01*
X98197896Y-25527113D01*
X98178851Y-25531057D01*
X98166715Y-25532590D01*
X98166712Y-25532590D01*
X98158976Y-25533568D01*
X98151728Y-25536437D01*
X98151718Y-25536440D01*
X98118360Y-25549647D01*
X98107318Y-25553428D01*
X98072865Y-25563439D01*
X98072860Y-25563440D01*
X98065378Y-25565615D01*
X98058670Y-25569581D01*
X98058665Y-25569584D01*
X98048132Y-25575813D01*
X98030668Y-25584368D01*
X98019292Y-25588872D01*
X98019285Y-25588875D01*
X98012036Y-25591746D01*
X98005730Y-25596326D01*
X98005725Y-25596330D01*
X97976695Y-25617421D01*
X97966937Y-25623830D01*
X97936066Y-25642088D01*
X97929347Y-25646062D01*
X97923831Y-25651576D01*
X97923824Y-25651583D01*
X97915175Y-25660232D01*
X97900392Y-25672858D01*
X97890495Y-25680049D01*
X97890488Y-25680055D01*
X97884181Y-25684638D01*
X97879214Y-25690640D01*
X97879203Y-25690652D01*
X97856338Y-25718291D01*
X97848478Y-25726929D01*
X96572228Y-27003181D01*
X96532000Y-27030061D01*
X96484547Y-27039500D01*
X96425354Y-27039500D01*
X96418995Y-27040851D01*
X96418991Y-27040852D01*
X96246559Y-27077503D01*
X96246552Y-27077505D01*
X96240197Y-27078856D01*
X96234262Y-27081498D01*
X96234254Y-27081501D01*
X96073207Y-27153205D01*
X96073202Y-27153207D01*
X96067270Y-27155849D01*
X96062016Y-27159665D01*
X96062011Y-27159669D01*
X95919388Y-27263290D01*
X95919381Y-27263295D01*
X95914129Y-27267112D01*
X95909784Y-27271937D01*
X95909779Y-27271942D01*
X95791813Y-27402956D01*
X95791808Y-27402962D01*
X95787467Y-27407784D01*
X95784222Y-27413404D01*
X95784218Y-27413410D01*
X95696069Y-27566089D01*
X95696066Y-27566094D01*
X95692821Y-27571716D01*
X95690815Y-27577888D01*
X95690813Y-27577894D01*
X95636333Y-27745564D01*
X95636331Y-27745573D01*
X95634326Y-27751744D01*
X95633648Y-27758194D01*
X95633646Y-27758204D01*
X95616679Y-27919650D01*
X95614540Y-27940000D01*
X95615219Y-27946460D01*
X95633646Y-28121795D01*
X95633647Y-28121803D01*
X95634326Y-28128256D01*
X95636331Y-28134428D01*
X95636333Y-28134435D01*
X95690813Y-28302105D01*
X95692821Y-28308284D01*
X95787467Y-28472216D01*
X95914129Y-28612888D01*
X96067270Y-28724151D01*
X96240197Y-28801144D01*
X96425354Y-28840500D01*
X96608143Y-28840500D01*
X96614646Y-28840500D01*
X96799803Y-28801144D01*
X96972730Y-28724151D01*
X97125871Y-28612888D01*
X97252533Y-28472216D01*
X97347179Y-28308284D01*
X97405674Y-28128256D01*
X97423321Y-27960345D01*
X97434721Y-27919926D01*
X97458958Y-27885631D01*
X98538539Y-26806051D01*
X98578768Y-26779171D01*
X98626221Y-26769732D01*
X100561011Y-26769732D01*
X100617306Y-26783247D01*
X100661329Y-26820847D01*
X100683484Y-26874334D01*
X100678942Y-26932050D01*
X100648692Y-26981413D01*
X89904114Y-37725989D01*
X89856292Y-37755727D01*
X89800248Y-37761247D01*
X89747542Y-37741410D01*
X89709046Y-37700308D01*
X89648407Y-37595278D01*
X89632533Y-37567784D01*
X89623117Y-37557327D01*
X89510220Y-37431942D01*
X89510219Y-37431941D01*
X89505871Y-37427112D01*
X89500613Y-37423292D01*
X89500611Y-37423290D01*
X89357988Y-37319669D01*
X89357987Y-37319668D01*
X89352730Y-37315849D01*
X89329372Y-37305449D01*
X89185745Y-37241501D01*
X89185740Y-37241499D01*
X89179803Y-37238856D01*
X89173444Y-37237504D01*
X89173440Y-37237503D01*
X89001008Y-37200852D01*
X89001005Y-37200851D01*
X88994646Y-37199500D01*
X88805354Y-37199500D01*
X88798995Y-37200851D01*
X88798991Y-37200852D01*
X88626559Y-37237503D01*
X88626552Y-37237505D01*
X88620197Y-37238856D01*
X88614262Y-37241498D01*
X88614254Y-37241501D01*
X88453207Y-37313205D01*
X88453202Y-37313207D01*
X88447270Y-37315849D01*
X88442016Y-37319665D01*
X88442011Y-37319669D01*
X88299388Y-37423290D01*
X88299381Y-37423295D01*
X88294129Y-37427112D01*
X88289784Y-37431937D01*
X88289779Y-37431942D01*
X88171813Y-37562956D01*
X88171808Y-37562962D01*
X88167467Y-37567784D01*
X88164222Y-37573404D01*
X88164218Y-37573410D01*
X88076069Y-37726089D01*
X88076066Y-37726094D01*
X88072821Y-37731716D01*
X88070815Y-37737888D01*
X88070813Y-37737894D01*
X88016333Y-37905564D01*
X88016331Y-37905573D01*
X88014326Y-37911744D01*
X88013647Y-37918203D01*
X88013647Y-37918204D01*
X87996678Y-38079650D01*
X87985278Y-38120072D01*
X87961038Y-38154369D01*
X86137228Y-39978181D01*
X86097000Y-40005061D01*
X86049547Y-40014500D01*
X81983748Y-40014500D01*
X81933315Y-40003781D01*
X81895218Y-39976104D01*
X81895050Y-39976291D01*
X81893271Y-39974689D01*
X81891601Y-39973476D01*
X81885871Y-39967112D01*
X81880613Y-39963292D01*
X81880611Y-39963290D01*
X81737988Y-39859669D01*
X81737987Y-39859668D01*
X81732730Y-39855849D01*
X81726792Y-39853205D01*
X81565745Y-39781501D01*
X81565740Y-39781499D01*
X81559803Y-39778856D01*
X81553444Y-39777504D01*
X81553440Y-39777503D01*
X81381008Y-39740852D01*
X81381005Y-39740851D01*
X81374646Y-39739500D01*
X81368143Y-39739500D01*
X81315453Y-39739500D01*
X81268000Y-39730061D01*
X81227772Y-39703181D01*
X79237286Y-37712695D01*
X79229842Y-37704514D01*
X79225786Y-37698123D01*
X79176775Y-37652098D01*
X79173978Y-37649387D01*
X79157227Y-37632636D01*
X79154471Y-37629880D01*
X79151290Y-37627412D01*
X79142414Y-37619830D01*
X79116269Y-37595278D01*
X79116267Y-37595276D01*
X79110582Y-37589938D01*
X79103749Y-37586182D01*
X79103743Y-37586177D01*
X79093025Y-37580285D01*
X79076766Y-37569606D01*
X79067095Y-37562104D01*
X79067092Y-37562102D01*
X79060936Y-37557327D01*
X79053779Y-37554229D01*
X79053776Y-37554228D01*
X79020849Y-37539978D01*
X79010363Y-37534841D01*
X78978932Y-37517562D01*
X78978923Y-37517558D01*
X78972092Y-37513803D01*
X78964535Y-37511862D01*
X78964531Y-37511861D01*
X78952688Y-37508820D01*
X78934284Y-37502519D01*
X78923057Y-37497660D01*
X78923050Y-37497658D01*
X78915896Y-37494562D01*
X78908192Y-37493341D01*
X78908190Y-37493341D01*
X78872759Y-37487729D01*
X78861324Y-37485361D01*
X78826571Y-37476438D01*
X78826563Y-37476437D01*
X78819019Y-37474500D01*
X78811223Y-37474500D01*
X78798983Y-37474500D01*
X78779597Y-37472974D01*
X78759804Y-37469840D01*
X78752038Y-37470574D01*
X78752035Y-37470574D01*
X78716324Y-37473950D01*
X78704655Y-37474500D01*
X74363748Y-37474500D01*
X74313315Y-37463781D01*
X74275218Y-37436104D01*
X74275050Y-37436291D01*
X74273271Y-37434689D01*
X74271601Y-37433476D01*
X74265871Y-37427112D01*
X74260613Y-37423292D01*
X74260611Y-37423290D01*
X74117988Y-37319669D01*
X74117987Y-37319668D01*
X74112730Y-37315849D01*
X74089372Y-37305449D01*
X73945745Y-37241501D01*
X73945740Y-37241499D01*
X73939803Y-37238856D01*
X73933444Y-37237504D01*
X73933440Y-37237503D01*
X73761008Y-37200852D01*
X73761005Y-37200851D01*
X73754646Y-37199500D01*
X73565354Y-37199500D01*
X73558995Y-37200851D01*
X73558991Y-37200852D01*
X73386559Y-37237503D01*
X73386552Y-37237505D01*
X73380197Y-37238856D01*
X73374262Y-37241498D01*
X73374254Y-37241501D01*
X73213207Y-37313205D01*
X73213202Y-37313207D01*
X73207270Y-37315849D01*
X73202016Y-37319665D01*
X73202011Y-37319669D01*
X73059388Y-37423290D01*
X73059381Y-37423295D01*
X73054129Y-37427112D01*
X73049784Y-37431937D01*
X73049779Y-37431942D01*
X72931813Y-37562956D01*
X72931808Y-37562962D01*
X72927467Y-37567784D01*
X72924222Y-37573404D01*
X72924218Y-37573410D01*
X72836069Y-37726089D01*
X72836066Y-37726094D01*
X72832821Y-37731716D01*
X72830815Y-37737888D01*
X72830813Y-37737894D01*
X72776333Y-37905564D01*
X72776331Y-37905573D01*
X72774326Y-37911744D01*
X72773648Y-37918194D01*
X72773646Y-37918204D01*
X72756679Y-38079650D01*
X72754540Y-38100000D01*
X72755219Y-38106460D01*
X72773646Y-38281795D01*
X72773647Y-38281803D01*
X72774326Y-38288256D01*
X72776331Y-38294428D01*
X72776333Y-38294435D01*
X72830813Y-38462105D01*
X72832821Y-38468284D01*
X72836068Y-38473908D01*
X72836069Y-38473910D01*
X72853915Y-38504821D01*
X72927467Y-38632216D01*
X72931811Y-38637041D01*
X72931813Y-38637043D01*
X73017374Y-38732068D01*
X73054129Y-38772888D01*
X73207270Y-38884151D01*
X73380197Y-38961144D01*
X73565354Y-39000500D01*
X73748143Y-39000500D01*
X73754646Y-39000500D01*
X73939803Y-38961144D01*
X74112730Y-38884151D01*
X74265871Y-38772888D01*
X74271601Y-38766523D01*
X74273271Y-38765310D01*
X74275050Y-38763709D01*
X74275218Y-38763895D01*
X74313315Y-38736219D01*
X74363748Y-38725500D01*
X78429548Y-38725500D01*
X78477001Y-38734939D01*
X78517229Y-38761819D01*
X80341038Y-40585629D01*
X80365278Y-40619927D01*
X80376678Y-40660348D01*
X80381906Y-40710089D01*
X80394326Y-40828256D01*
X80396331Y-40834428D01*
X80396333Y-40834435D01*
X80450779Y-41002000D01*
X80452821Y-41008284D01*
X80456068Y-41013908D01*
X80456069Y-41013910D01*
X80481454Y-41057879D01*
X80547467Y-41172216D01*
X80551811Y-41177041D01*
X80551813Y-41177043D01*
X80648842Y-41284804D01*
X80674129Y-41312888D01*
X80827270Y-41424151D01*
X81000197Y-41501144D01*
X81185354Y-41540500D01*
X81368143Y-41540500D01*
X81374646Y-41540500D01*
X81559803Y-41501144D01*
X81732730Y-41424151D01*
X81885871Y-41312888D01*
X81891601Y-41306523D01*
X81893271Y-41305310D01*
X81895050Y-41303709D01*
X81895218Y-41303895D01*
X81933315Y-41276219D01*
X81983748Y-41265500D01*
X86065242Y-41265500D01*
X86121537Y-41279015D01*
X86165560Y-41316615D01*
X86187715Y-41370102D01*
X86183173Y-41427818D01*
X86152923Y-41477181D01*
X74226923Y-53403181D01*
X74186695Y-53430061D01*
X74139242Y-53439500D01*
X61995453Y-53439500D01*
X61947997Y-53430060D01*
X61907767Y-53403176D01*
X61898956Y-53394364D01*
X61874720Y-53360068D01*
X61863321Y-53319649D01*
X61846353Y-53158204D01*
X61846352Y-53158203D01*
X61845674Y-53151744D01*
X61787179Y-52971716D01*
X61692533Y-52807784D01*
X61610483Y-52716659D01*
X61570220Y-52671942D01*
X61570219Y-52671941D01*
X61565871Y-52667112D01*
X61560612Y-52663291D01*
X61560611Y-52663290D01*
X61417988Y-52559669D01*
X61417987Y-52559668D01*
X61412730Y-52555849D01*
X61406792Y-52553205D01*
X61245745Y-52481501D01*
X61245740Y-52481499D01*
X61239803Y-52478856D01*
X61233444Y-52477504D01*
X61233440Y-52477503D01*
X61061008Y-52440852D01*
X61061005Y-52440851D01*
X61054646Y-52439500D01*
X60865354Y-52439500D01*
X60858995Y-52440851D01*
X60858991Y-52440852D01*
X60686559Y-52477503D01*
X60686552Y-52477505D01*
X60680197Y-52478856D01*
X60674262Y-52481498D01*
X60674254Y-52481501D01*
X60513207Y-52553205D01*
X60513202Y-52553207D01*
X60507270Y-52555849D01*
X60502016Y-52559665D01*
X60502011Y-52559669D01*
X60359387Y-52663291D01*
X60359382Y-52663295D01*
X60354129Y-52667112D01*
X60349787Y-52671933D01*
X60349775Y-52671945D01*
X60343138Y-52679317D01*
X60287242Y-52714925D01*
X60220991Y-52716659D01*
X60163309Y-52684024D01*
X58279286Y-50800000D01*
X60054540Y-50800000D01*
X60055219Y-50806460D01*
X60073646Y-50981795D01*
X60073647Y-50981803D01*
X60074326Y-50988256D01*
X60076331Y-50994428D01*
X60076333Y-50994435D01*
X60130813Y-51162105D01*
X60132821Y-51168284D01*
X60136068Y-51173908D01*
X60136069Y-51173910D01*
X60205064Y-51293414D01*
X60227467Y-51332216D01*
X60231811Y-51337041D01*
X60231813Y-51337043D01*
X60323945Y-51439365D01*
X60354129Y-51472888D01*
X60359387Y-51476708D01*
X60359388Y-51476709D01*
X60373174Y-51486725D01*
X60507270Y-51584151D01*
X60680197Y-51661144D01*
X60865354Y-51700500D01*
X61048143Y-51700500D01*
X61054646Y-51700500D01*
X61239803Y-51661144D01*
X61412730Y-51584151D01*
X61565871Y-51472888D01*
X61692533Y-51332216D01*
X61787179Y-51168284D01*
X61845674Y-50988256D01*
X61865460Y-50800000D01*
X61845674Y-50611744D01*
X61787179Y-50431716D01*
X61692533Y-50267784D01*
X61565871Y-50127112D01*
X61560613Y-50123292D01*
X61560611Y-50123290D01*
X61417988Y-50019669D01*
X61417987Y-50019668D01*
X61412730Y-50015849D01*
X61406792Y-50013205D01*
X61245745Y-49941501D01*
X61245740Y-49941499D01*
X61239803Y-49938856D01*
X61233444Y-49937504D01*
X61233440Y-49937503D01*
X61061008Y-49900852D01*
X61061005Y-49900851D01*
X61054646Y-49899500D01*
X60865354Y-49899500D01*
X60858995Y-49900851D01*
X60858991Y-49900852D01*
X60686559Y-49937503D01*
X60686552Y-49937505D01*
X60680197Y-49938856D01*
X60674262Y-49941498D01*
X60674254Y-49941501D01*
X60513207Y-50013205D01*
X60513202Y-50013207D01*
X60507270Y-50015849D01*
X60502016Y-50019665D01*
X60502011Y-50019669D01*
X60359388Y-50123290D01*
X60359381Y-50123295D01*
X60354129Y-50127112D01*
X60349784Y-50131937D01*
X60349779Y-50131942D01*
X60231813Y-50262956D01*
X60231808Y-50262962D01*
X60227467Y-50267784D01*
X60224222Y-50273404D01*
X60224218Y-50273410D01*
X60136069Y-50426089D01*
X60136066Y-50426094D01*
X60132821Y-50431716D01*
X60130815Y-50437888D01*
X60130813Y-50437894D01*
X60076333Y-50605564D01*
X60076331Y-50605573D01*
X60074326Y-50611744D01*
X60073648Y-50618194D01*
X60073646Y-50618204D01*
X60056679Y-50779650D01*
X60054540Y-50800000D01*
X58279286Y-50800000D01*
X56541819Y-49062533D01*
X56514939Y-49022305D01*
X56505500Y-48974852D01*
X56505500Y-21104147D01*
X56519015Y-21047852D01*
X56556615Y-21003829D01*
X56610102Y-20981674D01*
X56667818Y-20986216D01*
X56717181Y-21016466D01*
X60323181Y-24622466D01*
X60350061Y-24662694D01*
X60359500Y-24710147D01*
X60359500Y-47533548D01*
X60351264Y-47577986D01*
X60327650Y-47616520D01*
X60231813Y-47722956D01*
X60231808Y-47722962D01*
X60227467Y-47727784D01*
X60224222Y-47733404D01*
X60224218Y-47733410D01*
X60136069Y-47886089D01*
X60136066Y-47886094D01*
X60132821Y-47891716D01*
X60130815Y-47897888D01*
X60130813Y-47897894D01*
X60076333Y-48065564D01*
X60076331Y-48065573D01*
X60074326Y-48071744D01*
X60073648Y-48078194D01*
X60073646Y-48078204D01*
X60064152Y-48168544D01*
X60054540Y-48260000D01*
X60055219Y-48266460D01*
X60073646Y-48441795D01*
X60073647Y-48441803D01*
X60074326Y-48448256D01*
X60076331Y-48454428D01*
X60076333Y-48454435D01*
X60130813Y-48622105D01*
X60132821Y-48628284D01*
X60227467Y-48792216D01*
X60354129Y-48932888D01*
X60507270Y-49044151D01*
X60680197Y-49121144D01*
X60865354Y-49160500D01*
X61048143Y-49160500D01*
X61054646Y-49160500D01*
X61239803Y-49121144D01*
X61412730Y-49044151D01*
X61565871Y-48932888D01*
X61692533Y-48792216D01*
X61787179Y-48628284D01*
X61845674Y-48448256D01*
X61865460Y-48260000D01*
X61845674Y-48071744D01*
X61787179Y-47891716D01*
X61692533Y-47727784D01*
X61592349Y-47616519D01*
X61568736Y-47577986D01*
X61560500Y-47533548D01*
X61560500Y-30480000D01*
X87994540Y-30480000D01*
X87995219Y-30486460D01*
X88013646Y-30661795D01*
X88013647Y-30661803D01*
X88014326Y-30668256D01*
X88016331Y-30674428D01*
X88016333Y-30674435D01*
X88070813Y-30842105D01*
X88072821Y-30848284D01*
X88167467Y-31012216D01*
X88294129Y-31152888D01*
X88447270Y-31264151D01*
X88620197Y-31341144D01*
X88805354Y-31380500D01*
X88988143Y-31380500D01*
X88994646Y-31380500D01*
X89179803Y-31341144D01*
X89352730Y-31264151D01*
X89505871Y-31152888D01*
X89632533Y-31012216D01*
X89727179Y-30848284D01*
X89785674Y-30668256D01*
X89805460Y-30480000D01*
X89793944Y-30370437D01*
X89800377Y-30316085D01*
X89829582Y-30269799D01*
X90007591Y-30091789D01*
X90055105Y-30062158D01*
X90110811Y-30056450D01*
X90163348Y-30075831D01*
X90202002Y-30116349D01*
X90212858Y-30134705D01*
X90212861Y-30134708D01*
X90216830Y-30141420D01*
X90222345Y-30146935D01*
X90230990Y-30155580D01*
X90243626Y-30170374D01*
X90250819Y-30180275D01*
X90250823Y-30180279D01*
X90255406Y-30186587D01*
X90261415Y-30191558D01*
X90261416Y-30191559D01*
X90289057Y-30214425D01*
X90297698Y-30222288D01*
X90501038Y-30425629D01*
X90525278Y-30459927D01*
X90536678Y-30500348D01*
X90552091Y-30646998D01*
X90554326Y-30668256D01*
X90556331Y-30674428D01*
X90556333Y-30674435D01*
X90610813Y-30842105D01*
X90612821Y-30848284D01*
X90707467Y-31012216D01*
X90834129Y-31152888D01*
X90987270Y-31264151D01*
X91160197Y-31341144D01*
X91345354Y-31380500D01*
X91528143Y-31380500D01*
X91534646Y-31380500D01*
X91719803Y-31341144D01*
X91892730Y-31264151D01*
X92045871Y-31152888D01*
X92172533Y-31012216D01*
X92267179Y-30848284D01*
X92325674Y-30668256D01*
X92345460Y-30480000D01*
X93074540Y-30480000D01*
X93075219Y-30486460D01*
X93093646Y-30661795D01*
X93093647Y-30661803D01*
X93094326Y-30668256D01*
X93096331Y-30674428D01*
X93096333Y-30674435D01*
X93150813Y-30842105D01*
X93152821Y-30848284D01*
X93247467Y-31012216D01*
X93374129Y-31152888D01*
X93527270Y-31264151D01*
X93700197Y-31341144D01*
X93885354Y-31380500D01*
X94068143Y-31380500D01*
X94074646Y-31380500D01*
X94259803Y-31341144D01*
X94432730Y-31264151D01*
X94585871Y-31152888D01*
X94712533Y-31012216D01*
X94807179Y-30848284D01*
X94865674Y-30668256D01*
X94885460Y-30480000D01*
X94865674Y-30291744D01*
X94807179Y-30111716D01*
X94712533Y-29947784D01*
X94637349Y-29864284D01*
X94613736Y-29825751D01*
X94605500Y-29781313D01*
X94605500Y-25507791D01*
X94614939Y-25460338D01*
X94641819Y-25420110D01*
X97603704Y-22458226D01*
X97643932Y-22431346D01*
X97691385Y-22421907D01*
X97744075Y-22421907D01*
X97750578Y-22421907D01*
X97935735Y-22382551D01*
X98108662Y-22305558D01*
X98261803Y-22194295D01*
X98388465Y-22053623D01*
X98483111Y-21889691D01*
X98541606Y-21709663D01*
X98561392Y-21521407D01*
X98541606Y-21333151D01*
X98483111Y-21153123D01*
X98388465Y-20989191D01*
X98261803Y-20848519D01*
X98256545Y-20844699D01*
X98256543Y-20844697D01*
X98113920Y-20741076D01*
X98113919Y-20741075D01*
X98108662Y-20737256D01*
X98102724Y-20734612D01*
X97941677Y-20662908D01*
X97941672Y-20662906D01*
X97935735Y-20660263D01*
X97929376Y-20658911D01*
X97929372Y-20658910D01*
X97756940Y-20622259D01*
X97756937Y-20622258D01*
X97750578Y-20620907D01*
X97561286Y-20620907D01*
X97554927Y-20622258D01*
X97554923Y-20622259D01*
X97382491Y-20658910D01*
X97382484Y-20658912D01*
X97376129Y-20660263D01*
X97370194Y-20662905D01*
X97370186Y-20662908D01*
X97209139Y-20734612D01*
X97209134Y-20734614D01*
X97203202Y-20737256D01*
X97197948Y-20741072D01*
X97197943Y-20741076D01*
X97055320Y-20844697D01*
X97055313Y-20844702D01*
X97050061Y-20848519D01*
X97045716Y-20853344D01*
X97045711Y-20853349D01*
X96927745Y-20984363D01*
X96927740Y-20984369D01*
X96923399Y-20989191D01*
X96920154Y-20994811D01*
X96920150Y-20994817D01*
X96832001Y-21147496D01*
X96831998Y-21147501D01*
X96828753Y-21153123D01*
X96826747Y-21159295D01*
X96826745Y-21159301D01*
X96772265Y-21326971D01*
X96772263Y-21326980D01*
X96770258Y-21333151D01*
X96769579Y-21339610D01*
X96769579Y-21339611D01*
X96752610Y-21501058D01*
X96741210Y-21541480D01*
X96716970Y-21575777D01*
X93592696Y-24700050D01*
X93584511Y-24707498D01*
X93578123Y-24711553D01*
X93572788Y-24717233D01*
X93572783Y-24717238D01*
X93532096Y-24760564D01*
X93529392Y-24763355D01*
X93512628Y-24780119D01*
X93512621Y-24780126D01*
X93509880Y-24782868D01*
X93507500Y-24785935D01*
X93507489Y-24785948D01*
X93507400Y-24786064D01*
X93499842Y-24794909D01*
X93475280Y-24821066D01*
X93475273Y-24821075D01*
X93469938Y-24826757D01*
X93466182Y-24833588D01*
X93466179Y-24833593D01*
X93460285Y-24844314D01*
X93449609Y-24860566D01*
X93442109Y-24870235D01*
X93442101Y-24870246D01*
X93437327Y-24876403D01*
X93434234Y-24883547D01*
X93434229Y-24883558D01*
X93419974Y-24916499D01*
X93414838Y-24926982D01*
X93393803Y-24965247D01*
X93391864Y-24972795D01*
X93391863Y-24972800D01*
X93388822Y-24984646D01*
X93382521Y-25003050D01*
X93377658Y-25014287D01*
X93377656Y-25014291D01*
X93374562Y-25021443D01*
X93373342Y-25029142D01*
X93373342Y-25029144D01*
X93367729Y-25064580D01*
X93365361Y-25076015D01*
X93356438Y-25110767D01*
X93356436Y-25110775D01*
X93354500Y-25118320D01*
X93354500Y-25126116D01*
X93354500Y-25138356D01*
X93352974Y-25157741D01*
X93349840Y-25177535D01*
X93350574Y-25185300D01*
X93350574Y-25185303D01*
X93353950Y-25221015D01*
X93354500Y-25232684D01*
X93354500Y-29781313D01*
X93346264Y-29825751D01*
X93322650Y-29864285D01*
X93251813Y-29942956D01*
X93251808Y-29942962D01*
X93247467Y-29947784D01*
X93244222Y-29953404D01*
X93244218Y-29953410D01*
X93156069Y-30106089D01*
X93156066Y-30106094D01*
X93152821Y-30111716D01*
X93150815Y-30117888D01*
X93150813Y-30117894D01*
X93096333Y-30285564D01*
X93096331Y-30285573D01*
X93094326Y-30291744D01*
X93093648Y-30298194D01*
X93093646Y-30298204D01*
X93080254Y-30425629D01*
X93074540Y-30480000D01*
X92345460Y-30480000D01*
X92325674Y-30291744D01*
X92267179Y-30111716D01*
X92172533Y-29947784D01*
X92045871Y-29807112D01*
X92040613Y-29803292D01*
X92040611Y-29803290D01*
X91897988Y-29699669D01*
X91897987Y-29699668D01*
X91892730Y-29695849D01*
X91886792Y-29693205D01*
X91725745Y-29621501D01*
X91725740Y-29621499D01*
X91719803Y-29618856D01*
X91713444Y-29617504D01*
X91713440Y-29617503D01*
X91541008Y-29580852D01*
X91541005Y-29580851D01*
X91534646Y-29579500D01*
X91528143Y-29579500D01*
X91475453Y-29579500D01*
X91428000Y-29570061D01*
X91387772Y-29543181D01*
X91376819Y-29532228D01*
X91349939Y-29492000D01*
X91340500Y-29444547D01*
X91340500Y-26435452D01*
X91349939Y-26387999D01*
X91376819Y-26347771D01*
X91797379Y-25927212D01*
X91837607Y-25900332D01*
X91885060Y-25890893D01*
X91937754Y-25890893D01*
X91944257Y-25890893D01*
X92129414Y-25851537D01*
X92302341Y-25774544D01*
X92455482Y-25663281D01*
X92582144Y-25522609D01*
X92676790Y-25358677D01*
X92735285Y-25178649D01*
X92755071Y-24990393D01*
X92741426Y-24860566D01*
X92735964Y-24808597D01*
X92735963Y-24808596D01*
X92735285Y-24802137D01*
X92676790Y-24622109D01*
X92582144Y-24458177D01*
X92531746Y-24402205D01*
X92459831Y-24322335D01*
X92459830Y-24322334D01*
X92455482Y-24317505D01*
X92450224Y-24313685D01*
X92450222Y-24313683D01*
X92307599Y-24210062D01*
X92307598Y-24210061D01*
X92302341Y-24206242D01*
X92296403Y-24203598D01*
X92135356Y-24131894D01*
X92135351Y-24131892D01*
X92129414Y-24129249D01*
X92123055Y-24127897D01*
X92123051Y-24127896D01*
X91950619Y-24091245D01*
X91950616Y-24091244D01*
X91944257Y-24089893D01*
X91754965Y-24089893D01*
X91748606Y-24091244D01*
X91748602Y-24091245D01*
X91576170Y-24127896D01*
X91576163Y-24127898D01*
X91569808Y-24129249D01*
X91563873Y-24131891D01*
X91563865Y-24131894D01*
X91402818Y-24203598D01*
X91402813Y-24203600D01*
X91396881Y-24206242D01*
X91391627Y-24210058D01*
X91391622Y-24210062D01*
X91248999Y-24313683D01*
X91248992Y-24313688D01*
X91243740Y-24317505D01*
X91239395Y-24322330D01*
X91239390Y-24322335D01*
X91121424Y-24453349D01*
X91121419Y-24453355D01*
X91117078Y-24458177D01*
X91113833Y-24463797D01*
X91113829Y-24463803D01*
X91025680Y-24616482D01*
X91025677Y-24616487D01*
X91022432Y-24622109D01*
X91020426Y-24628281D01*
X91020424Y-24628287D01*
X90965944Y-24795957D01*
X90965942Y-24795966D01*
X90963937Y-24802137D01*
X90963259Y-24808587D01*
X90963257Y-24808597D01*
X90946290Y-24970038D01*
X90934890Y-25010460D01*
X90910650Y-25044758D01*
X90648404Y-25307005D01*
X90599041Y-25337255D01*
X90541325Y-25341797D01*
X90487838Y-25319642D01*
X90450238Y-25275619D01*
X90436723Y-25219324D01*
X90436723Y-24799229D01*
X90446162Y-24751776D01*
X90473042Y-24711548D01*
X91387771Y-23796819D01*
X91427999Y-23769939D01*
X91475452Y-23760500D01*
X91528143Y-23760500D01*
X91534646Y-23760500D01*
X91719803Y-23721144D01*
X91892730Y-23644151D01*
X92045871Y-23532888D01*
X92172533Y-23392216D01*
X92267179Y-23228284D01*
X92325674Y-23048256D01*
X92345460Y-22860000D01*
X92325674Y-22671744D01*
X92267179Y-22491716D01*
X92172533Y-22327784D01*
X92045871Y-22187112D01*
X92040613Y-22183292D01*
X92040611Y-22183290D01*
X91897988Y-22079669D01*
X91897987Y-22079668D01*
X91892730Y-22075849D01*
X91853652Y-22058450D01*
X91725745Y-22001501D01*
X91725740Y-22001499D01*
X91719803Y-21998856D01*
X91713444Y-21997504D01*
X91713440Y-21997503D01*
X91541008Y-21960852D01*
X91541005Y-21960851D01*
X91534646Y-21959500D01*
X91345354Y-21959500D01*
X91338995Y-21960851D01*
X91338991Y-21960852D01*
X91166559Y-21997503D01*
X91166552Y-21997505D01*
X91160197Y-21998856D01*
X91154262Y-22001498D01*
X91154254Y-22001501D01*
X90993207Y-22073205D01*
X90993202Y-22073207D01*
X90987270Y-22075849D01*
X90982016Y-22079665D01*
X90982011Y-22079669D01*
X90839388Y-22183290D01*
X90839381Y-22183295D01*
X90834129Y-22187112D01*
X90829784Y-22191937D01*
X90829779Y-22191942D01*
X90711813Y-22322956D01*
X90711808Y-22322962D01*
X90707467Y-22327784D01*
X90704222Y-22333404D01*
X90704218Y-22333410D01*
X90616069Y-22486089D01*
X90616066Y-22486094D01*
X90612821Y-22491716D01*
X90610815Y-22497888D01*
X90610813Y-22497894D01*
X90556333Y-22665564D01*
X90556331Y-22665573D01*
X90554326Y-22671744D01*
X90553647Y-22678203D01*
X90553647Y-22678204D01*
X90536678Y-22839650D01*
X90525278Y-22880072D01*
X90501038Y-22914369D01*
X89423919Y-23991488D01*
X89415734Y-23998936D01*
X89409346Y-24002991D01*
X89404011Y-24008671D01*
X89404006Y-24008676D01*
X89363319Y-24052002D01*
X89360615Y-24054793D01*
X89343851Y-24071557D01*
X89343844Y-24071564D01*
X89341103Y-24074306D01*
X89338723Y-24077373D01*
X89338712Y-24077386D01*
X89338623Y-24077502D01*
X89331065Y-24086347D01*
X89306503Y-24112504D01*
X89306496Y-24112513D01*
X89301161Y-24118195D01*
X89297405Y-24125026D01*
X89297402Y-24125031D01*
X89291508Y-24135752D01*
X89280832Y-24152004D01*
X89273332Y-24161673D01*
X89273324Y-24161684D01*
X89268550Y-24167841D01*
X89265457Y-24174985D01*
X89265452Y-24174996D01*
X89251197Y-24207937D01*
X89246061Y-24218420D01*
X89228783Y-24249850D01*
X89225026Y-24256685D01*
X89223087Y-24264233D01*
X89223086Y-24264238D01*
X89220045Y-24276084D01*
X89213744Y-24294488D01*
X89208881Y-24305725D01*
X89208879Y-24305729D01*
X89205785Y-24312881D01*
X89204565Y-24320580D01*
X89204565Y-24320582D01*
X89198952Y-24356018D01*
X89196584Y-24367453D01*
X89187661Y-24402205D01*
X89187659Y-24402213D01*
X89185723Y-24409758D01*
X89185723Y-24417554D01*
X89185723Y-24429794D01*
X89184197Y-24449179D01*
X89181063Y-24468973D01*
X89181797Y-24476738D01*
X89181797Y-24476741D01*
X89185173Y-24512453D01*
X89185723Y-24524122D01*
X89185723Y-29093117D01*
X89176284Y-29140570D01*
X89149406Y-29180795D01*
X88797972Y-29532228D01*
X88761920Y-29568280D01*
X88733407Y-29589571D01*
X88700022Y-29601888D01*
X88626556Y-29617504D01*
X88626553Y-29617504D01*
X88620197Y-29618856D01*
X88614262Y-29621498D01*
X88614254Y-29621501D01*
X88453207Y-29693205D01*
X88453202Y-29693207D01*
X88447270Y-29695849D01*
X88442016Y-29699665D01*
X88442011Y-29699669D01*
X88299388Y-29803290D01*
X88299381Y-29803295D01*
X88294129Y-29807112D01*
X88289784Y-29811937D01*
X88289779Y-29811942D01*
X88171813Y-29942956D01*
X88171808Y-29942962D01*
X88167467Y-29947784D01*
X88164222Y-29953404D01*
X88164218Y-29953410D01*
X88076069Y-30106089D01*
X88076066Y-30106094D01*
X88072821Y-30111716D01*
X88070815Y-30117888D01*
X88070813Y-30117894D01*
X88016333Y-30285564D01*
X88016331Y-30285573D01*
X88014326Y-30291744D01*
X88013648Y-30298194D01*
X88013646Y-30298204D01*
X88000254Y-30425629D01*
X87994540Y-30480000D01*
X61560500Y-30480000D01*
X61560500Y-25400000D01*
X85255040Y-25400000D01*
X85255719Y-25406460D01*
X85274146Y-25581795D01*
X85274147Y-25581803D01*
X85274826Y-25588256D01*
X85276831Y-25594428D01*
X85276833Y-25594435D01*
X85331313Y-25762105D01*
X85333321Y-25768284D01*
X85336568Y-25773908D01*
X85336569Y-25773910D01*
X85382167Y-25852889D01*
X85427967Y-25932216D01*
X85432311Y-25937041D01*
X85432313Y-25937043D01*
X85455177Y-25962436D01*
X85554629Y-26072888D01*
X85707770Y-26184151D01*
X85880697Y-26261144D01*
X86065854Y-26300500D01*
X86248643Y-26300500D01*
X86255146Y-26300500D01*
X86440303Y-26261144D01*
X86613230Y-26184151D01*
X86766371Y-26072888D01*
X86893033Y-25932216D01*
X86987679Y-25768284D01*
X87032084Y-25631616D01*
X87062331Y-25582257D01*
X91387771Y-21256819D01*
X91428000Y-21229939D01*
X91475453Y-21220500D01*
X91528143Y-21220500D01*
X91534646Y-21220500D01*
X91719803Y-21181144D01*
X91892730Y-21104151D01*
X92045871Y-20992888D01*
X92172533Y-20852216D01*
X92267179Y-20688284D01*
X92325674Y-20508256D01*
X92345460Y-20320000D01*
X92325674Y-20131744D01*
X92267179Y-19951716D01*
X92172533Y-19787784D01*
X92045871Y-19647112D01*
X92040613Y-19643292D01*
X92040611Y-19643290D01*
X91897988Y-19539669D01*
X91897987Y-19539668D01*
X91892730Y-19535849D01*
X91886792Y-19533205D01*
X91725745Y-19461501D01*
X91725740Y-19461499D01*
X91719803Y-19458856D01*
X91713444Y-19457504D01*
X91713440Y-19457503D01*
X91541008Y-19420852D01*
X91541005Y-19420851D01*
X91534646Y-19419500D01*
X91345354Y-19419500D01*
X91338995Y-19420851D01*
X91338991Y-19420852D01*
X91166559Y-19457503D01*
X91166552Y-19457505D01*
X91160197Y-19458856D01*
X91154262Y-19461498D01*
X91154254Y-19461501D01*
X90993207Y-19533205D01*
X90993202Y-19533207D01*
X90987270Y-19535849D01*
X90982016Y-19539665D01*
X90982011Y-19539669D01*
X90839388Y-19643290D01*
X90839381Y-19643295D01*
X90834129Y-19647112D01*
X90829784Y-19651937D01*
X90829779Y-19651942D01*
X90711813Y-19782956D01*
X90711808Y-19782962D01*
X90707467Y-19787784D01*
X90704222Y-19793404D01*
X90704218Y-19793410D01*
X90616069Y-19946089D01*
X90616066Y-19946094D01*
X90612821Y-19951716D01*
X90610815Y-19957888D01*
X90610813Y-19957894D01*
X90556333Y-20125564D01*
X90556331Y-20125573D01*
X90554326Y-20131744D01*
X90553647Y-20138203D01*
X90553647Y-20138204D01*
X90536678Y-20299651D01*
X90525278Y-20340073D01*
X90501038Y-20374370D01*
X86402345Y-24473062D01*
X86349882Y-24504275D01*
X86288883Y-24506671D01*
X86261508Y-24500852D01*
X86261505Y-24500851D01*
X86255146Y-24499500D01*
X86065854Y-24499500D01*
X86059495Y-24500851D01*
X86059491Y-24500852D01*
X85887059Y-24537503D01*
X85887052Y-24537505D01*
X85880697Y-24538856D01*
X85874762Y-24541498D01*
X85874754Y-24541501D01*
X85713707Y-24613205D01*
X85713702Y-24613207D01*
X85707770Y-24615849D01*
X85702516Y-24619665D01*
X85702511Y-24619669D01*
X85559888Y-24723290D01*
X85559881Y-24723295D01*
X85554629Y-24727112D01*
X85550284Y-24731937D01*
X85550279Y-24731942D01*
X85432313Y-24862956D01*
X85432308Y-24862962D01*
X85427967Y-24867784D01*
X85424722Y-24873404D01*
X85424718Y-24873410D01*
X85336569Y-25026089D01*
X85336566Y-25026094D01*
X85333321Y-25031716D01*
X85331315Y-25037888D01*
X85331313Y-25037894D01*
X85276833Y-25205564D01*
X85276831Y-25205573D01*
X85274826Y-25211744D01*
X85274148Y-25218194D01*
X85274146Y-25218204D01*
X85258834Y-25363901D01*
X85255040Y-25400000D01*
X61560500Y-25400000D01*
X61560500Y-24457537D01*
X61561561Y-24441352D01*
X61564621Y-24418109D01*
X61565682Y-24410050D01*
X61545044Y-24253288D01*
X61484536Y-24107209D01*
X61446155Y-24057190D01*
X61446155Y-24057189D01*
X61393228Y-23988214D01*
X61388282Y-23981768D01*
X61363222Y-23962539D01*
X61351034Y-23951849D01*
X54088149Y-16688964D01*
X54077454Y-16676769D01*
X54063178Y-16658164D01*
X54058232Y-16651718D01*
X53932791Y-16555464D01*
X53925283Y-16552354D01*
X53794221Y-16498066D01*
X53794218Y-16498065D01*
X53786712Y-16494956D01*
X53778658Y-16493895D01*
X53778652Y-16493894D01*
X53669311Y-16479500D01*
X53638009Y-16475379D01*
X53629950Y-16474318D01*
X53621891Y-16475379D01*
X53598648Y-16478439D01*
X53582463Y-16479500D01*
X53097537Y-16479500D01*
X53081352Y-16478439D01*
X53058109Y-16475379D01*
X53050050Y-16474318D01*
X53041991Y-16475379D01*
X53010689Y-16479500D01*
X52901347Y-16493894D01*
X52901339Y-16493896D01*
X52893288Y-16494956D01*
X52885783Y-16498064D01*
X52885778Y-16498066D01*
X52754716Y-16552354D01*
X52754712Y-16552355D01*
X52747209Y-16555464D01*
X52740764Y-16560408D01*
X52740761Y-16560411D01*
X52628213Y-16646772D01*
X52628210Y-16646774D01*
X52621768Y-16651718D01*
X52616823Y-16658161D01*
X52616820Y-16658165D01*
X52602540Y-16676774D01*
X52591848Y-16688965D01*
X52248965Y-17031848D01*
X52236774Y-17042540D01*
X52218165Y-17056820D01*
X52218161Y-17056823D01*
X52211718Y-17061768D01*
X52206774Y-17068210D01*
X52206772Y-17068213D01*
X52166874Y-17120210D01*
X52120411Y-17180761D01*
X52120408Y-17180764D01*
X52115464Y-17187209D01*
X52112355Y-17194712D01*
X52112354Y-17194716D01*
X52058066Y-17325778D01*
X52058064Y-17325783D01*
X52054956Y-17333288D01*
X52053896Y-17341339D01*
X52053894Y-17341347D01*
X52035702Y-17479532D01*
X52034318Y-17490050D01*
X52035379Y-17498109D01*
X52038439Y-17521352D01*
X52039500Y-17537537D01*
X52039500Y-22056731D01*
X52023953Y-22116847D01*
X51981210Y-22161889D01*
X51921990Y-22180561D01*
X51861142Y-22168181D01*
X51813925Y-22127854D01*
X51806218Y-22116847D01*
X51761598Y-22053123D01*
X51606877Y-21898402D01*
X51602446Y-21895299D01*
X51602442Y-21895296D01*
X51432068Y-21775999D01*
X51432066Y-21775997D01*
X51427639Y-21772898D01*
X51422742Y-21770614D01*
X51422736Y-21770611D01*
X51234236Y-21682712D01*
X51234229Y-21682709D01*
X51229330Y-21680425D01*
X51224103Y-21679024D01*
X51224102Y-21679024D01*
X51023209Y-21625194D01*
X51023199Y-21625192D01*
X51017977Y-21623793D01*
X51012585Y-21623321D01*
X51012578Y-21623320D01*
X50805395Y-21605195D01*
X50800000Y-21604723D01*
X50794605Y-21605195D01*
X50587421Y-21623320D01*
X50587412Y-21623321D01*
X50582023Y-21623793D01*
X50576802Y-21625191D01*
X50576790Y-21625194D01*
X50375897Y-21679024D01*
X50375892Y-21679025D01*
X50370670Y-21680425D01*
X50365774Y-21682707D01*
X50365763Y-21682712D01*
X50177272Y-21770608D01*
X50177268Y-21770610D01*
X50172362Y-21772898D01*
X50167929Y-21776001D01*
X50167922Y-21776006D01*
X49997558Y-21895296D01*
X49997553Y-21895299D01*
X49993123Y-21898402D01*
X49989299Y-21902225D01*
X49989293Y-21902231D01*
X49842231Y-22049293D01*
X49842225Y-22049299D01*
X49838402Y-22053123D01*
X49835299Y-22057553D01*
X49835296Y-22057558D01*
X49716006Y-22227922D01*
X49716001Y-22227929D01*
X49712898Y-22232362D01*
X49710610Y-22237268D01*
X49710608Y-22237272D01*
X49642382Y-22383583D01*
X49596625Y-22435759D01*
X49530000Y-22455178D01*
X49463375Y-22435759D01*
X49417618Y-22383583D01*
X49379452Y-22301737D01*
X49347102Y-22232362D01*
X49221598Y-22053123D01*
X49066877Y-21898402D01*
X49062446Y-21895299D01*
X49062442Y-21895296D01*
X48892068Y-21775999D01*
X48892066Y-21775997D01*
X48887639Y-21772898D01*
X48882742Y-21770614D01*
X48882736Y-21770611D01*
X48694236Y-21682712D01*
X48694229Y-21682709D01*
X48689330Y-21680425D01*
X48684103Y-21679024D01*
X48684102Y-21679024D01*
X48483209Y-21625194D01*
X48483199Y-21625192D01*
X48477977Y-21623793D01*
X48472585Y-21623321D01*
X48472578Y-21623320D01*
X48265395Y-21605195D01*
X48260000Y-21604723D01*
X48254605Y-21605195D01*
X48047421Y-21623320D01*
X48047412Y-21623321D01*
X48042023Y-21623793D01*
X48036802Y-21625191D01*
X48036790Y-21625194D01*
X47835897Y-21679024D01*
X47835892Y-21679025D01*
X47830670Y-21680425D01*
X47825774Y-21682707D01*
X47825763Y-21682712D01*
X47637272Y-21770608D01*
X47637268Y-21770610D01*
X47632362Y-21772898D01*
X47627929Y-21776001D01*
X47627922Y-21776006D01*
X47457558Y-21895296D01*
X47457553Y-21895299D01*
X47453123Y-21898402D01*
X47449299Y-21902225D01*
X47449293Y-21902231D01*
X47302231Y-22049293D01*
X47302225Y-22049299D01*
X47298402Y-22053123D01*
X47295299Y-22057553D01*
X47295296Y-22057558D01*
X47176006Y-22227922D01*
X47176001Y-22227929D01*
X47172898Y-22232362D01*
X47170610Y-22237268D01*
X47170608Y-22237272D01*
X47102382Y-22383583D01*
X47056625Y-22435759D01*
X46990000Y-22455178D01*
X46923375Y-22435759D01*
X46877618Y-22383583D01*
X46839452Y-22301737D01*
X46807102Y-22232362D01*
X46681598Y-22053123D01*
X46526877Y-21898402D01*
X46522446Y-21895299D01*
X46522442Y-21895296D01*
X46352068Y-21775999D01*
X46352066Y-21775997D01*
X46347639Y-21772898D01*
X46342742Y-21770614D01*
X46342736Y-21770611D01*
X46154236Y-21682712D01*
X46154229Y-21682709D01*
X46149330Y-21680425D01*
X46144103Y-21679024D01*
X46144102Y-21679024D01*
X45943209Y-21625194D01*
X45943199Y-21625192D01*
X45937977Y-21623793D01*
X45932585Y-21623321D01*
X45932578Y-21623320D01*
X45725395Y-21605195D01*
X45720000Y-21604723D01*
X45714605Y-21605195D01*
X45507421Y-21623320D01*
X45507412Y-21623321D01*
X45502023Y-21623793D01*
X45496802Y-21625191D01*
X45496790Y-21625194D01*
X45295897Y-21679024D01*
X45295892Y-21679025D01*
X45290670Y-21680425D01*
X45285774Y-21682707D01*
X45285763Y-21682712D01*
X45097272Y-21770608D01*
X45097268Y-21770610D01*
X45092362Y-21772898D01*
X45087929Y-21776001D01*
X45087922Y-21776006D01*
X44917558Y-21895296D01*
X44917553Y-21895299D01*
X44913123Y-21898402D01*
X44909299Y-21902225D01*
X44909293Y-21902231D01*
X44762231Y-22049293D01*
X44762225Y-22049299D01*
X44758402Y-22053123D01*
X44755299Y-22057553D01*
X44755296Y-22057558D01*
X44636006Y-22227922D01*
X44636001Y-22227929D01*
X44632898Y-22232362D01*
X44630610Y-22237268D01*
X44630608Y-22237272D01*
X44562382Y-22383583D01*
X44516625Y-22435759D01*
X44450000Y-22455178D01*
X44383375Y-22435759D01*
X44337618Y-22383583D01*
X44299452Y-22301737D01*
X44267102Y-22232362D01*
X44141598Y-22053123D01*
X43986877Y-21898402D01*
X43982446Y-21895299D01*
X43982442Y-21895296D01*
X43812068Y-21775999D01*
X43812066Y-21775997D01*
X43807639Y-21772898D01*
X43802742Y-21770614D01*
X43802736Y-21770611D01*
X43614236Y-21682712D01*
X43614229Y-21682709D01*
X43609330Y-21680425D01*
X43604103Y-21679024D01*
X43604102Y-21679024D01*
X43403209Y-21625194D01*
X43403199Y-21625192D01*
X43397977Y-21623793D01*
X43392585Y-21623321D01*
X43392578Y-21623320D01*
X43185395Y-21605195D01*
X43180000Y-21604723D01*
X43174605Y-21605195D01*
X42967421Y-21623320D01*
X42967412Y-21623321D01*
X42962023Y-21623793D01*
X42956802Y-21625191D01*
X42956790Y-21625194D01*
X42755897Y-21679024D01*
X42755892Y-21679025D01*
X42750670Y-21680425D01*
X42745774Y-21682707D01*
X42745763Y-21682712D01*
X42557272Y-21770608D01*
X42557268Y-21770610D01*
X42552362Y-21772898D01*
X42547929Y-21776001D01*
X42547922Y-21776006D01*
X42377558Y-21895296D01*
X42377553Y-21895299D01*
X42373123Y-21898402D01*
X42369299Y-21902225D01*
X42369293Y-21902231D01*
X42222231Y-22049293D01*
X42222225Y-22049299D01*
X42218402Y-22053123D01*
X42215299Y-22057553D01*
X42215296Y-22057558D01*
X42096006Y-22227922D01*
X42096001Y-22227929D01*
X42092898Y-22232362D01*
X42090610Y-22237268D01*
X42090608Y-22237272D01*
X42022382Y-22383583D01*
X41976625Y-22435759D01*
X41910000Y-22455178D01*
X41843375Y-22435759D01*
X41797618Y-22383583D01*
X41759452Y-22301737D01*
X41727102Y-22232362D01*
X41601598Y-22053123D01*
X41446877Y-21898402D01*
X41442446Y-21895299D01*
X41442442Y-21895296D01*
X41272068Y-21775999D01*
X41272066Y-21775997D01*
X41267639Y-21772898D01*
X41262742Y-21770614D01*
X41262736Y-21770611D01*
X41074236Y-21682712D01*
X41074229Y-21682709D01*
X41069330Y-21680425D01*
X41064103Y-21679024D01*
X41064102Y-21679024D01*
X40863209Y-21625194D01*
X40863199Y-21625192D01*
X40857977Y-21623793D01*
X40852585Y-21623321D01*
X40852578Y-21623320D01*
X40645395Y-21605195D01*
X40640000Y-21604723D01*
X40634605Y-21605195D01*
X40427421Y-21623320D01*
X40427412Y-21623321D01*
X40422023Y-21623793D01*
X40416802Y-21625191D01*
X40416790Y-21625194D01*
X40215897Y-21679024D01*
X40215892Y-21679025D01*
X40210670Y-21680425D01*
X40205774Y-21682707D01*
X40205763Y-21682712D01*
X40017272Y-21770608D01*
X40017268Y-21770610D01*
X40012362Y-21772898D01*
X40007929Y-21776001D01*
X40007922Y-21776006D01*
X39837558Y-21895296D01*
X39837553Y-21895299D01*
X39833123Y-21898402D01*
X39829299Y-21902225D01*
X39829293Y-21902231D01*
X39682231Y-22049293D01*
X39682225Y-22049299D01*
X39678402Y-22053123D01*
X39675299Y-22057553D01*
X39675296Y-22057558D01*
X39556006Y-22227922D01*
X39556001Y-22227929D01*
X39552898Y-22232362D01*
X39550610Y-22237268D01*
X39550608Y-22237272D01*
X39482382Y-22383583D01*
X39436625Y-22435759D01*
X39370000Y-22455178D01*
X39303375Y-22435759D01*
X39257618Y-22383583D01*
X39219452Y-22301737D01*
X39187102Y-22232362D01*
X39061598Y-22053123D01*
X38906877Y-21898402D01*
X38902446Y-21895299D01*
X38902442Y-21895296D01*
X38732068Y-21775999D01*
X38732066Y-21775997D01*
X38727639Y-21772898D01*
X38722742Y-21770614D01*
X38722736Y-21770611D01*
X38534236Y-21682712D01*
X38534229Y-21682709D01*
X38529330Y-21680425D01*
X38524103Y-21679024D01*
X38524102Y-21679024D01*
X38323209Y-21625194D01*
X38323199Y-21625192D01*
X38317977Y-21623793D01*
X38312585Y-21623321D01*
X38312578Y-21623320D01*
X38105395Y-21605195D01*
X38100000Y-21604723D01*
X38094605Y-21605195D01*
X37887421Y-21623320D01*
X37887412Y-21623321D01*
X37882023Y-21623793D01*
X37876802Y-21625191D01*
X37876790Y-21625194D01*
X37675897Y-21679024D01*
X37675892Y-21679025D01*
X37670670Y-21680425D01*
X37665774Y-21682707D01*
X37665763Y-21682712D01*
X37477272Y-21770608D01*
X37477268Y-21770610D01*
X37472362Y-21772898D01*
X37467929Y-21776001D01*
X37467922Y-21776006D01*
X37297558Y-21895296D01*
X37297553Y-21895299D01*
X37293123Y-21898402D01*
X37289299Y-21902225D01*
X37289293Y-21902231D01*
X37142231Y-22049293D01*
X37142225Y-22049299D01*
X37138402Y-22053123D01*
X37135299Y-22057553D01*
X37135296Y-22057558D01*
X37016006Y-22227922D01*
X37016001Y-22227929D01*
X37012898Y-22232362D01*
X37010610Y-22237268D01*
X37010608Y-22237272D01*
X36922712Y-22425763D01*
X36922707Y-22425774D01*
X36920425Y-22430670D01*
X36919025Y-22435892D01*
X36919024Y-22435897D01*
X36865194Y-22636790D01*
X36865191Y-22636802D01*
X36863793Y-22642023D01*
X36863321Y-22647412D01*
X36863320Y-22647421D01*
X36846503Y-22839650D01*
X36844723Y-22860000D01*
X36845195Y-22865395D01*
X36863320Y-23072578D01*
X36863321Y-23072585D01*
X36863793Y-23077977D01*
X36865192Y-23083199D01*
X36865194Y-23083209D01*
X36905575Y-23233910D01*
X36920425Y-23289330D01*
X36922709Y-23294229D01*
X36922712Y-23294236D01*
X37010611Y-23482736D01*
X37010614Y-23482742D01*
X37012898Y-23487639D01*
X37015997Y-23492066D01*
X37015999Y-23492068D01*
X37135296Y-23662442D01*
X37135299Y-23662446D01*
X37138402Y-23666877D01*
X37293123Y-23821598D01*
X37472361Y-23947102D01*
X37477261Y-23949387D01*
X37477263Y-23949388D01*
X37584400Y-23999347D01*
X37670670Y-24039575D01*
X37800288Y-24074306D01*
X37876790Y-24094805D01*
X37876791Y-24094805D01*
X37882023Y-24096207D01*
X38100000Y-24115277D01*
X38317977Y-24096207D01*
X38529330Y-24039575D01*
X38727639Y-23947102D01*
X38906877Y-23821598D01*
X39061598Y-23666877D01*
X39187102Y-23487639D01*
X39257617Y-23336417D01*
X39303375Y-23284241D01*
X39370000Y-23264821D01*
X39436625Y-23284241D01*
X39482382Y-23336417D01*
X39550609Y-23482732D01*
X39550613Y-23482739D01*
X39552898Y-23487639D01*
X39555997Y-23492066D01*
X39555999Y-23492068D01*
X39675296Y-23662442D01*
X39675299Y-23662446D01*
X39678402Y-23666877D01*
X39833123Y-23821598D01*
X40012361Y-23947102D01*
X40017261Y-23949387D01*
X40017263Y-23949388D01*
X40124400Y-23999347D01*
X40210670Y-24039575D01*
X40340288Y-24074306D01*
X40416790Y-24094805D01*
X40416791Y-24094805D01*
X40422023Y-24096207D01*
X40640000Y-24115277D01*
X40857977Y-24096207D01*
X41069330Y-24039575D01*
X41267639Y-23947102D01*
X41446877Y-23821598D01*
X41601598Y-23666877D01*
X41727102Y-23487639D01*
X41797617Y-23336417D01*
X41843375Y-23284241D01*
X41910000Y-23264821D01*
X41976625Y-23284241D01*
X42022382Y-23336417D01*
X42090609Y-23482732D01*
X42090613Y-23482739D01*
X42092898Y-23487639D01*
X42095997Y-23492066D01*
X42095999Y-23492068D01*
X42215296Y-23662442D01*
X42215299Y-23662446D01*
X42218402Y-23666877D01*
X42373123Y-23821598D01*
X42552361Y-23947102D01*
X42557261Y-23949387D01*
X42557263Y-23949388D01*
X42664400Y-23999347D01*
X42750670Y-24039575D01*
X42880288Y-24074306D01*
X42956790Y-24094805D01*
X42956791Y-24094805D01*
X42962023Y-24096207D01*
X43180000Y-24115277D01*
X43397977Y-24096207D01*
X43609330Y-24039575D01*
X43807639Y-23947102D01*
X43986877Y-23821598D01*
X44141598Y-23666877D01*
X44267102Y-23487639D01*
X44337617Y-23336417D01*
X44383375Y-23284241D01*
X44450000Y-23264821D01*
X44516625Y-23284241D01*
X44562382Y-23336417D01*
X44630609Y-23482732D01*
X44630613Y-23482739D01*
X44632898Y-23487639D01*
X44635997Y-23492066D01*
X44635999Y-23492068D01*
X44755296Y-23662442D01*
X44755299Y-23662446D01*
X44758402Y-23666877D01*
X44913123Y-23821598D01*
X45092361Y-23947102D01*
X45097261Y-23949387D01*
X45097263Y-23949388D01*
X45204400Y-23999347D01*
X45290670Y-24039575D01*
X45420288Y-24074306D01*
X45496790Y-24094805D01*
X45496791Y-24094805D01*
X45502023Y-24096207D01*
X45720000Y-24115277D01*
X45937977Y-24096207D01*
X46149330Y-24039575D01*
X46347639Y-23947102D01*
X46526877Y-23821598D01*
X46681598Y-23666877D01*
X46807102Y-23487639D01*
X46877617Y-23336417D01*
X46923375Y-23284241D01*
X46990000Y-23264821D01*
X47056625Y-23284241D01*
X47102382Y-23336417D01*
X47170609Y-23482732D01*
X47170613Y-23482739D01*
X47172898Y-23487639D01*
X47175997Y-23492066D01*
X47175999Y-23492068D01*
X47295296Y-23662442D01*
X47295299Y-23662446D01*
X47298402Y-23666877D01*
X47453123Y-23821598D01*
X47632361Y-23947102D01*
X47637261Y-23949387D01*
X47637263Y-23949388D01*
X47744400Y-23999347D01*
X47830670Y-24039575D01*
X47960288Y-24074306D01*
X48036790Y-24094805D01*
X48036791Y-24094805D01*
X48042023Y-24096207D01*
X48260000Y-24115277D01*
X48477977Y-24096207D01*
X48689330Y-24039575D01*
X48887639Y-23947102D01*
X49066877Y-23821598D01*
X49221598Y-23666877D01*
X49347102Y-23487639D01*
X49417617Y-23336417D01*
X49463375Y-23284241D01*
X49530000Y-23264821D01*
X49596625Y-23284241D01*
X49642382Y-23336417D01*
X49710609Y-23482732D01*
X49710613Y-23482739D01*
X49712898Y-23487639D01*
X49715997Y-23492066D01*
X49715999Y-23492068D01*
X49835296Y-23662442D01*
X49835299Y-23662446D01*
X49838402Y-23666877D01*
X49993123Y-23821598D01*
X50172361Y-23947102D01*
X50177261Y-23949387D01*
X50177263Y-23949388D01*
X50284400Y-23999347D01*
X50370670Y-24039575D01*
X50500288Y-24074306D01*
X50576790Y-24094805D01*
X50576791Y-24094805D01*
X50582023Y-24096207D01*
X50800000Y-24115277D01*
X51017977Y-24096207D01*
X51229330Y-24039575D01*
X51427639Y-23947102D01*
X51606877Y-23821598D01*
X51761598Y-23666877D01*
X51777511Y-23644151D01*
X51813925Y-23592147D01*
X51861142Y-23551820D01*
X51921990Y-23539440D01*
X51981210Y-23558112D01*
X52023953Y-23603154D01*
X52039500Y-23663270D01*
X52039500Y-37296731D01*
X52023953Y-37356847D01*
X51981210Y-37401889D01*
X51921990Y-37420561D01*
X51861142Y-37408181D01*
X51813925Y-37367854D01*
X51806218Y-37356847D01*
X51761598Y-37293123D01*
X51606877Y-37138402D01*
X51602446Y-37135299D01*
X51602442Y-37135296D01*
X51432068Y-37015999D01*
X51432066Y-37015997D01*
X51427639Y-37012898D01*
X51422742Y-37010614D01*
X51422736Y-37010611D01*
X51234236Y-36922712D01*
X51234229Y-36922709D01*
X51229330Y-36920425D01*
X51224103Y-36919024D01*
X51224102Y-36919024D01*
X51023209Y-36865194D01*
X51023199Y-36865192D01*
X51017977Y-36863793D01*
X51012585Y-36863321D01*
X51012578Y-36863320D01*
X50805395Y-36845195D01*
X50800000Y-36844723D01*
X50794605Y-36845195D01*
X50587421Y-36863320D01*
X50587412Y-36863321D01*
X50582023Y-36863793D01*
X50576797Y-36865193D01*
X50576787Y-36865195D01*
X50506593Y-36884004D01*
X50450309Y-36885846D01*
X50399013Y-36862605D01*
X50363288Y-36819073D01*
X50350500Y-36764229D01*
X50350500Y-29482775D01*
X50351021Y-29471719D01*
X50352673Y-29464333D01*
X50350561Y-29397127D01*
X50350500Y-29393232D01*
X50350500Y-29369541D01*
X50350500Y-29365650D01*
X50349998Y-29361677D01*
X50349080Y-29350018D01*
X50347954Y-29314173D01*
X50347709Y-29306373D01*
X50342120Y-29287140D01*
X50338174Y-29268083D01*
X50336641Y-29255944D01*
X50335664Y-29248208D01*
X50319582Y-29207591D01*
X50315803Y-29196551D01*
X50305795Y-29162102D01*
X50305793Y-29162099D01*
X50303618Y-29154610D01*
X50293417Y-29137360D01*
X50284863Y-29119901D01*
X50277486Y-29101268D01*
X50251808Y-29065925D01*
X50245401Y-29056171D01*
X50227142Y-29025296D01*
X50227141Y-29025294D01*
X50223170Y-29018580D01*
X50209005Y-29004414D01*
X50196370Y-28989622D01*
X50184594Y-28973413D01*
X50178583Y-28968440D01*
X50178581Y-28968438D01*
X50150941Y-28945573D01*
X50142300Y-28937710D01*
X49198961Y-27994370D01*
X49174721Y-27960072D01*
X49163321Y-27919650D01*
X49146353Y-27758204D01*
X49146352Y-27758203D01*
X49145674Y-27751744D01*
X49087179Y-27571716D01*
X48992533Y-27407784D01*
X48865871Y-27267112D01*
X48860613Y-27263292D01*
X48860611Y-27263290D01*
X48717988Y-27159669D01*
X48717987Y-27159668D01*
X48712730Y-27155849D01*
X48706792Y-27153205D01*
X48545745Y-27081501D01*
X48545740Y-27081499D01*
X48539803Y-27078856D01*
X48533444Y-27077504D01*
X48533440Y-27077503D01*
X48361008Y-27040852D01*
X48361005Y-27040851D01*
X48354646Y-27039500D01*
X48165354Y-27039500D01*
X48158995Y-27040851D01*
X48158991Y-27040852D01*
X47986559Y-27077503D01*
X47986552Y-27077505D01*
X47980197Y-27078856D01*
X47974262Y-27081498D01*
X47974254Y-27081501D01*
X47813207Y-27153205D01*
X47813202Y-27153207D01*
X47807270Y-27155849D01*
X47802016Y-27159665D01*
X47802011Y-27159669D01*
X47659388Y-27263290D01*
X47659381Y-27263295D01*
X47654129Y-27267112D01*
X47649784Y-27271937D01*
X47649779Y-27271942D01*
X47531813Y-27402956D01*
X47531808Y-27402962D01*
X47527467Y-27407784D01*
X47524222Y-27413404D01*
X47524218Y-27413410D01*
X47436069Y-27566089D01*
X47436066Y-27566094D01*
X47432821Y-27571716D01*
X47430815Y-27577888D01*
X47430813Y-27577894D01*
X47376333Y-27745564D01*
X47376331Y-27745573D01*
X47374326Y-27751744D01*
X47373648Y-27758194D01*
X47373646Y-27758204D01*
X47356679Y-27919650D01*
X47354540Y-27940000D01*
X47355219Y-27946460D01*
X47373646Y-28121795D01*
X47373647Y-28121803D01*
X47374326Y-28128256D01*
X47376331Y-28134428D01*
X47376333Y-28134435D01*
X47430813Y-28302105D01*
X47432821Y-28308284D01*
X47527467Y-28472216D01*
X47654129Y-28612888D01*
X47807270Y-28724151D01*
X47980197Y-28801144D01*
X48165354Y-28840500D01*
X48224548Y-28840500D01*
X48272001Y-28849939D01*
X48312229Y-28876819D01*
X49063181Y-29627772D01*
X49090061Y-29668000D01*
X49099500Y-29715453D01*
X49099500Y-36923042D01*
X49081509Y-36987369D01*
X49032758Y-37033031D01*
X48967391Y-37046777D01*
X48904378Y-37024618D01*
X48892072Y-37016001D01*
X48892063Y-37015996D01*
X48887639Y-37012898D01*
X48882742Y-37010614D01*
X48882736Y-37010611D01*
X48694236Y-36922712D01*
X48694229Y-36922709D01*
X48689330Y-36920425D01*
X48684103Y-36919024D01*
X48684102Y-36919024D01*
X48483209Y-36865194D01*
X48483199Y-36865192D01*
X48477977Y-36863793D01*
X48472585Y-36863321D01*
X48472578Y-36863320D01*
X48265395Y-36845195D01*
X48260000Y-36844723D01*
X48254605Y-36845195D01*
X48047421Y-36863320D01*
X48047412Y-36863321D01*
X48042023Y-36863793D01*
X48036802Y-36865191D01*
X48036790Y-36865194D01*
X47835897Y-36919024D01*
X47835892Y-36919025D01*
X47830670Y-36920425D01*
X47825774Y-36922707D01*
X47825763Y-36922712D01*
X47637272Y-37010608D01*
X47637268Y-37010610D01*
X47632362Y-37012898D01*
X47627929Y-37016001D01*
X47627922Y-37016006D01*
X47457558Y-37135296D01*
X47457553Y-37135299D01*
X47453123Y-37138402D01*
X47449299Y-37142225D01*
X47449293Y-37142231D01*
X47302231Y-37289293D01*
X47302225Y-37289299D01*
X47298402Y-37293123D01*
X47295299Y-37297553D01*
X47295296Y-37297558D01*
X47176006Y-37467922D01*
X47176001Y-37467929D01*
X47172898Y-37472362D01*
X47170610Y-37477268D01*
X47170608Y-37477272D01*
X47102382Y-37623583D01*
X47056625Y-37675759D01*
X46990000Y-37695178D01*
X46923375Y-37675759D01*
X46877618Y-37623583D01*
X46860175Y-37586177D01*
X46807102Y-37472362D01*
X46681598Y-37293123D01*
X46526877Y-37138402D01*
X46522446Y-37135299D01*
X46522442Y-37135296D01*
X46352068Y-37015999D01*
X46352066Y-37015997D01*
X46347639Y-37012898D01*
X46342742Y-37010614D01*
X46342736Y-37010611D01*
X46154236Y-36922712D01*
X46154229Y-36922709D01*
X46149330Y-36920425D01*
X46144103Y-36919024D01*
X46144102Y-36919024D01*
X45943209Y-36865194D01*
X45943199Y-36865192D01*
X45937977Y-36863793D01*
X45932585Y-36863321D01*
X45932578Y-36863320D01*
X45725395Y-36845195D01*
X45720000Y-36844723D01*
X45714605Y-36845195D01*
X45507421Y-36863320D01*
X45507412Y-36863321D01*
X45502023Y-36863793D01*
X45496802Y-36865191D01*
X45496790Y-36865194D01*
X45295897Y-36919024D01*
X45295892Y-36919025D01*
X45290670Y-36920425D01*
X45285774Y-36922707D01*
X45285763Y-36922712D01*
X45097272Y-37010608D01*
X45097268Y-37010610D01*
X45092362Y-37012898D01*
X45087929Y-37016001D01*
X45087922Y-37016006D01*
X44917558Y-37135296D01*
X44917553Y-37135299D01*
X44913123Y-37138402D01*
X44909299Y-37142225D01*
X44909293Y-37142231D01*
X44762231Y-37289293D01*
X44762225Y-37289299D01*
X44758402Y-37293123D01*
X44755299Y-37297553D01*
X44755296Y-37297558D01*
X44636006Y-37467922D01*
X44636001Y-37467929D01*
X44632898Y-37472362D01*
X44630610Y-37477268D01*
X44630608Y-37477272D01*
X44562382Y-37623583D01*
X44516625Y-37675759D01*
X44450000Y-37695178D01*
X44383375Y-37675759D01*
X44337618Y-37623583D01*
X44320175Y-37586177D01*
X44267102Y-37472362D01*
X44141598Y-37293123D01*
X43986877Y-37138402D01*
X43982446Y-37135299D01*
X43982442Y-37135296D01*
X43812068Y-37015999D01*
X43812066Y-37015997D01*
X43807639Y-37012898D01*
X43802742Y-37010614D01*
X43802736Y-37010611D01*
X43614236Y-36922712D01*
X43614229Y-36922709D01*
X43609330Y-36920425D01*
X43604103Y-36919024D01*
X43604102Y-36919024D01*
X43403209Y-36865194D01*
X43403199Y-36865192D01*
X43397977Y-36863793D01*
X43392585Y-36863321D01*
X43392578Y-36863320D01*
X43185395Y-36845195D01*
X43180000Y-36844723D01*
X43174605Y-36845195D01*
X42967421Y-36863320D01*
X42967412Y-36863321D01*
X42962023Y-36863793D01*
X42956802Y-36865191D01*
X42956790Y-36865194D01*
X42755897Y-36919024D01*
X42755892Y-36919025D01*
X42750670Y-36920425D01*
X42745774Y-36922707D01*
X42745763Y-36922712D01*
X42557272Y-37010608D01*
X42557268Y-37010610D01*
X42552362Y-37012898D01*
X42547929Y-37016001D01*
X42547922Y-37016006D01*
X42377558Y-37135296D01*
X42377553Y-37135299D01*
X42373123Y-37138402D01*
X42369299Y-37142225D01*
X42369293Y-37142231D01*
X42222231Y-37289293D01*
X42222225Y-37289299D01*
X42218402Y-37293123D01*
X42215299Y-37297553D01*
X42215296Y-37297558D01*
X42096006Y-37467922D01*
X42096001Y-37467929D01*
X42092898Y-37472362D01*
X42090610Y-37477268D01*
X42090608Y-37477272D01*
X42022382Y-37623583D01*
X41976625Y-37675759D01*
X41910000Y-37695178D01*
X41843375Y-37675759D01*
X41797618Y-37623583D01*
X41780175Y-37586177D01*
X41727102Y-37472362D01*
X41601598Y-37293123D01*
X41446877Y-37138402D01*
X41442446Y-37135299D01*
X41442442Y-37135296D01*
X41272068Y-37015999D01*
X41272066Y-37015997D01*
X41267639Y-37012898D01*
X41262742Y-37010614D01*
X41262736Y-37010611D01*
X41074236Y-36922712D01*
X41074229Y-36922709D01*
X41069330Y-36920425D01*
X41064103Y-36919024D01*
X41064102Y-36919024D01*
X40863209Y-36865194D01*
X40863199Y-36865192D01*
X40857977Y-36863793D01*
X40852585Y-36863321D01*
X40852578Y-36863320D01*
X40645395Y-36845195D01*
X40640000Y-36844723D01*
X40634605Y-36845195D01*
X40427421Y-36863320D01*
X40427412Y-36863321D01*
X40422023Y-36863793D01*
X40416802Y-36865191D01*
X40416790Y-36865194D01*
X40215897Y-36919024D01*
X40215892Y-36919025D01*
X40210670Y-36920425D01*
X40205774Y-36922707D01*
X40205763Y-36922712D01*
X40017272Y-37010608D01*
X40017268Y-37010610D01*
X40012362Y-37012898D01*
X40007929Y-37016001D01*
X40007922Y-37016006D01*
X39837558Y-37135296D01*
X39837553Y-37135299D01*
X39833123Y-37138402D01*
X39829299Y-37142225D01*
X39829293Y-37142231D01*
X39682231Y-37289293D01*
X39682225Y-37289299D01*
X39678402Y-37293123D01*
X39675299Y-37297553D01*
X39675296Y-37297558D01*
X39576074Y-37439263D01*
X39528857Y-37479590D01*
X39468009Y-37491970D01*
X39408789Y-37473298D01*
X39366046Y-37428256D01*
X39350499Y-37368140D01*
X39350499Y-37305439D01*
X39350499Y-37302128D01*
X39344091Y-37242517D01*
X39293796Y-37107669D01*
X39207546Y-36992454D01*
X39092331Y-36906204D01*
X38982380Y-36865195D01*
X38964752Y-36858620D01*
X38964750Y-36858619D01*
X38957483Y-36855909D01*
X38949770Y-36855079D01*
X38949767Y-36855079D01*
X38901180Y-36849855D01*
X38901169Y-36849854D01*
X38897873Y-36849500D01*
X38894550Y-36849500D01*
X37305439Y-36849500D01*
X37305420Y-36849500D01*
X37302128Y-36849501D01*
X37298850Y-36849853D01*
X37298838Y-36849854D01*
X37250231Y-36855079D01*
X37250225Y-36855080D01*
X37242517Y-36855909D01*
X37235252Y-36858618D01*
X37235246Y-36858620D01*
X37115980Y-36903104D01*
X37115978Y-36903104D01*
X37107669Y-36906204D01*
X37100572Y-36911516D01*
X37100568Y-36911519D01*
X36999550Y-36987141D01*
X36999546Y-36987144D01*
X36992454Y-36992454D01*
X36987144Y-36999546D01*
X36987141Y-36999550D01*
X36911519Y-37100568D01*
X36911516Y-37100572D01*
X36906204Y-37107669D01*
X36903104Y-37115978D01*
X36903104Y-37115980D01*
X36858620Y-37235247D01*
X36858619Y-37235250D01*
X36855909Y-37242517D01*
X36855079Y-37250227D01*
X36855079Y-37250232D01*
X36849855Y-37298819D01*
X36849854Y-37298831D01*
X36849500Y-37302127D01*
X36849500Y-37305448D01*
X36849500Y-37305449D01*
X36849500Y-38894560D01*
X36849500Y-38894578D01*
X36849501Y-38897872D01*
X36849853Y-38901150D01*
X36849854Y-38901161D01*
X36855079Y-38949768D01*
X36855080Y-38949773D01*
X36855909Y-38957483D01*
X36858619Y-38964749D01*
X36858620Y-38964753D01*
X36871953Y-39000500D01*
X36906204Y-39092331D01*
X36911518Y-39099430D01*
X36911519Y-39099431D01*
X36977149Y-39187102D01*
X36992454Y-39207546D01*
X37107669Y-39293796D01*
X37242517Y-39344091D01*
X37302127Y-39350500D01*
X38897872Y-39350499D01*
X38957483Y-39344091D01*
X39092331Y-39293796D01*
X39207546Y-39207546D01*
X39293796Y-39092331D01*
X39344091Y-38957483D01*
X39350500Y-38897873D01*
X39350499Y-38831861D01*
X39366045Y-38771748D01*
X39408788Y-38726706D01*
X39468008Y-38708033D01*
X39528856Y-38720412D01*
X39576074Y-38760739D01*
X39675296Y-38902442D01*
X39675299Y-38902446D01*
X39678402Y-38906877D01*
X39833123Y-39061598D01*
X40012361Y-39187102D01*
X40017261Y-39189387D01*
X40017263Y-39189388D01*
X40205057Y-39276958D01*
X40210670Y-39279575D01*
X40346595Y-39315996D01*
X40416790Y-39334805D01*
X40416791Y-39334805D01*
X40422023Y-39336207D01*
X40640000Y-39355277D01*
X40857977Y-39336207D01*
X41069330Y-39279575D01*
X41267639Y-39187102D01*
X41446877Y-39061598D01*
X41601598Y-38906877D01*
X41727102Y-38727639D01*
X41797617Y-38576417D01*
X41843375Y-38524241D01*
X41910000Y-38504821D01*
X41976625Y-38524241D01*
X42022382Y-38576417D01*
X42090609Y-38722732D01*
X42090613Y-38722739D01*
X42092898Y-38727639D01*
X42095997Y-38732066D01*
X42095999Y-38732068D01*
X42215296Y-38902442D01*
X42215299Y-38902446D01*
X42218402Y-38906877D01*
X42373123Y-39061598D01*
X42552361Y-39187102D01*
X42557261Y-39189387D01*
X42557263Y-39189388D01*
X42745057Y-39276958D01*
X42750670Y-39279575D01*
X42886595Y-39315996D01*
X42956790Y-39334805D01*
X42956791Y-39334805D01*
X42962023Y-39336207D01*
X43180000Y-39355277D01*
X43397977Y-39336207D01*
X43609330Y-39279575D01*
X43807639Y-39187102D01*
X43986877Y-39061598D01*
X44141598Y-38906877D01*
X44267102Y-38727639D01*
X44337617Y-38576417D01*
X44383375Y-38524241D01*
X44450000Y-38504821D01*
X44516625Y-38524241D01*
X44562382Y-38576417D01*
X44630609Y-38722732D01*
X44630613Y-38722739D01*
X44632898Y-38727639D01*
X44635997Y-38732066D01*
X44635999Y-38732068D01*
X44755296Y-38902442D01*
X44755299Y-38902446D01*
X44758402Y-38906877D01*
X44913123Y-39061598D01*
X45092361Y-39187102D01*
X45097261Y-39189387D01*
X45097263Y-39189388D01*
X45285057Y-39276958D01*
X45290670Y-39279575D01*
X45426595Y-39315996D01*
X45496790Y-39334805D01*
X45496791Y-39334805D01*
X45502023Y-39336207D01*
X45720000Y-39355277D01*
X45937977Y-39336207D01*
X46149330Y-39279575D01*
X46347639Y-39187102D01*
X46526877Y-39061598D01*
X46681598Y-38906877D01*
X46807102Y-38727639D01*
X46877617Y-38576417D01*
X46923375Y-38524241D01*
X46990000Y-38504821D01*
X47056625Y-38524241D01*
X47102382Y-38576417D01*
X47170609Y-38722732D01*
X47170613Y-38722739D01*
X47172898Y-38727639D01*
X47175997Y-38732066D01*
X47175999Y-38732068D01*
X47295296Y-38902442D01*
X47295299Y-38902446D01*
X47298402Y-38906877D01*
X47453123Y-39061598D01*
X47632361Y-39187102D01*
X47637261Y-39189387D01*
X47637263Y-39189388D01*
X47825057Y-39276958D01*
X47830670Y-39279575D01*
X47966595Y-39315996D01*
X48036790Y-39334805D01*
X48036791Y-39334805D01*
X48042023Y-39336207D01*
X48260000Y-39355277D01*
X48477977Y-39336207D01*
X48689330Y-39279575D01*
X48887639Y-39187102D01*
X48892072Y-39183998D01*
X48904378Y-39175382D01*
X48967391Y-39153223D01*
X49032758Y-39166969D01*
X49081509Y-39212631D01*
X49099500Y-39276958D01*
X49099500Y-40954547D01*
X49090061Y-41002000D01*
X49063181Y-41042228D01*
X44607696Y-45497711D01*
X44599511Y-45505159D01*
X44593123Y-45509214D01*
X44587788Y-45514894D01*
X44587783Y-45514899D01*
X44547096Y-45558225D01*
X44544392Y-45561016D01*
X44527628Y-45577780D01*
X44527621Y-45577787D01*
X44524880Y-45580529D01*
X44522500Y-45583596D01*
X44522489Y-45583609D01*
X44522400Y-45583725D01*
X44514842Y-45592570D01*
X44490280Y-45618727D01*
X44490273Y-45618736D01*
X44484938Y-45624418D01*
X44481182Y-45631249D01*
X44481179Y-45631254D01*
X44475285Y-45641975D01*
X44464609Y-45658227D01*
X44457109Y-45667896D01*
X44457101Y-45667907D01*
X44452327Y-45674064D01*
X44449234Y-45681208D01*
X44449229Y-45681219D01*
X44434974Y-45714160D01*
X44429838Y-45724643D01*
X44408803Y-45762908D01*
X44406864Y-45770456D01*
X44406863Y-45770461D01*
X44403822Y-45782307D01*
X44397521Y-45800711D01*
X44392658Y-45811948D01*
X44392656Y-45811952D01*
X44389562Y-45819104D01*
X44388342Y-45826803D01*
X44388342Y-45826805D01*
X44382729Y-45862241D01*
X44380361Y-45873676D01*
X44371438Y-45908428D01*
X44371436Y-45908436D01*
X44369500Y-45915981D01*
X44369500Y-45923777D01*
X44369500Y-45936017D01*
X44367974Y-45955402D01*
X44364840Y-45975196D01*
X44365574Y-45982961D01*
X44365574Y-45982964D01*
X44368950Y-46018676D01*
X44369500Y-46030345D01*
X44369500Y-51022530D01*
X44368978Y-51033585D01*
X44367327Y-51040972D01*
X44367571Y-51048758D01*
X44367571Y-51048766D01*
X44369439Y-51108178D01*
X44369500Y-51112073D01*
X44369500Y-51139655D01*
X44369988Y-51143524D01*
X44369989Y-51143530D01*
X44370004Y-51143648D01*
X44370918Y-51155271D01*
X44372045Y-51191135D01*
X44372046Y-51191142D01*
X44372291Y-51198932D01*
X44374467Y-51206424D01*
X44374468Y-51206426D01*
X44377879Y-51218167D01*
X44381825Y-51237220D01*
X44384336Y-51257097D01*
X44387206Y-51264347D01*
X44387208Y-51264353D01*
X44400414Y-51297709D01*
X44404197Y-51308756D01*
X44416382Y-51350695D01*
X44420353Y-51357410D01*
X44420354Y-51357412D01*
X44426581Y-51367942D01*
X44435136Y-51385404D01*
X44439642Y-51396785D01*
X44439643Y-51396788D01*
X44442514Y-51404037D01*
X44464440Y-51434217D01*
X44468181Y-51439365D01*
X44474593Y-51449127D01*
X44492856Y-51480007D01*
X44492859Y-51480012D01*
X44496830Y-51486725D01*
X44502345Y-51492240D01*
X44510990Y-51500885D01*
X44523626Y-51515679D01*
X44530819Y-51525580D01*
X44530823Y-51525584D01*
X44535406Y-51531892D01*
X44541415Y-51536863D01*
X44541416Y-51536864D01*
X44569058Y-51559731D01*
X44577699Y-51567594D01*
X56897402Y-63887298D01*
X56904854Y-63895487D01*
X56908909Y-63901877D01*
X56923282Y-63915374D01*
X56957918Y-63947900D01*
X56960715Y-63950611D01*
X56980224Y-63970120D01*
X56983404Y-63972587D01*
X56992266Y-63980155D01*
X57005715Y-63992785D01*
X57018427Y-64004723D01*
X57018429Y-64004724D01*
X57024113Y-64010062D01*
X57030946Y-64013818D01*
X57030947Y-64013819D01*
X57041668Y-64019713D01*
X57057929Y-64030394D01*
X57073759Y-64042673D01*
X57113849Y-64060021D01*
X57124326Y-64065154D01*
X57162603Y-64086197D01*
X57179652Y-64090574D01*
X57182000Y-64091177D01*
X57200414Y-64097481D01*
X57218799Y-64105438D01*
X57261960Y-64112273D01*
X57273359Y-64114634D01*
X57315676Y-64125500D01*
X57335712Y-64125500D01*
X57355097Y-64127025D01*
X57374891Y-64130160D01*
X57412971Y-64126560D01*
X57418371Y-64126050D01*
X57430040Y-64125500D01*
X57716252Y-64125500D01*
X57766685Y-64136219D01*
X57804781Y-64163895D01*
X57804950Y-64163709D01*
X57806728Y-64165310D01*
X57808398Y-64166523D01*
X57814129Y-64172888D01*
X57967270Y-64284151D01*
X58140197Y-64361144D01*
X58325354Y-64400500D01*
X58508143Y-64400500D01*
X58514646Y-64400500D01*
X58699803Y-64361144D01*
X58872730Y-64284151D01*
X59025871Y-64172888D01*
X59152533Y-64032216D01*
X59247179Y-63868284D01*
X59305674Y-63688256D01*
X59325460Y-63500000D01*
X59305674Y-63311744D01*
X59247179Y-63131716D01*
X59152533Y-62967784D01*
X59068539Y-62874500D01*
X59030220Y-62831942D01*
X59030219Y-62831941D01*
X59025871Y-62827112D01*
X59020613Y-62823292D01*
X59020611Y-62823290D01*
X58877988Y-62719669D01*
X58877987Y-62719668D01*
X58872730Y-62715849D01*
X58866792Y-62713205D01*
X58705745Y-62641501D01*
X58705740Y-62641499D01*
X58699803Y-62638856D01*
X58693444Y-62637504D01*
X58693440Y-62637503D01*
X58521008Y-62600852D01*
X58521005Y-62600851D01*
X58514646Y-62599500D01*
X58325354Y-62599500D01*
X58318995Y-62600851D01*
X58318991Y-62600852D01*
X58146559Y-62637503D01*
X58146552Y-62637505D01*
X58140197Y-62638856D01*
X58134262Y-62641498D01*
X58134254Y-62641501D01*
X57973207Y-62713205D01*
X57973202Y-62713207D01*
X57967270Y-62715849D01*
X57962016Y-62719665D01*
X57962011Y-62719669D01*
X57819388Y-62823290D01*
X57819381Y-62823295D01*
X57814129Y-62827112D01*
X57809780Y-62831941D01*
X57809781Y-62831941D01*
X57808399Y-62833476D01*
X57806728Y-62834689D01*
X57804950Y-62836291D01*
X57804781Y-62836104D01*
X57766685Y-62863781D01*
X57716252Y-62874500D01*
X57705147Y-62874500D01*
X57657694Y-62865061D01*
X57617466Y-62838181D01*
X56576466Y-61797181D01*
X56546216Y-61747818D01*
X56541674Y-61690102D01*
X56563829Y-61636615D01*
X56607852Y-61599015D01*
X56664147Y-61585500D01*
X60649548Y-61585500D01*
X60697001Y-61594939D01*
X60737229Y-61621819D01*
X65101038Y-65985629D01*
X65125278Y-66019927D01*
X65136678Y-66060348D01*
X65140254Y-66094369D01*
X65154326Y-66228256D01*
X65156331Y-66234428D01*
X65156333Y-66234435D01*
X65178865Y-66303780D01*
X65212821Y-66408284D01*
X65216068Y-66413908D01*
X65216069Y-66413910D01*
X65300280Y-66559769D01*
X65307467Y-66572216D01*
X65311811Y-66577041D01*
X65311813Y-66577043D01*
X65429779Y-66708057D01*
X65434129Y-66712888D01*
X65439387Y-66716708D01*
X65439388Y-66716709D01*
X65510699Y-66768519D01*
X65587270Y-66824151D01*
X65760197Y-66901144D01*
X65945354Y-66940500D01*
X65951857Y-66940500D01*
X66015500Y-66940500D01*
X66077500Y-66957113D01*
X66122887Y-67002500D01*
X66139500Y-67064500D01*
X66139500Y-67555500D01*
X66122887Y-67617500D01*
X66077500Y-67662887D01*
X66015500Y-67679500D01*
X65945354Y-67679500D01*
X65938995Y-67680851D01*
X65938991Y-67680852D01*
X65766559Y-67717503D01*
X65766552Y-67717505D01*
X65760197Y-67718856D01*
X65754262Y-67721498D01*
X65754254Y-67721501D01*
X65593207Y-67793205D01*
X65593202Y-67793207D01*
X65587270Y-67795849D01*
X65582016Y-67799665D01*
X65582011Y-67799669D01*
X65439388Y-67903290D01*
X65439381Y-67903295D01*
X65434129Y-67907112D01*
X65429780Y-67911941D01*
X65429781Y-67911941D01*
X65428399Y-67913476D01*
X65426728Y-67914689D01*
X65424950Y-67916291D01*
X65424781Y-67916104D01*
X65386685Y-67943781D01*
X65336252Y-67954500D01*
X48570452Y-67954500D01*
X48522999Y-67945061D01*
X48482771Y-67918181D01*
X33958961Y-53394370D01*
X33934721Y-53360072D01*
X33923321Y-53319650D01*
X33906353Y-53158204D01*
X33906352Y-53158203D01*
X33905674Y-53151744D01*
X33847179Y-52971716D01*
X33752533Y-52807784D01*
X33670483Y-52716659D01*
X33630220Y-52671942D01*
X33630219Y-52671941D01*
X33625871Y-52667112D01*
X33620612Y-52663291D01*
X33620611Y-52663290D01*
X33477988Y-52559669D01*
X33477987Y-52559668D01*
X33472730Y-52555849D01*
X33466792Y-52553205D01*
X33305745Y-52481501D01*
X33305740Y-52481499D01*
X33299803Y-52478856D01*
X33293444Y-52477504D01*
X33293440Y-52477503D01*
X33121008Y-52440852D01*
X33121005Y-52440851D01*
X33114646Y-52439500D01*
X32925354Y-52439500D01*
X32918995Y-52440851D01*
X32918991Y-52440852D01*
X32746559Y-52477503D01*
X32746552Y-52477505D01*
X32740197Y-52478856D01*
X32734262Y-52481498D01*
X32734254Y-52481501D01*
X32573207Y-52553205D01*
X32573202Y-52553207D01*
X32567270Y-52555849D01*
X32562016Y-52559665D01*
X32562011Y-52559669D01*
X32419388Y-52663290D01*
X32419381Y-52663295D01*
X32414129Y-52667112D01*
X32409784Y-52671937D01*
X32409779Y-52671942D01*
X32291813Y-52802956D01*
X32291808Y-52802962D01*
X32287467Y-52807784D01*
X32284222Y-52813404D01*
X32284218Y-52813410D01*
X32196069Y-52966089D01*
X32196066Y-52966094D01*
X32192821Y-52971716D01*
X32190815Y-52977888D01*
X32190813Y-52977894D01*
X32136333Y-53145564D01*
X32136331Y-53145573D01*
X32134326Y-53151744D01*
X32133648Y-53158194D01*
X32133646Y-53158204D01*
X32116679Y-53319649D01*
X32114540Y-53340000D01*
X32115219Y-53346460D01*
X32133646Y-53521795D01*
X32133647Y-53521803D01*
X32134326Y-53528256D01*
X32136331Y-53534428D01*
X32136333Y-53534435D01*
X32190813Y-53702105D01*
X32192821Y-53708284D01*
X32287467Y-53872216D01*
X32414129Y-54012888D01*
X32567270Y-54124151D01*
X32740197Y-54201144D01*
X32925354Y-54240500D01*
X32984548Y-54240500D01*
X33032001Y-54249939D01*
X33072229Y-54276819D01*
X47762707Y-68967297D01*
X47770156Y-68975483D01*
X47774214Y-68981877D01*
X47779899Y-68987215D01*
X47779901Y-68987218D01*
X47823239Y-69027915D01*
X47826035Y-69030625D01*
X47845530Y-69050120D01*
X47848615Y-69052513D01*
X47848701Y-69052580D01*
X47857573Y-69060158D01*
X47889418Y-69090062D01*
X47896248Y-69093817D01*
X47896251Y-69093819D01*
X47906971Y-69099712D01*
X47923222Y-69110386D01*
X47939064Y-69122674D01*
X47946221Y-69125771D01*
X47946223Y-69125772D01*
X47979155Y-69140022D01*
X47989650Y-69145164D01*
X48027908Y-69166197D01*
X48047312Y-69171179D01*
X48065714Y-69177480D01*
X48069777Y-69179238D01*
X48084105Y-69185438D01*
X48121697Y-69191391D01*
X48127239Y-69192269D01*
X48138682Y-69194639D01*
X48173425Y-69203560D01*
X48173426Y-69203560D01*
X48180981Y-69205500D01*
X48201017Y-69205500D01*
X48220402Y-69207025D01*
X48240196Y-69210160D01*
X48278276Y-69206560D01*
X48283676Y-69206050D01*
X48295345Y-69205500D01*
X65255852Y-69205500D01*
X65312147Y-69219015D01*
X65356170Y-69256615D01*
X65378325Y-69310102D01*
X65373783Y-69367818D01*
X65343533Y-69417181D01*
X61737534Y-73023181D01*
X61697306Y-73050061D01*
X61649853Y-73059500D01*
X31206259Y-73059500D01*
X31155824Y-73048780D01*
X31114110Y-73018473D01*
X31090223Y-72991944D01*
X31090216Y-72991938D01*
X31085871Y-72987112D01*
X31080612Y-72983291D01*
X30937988Y-72879669D01*
X30937987Y-72879668D01*
X30932730Y-72875849D01*
X30926792Y-72873205D01*
X30765745Y-72801501D01*
X30765740Y-72801499D01*
X30759803Y-72798856D01*
X30753444Y-72797504D01*
X30753440Y-72797503D01*
X30581008Y-72760852D01*
X30581005Y-72760851D01*
X30574646Y-72759500D01*
X30385354Y-72759500D01*
X30378995Y-72760851D01*
X30378991Y-72760852D01*
X30206559Y-72797503D01*
X30206552Y-72797505D01*
X30200197Y-72798856D01*
X30194262Y-72801498D01*
X30194254Y-72801501D01*
X30033207Y-72873205D01*
X30033202Y-72873207D01*
X30027270Y-72875849D01*
X30022016Y-72879665D01*
X30022011Y-72879669D01*
X29879388Y-72983290D01*
X29879381Y-72983295D01*
X29874129Y-72987112D01*
X29869784Y-72991937D01*
X29869779Y-72991942D01*
X29751813Y-73122956D01*
X29751808Y-73122962D01*
X29747467Y-73127784D01*
X29744222Y-73133404D01*
X29744218Y-73133410D01*
X29656069Y-73286089D01*
X29656066Y-73286094D01*
X29652821Y-73291716D01*
X29650815Y-73297888D01*
X29650813Y-73297894D01*
X29596333Y-73465564D01*
X29596331Y-73465573D01*
X29594326Y-73471744D01*
X29593648Y-73478194D01*
X29593646Y-73478204D01*
X29575962Y-73646464D01*
X29574540Y-73660000D01*
X21204588Y-73660000D01*
X30427771Y-64436819D01*
X30468000Y-64409939D01*
X30515453Y-64400500D01*
X30568143Y-64400500D01*
X30574646Y-64400500D01*
X30759803Y-64361144D01*
X30932730Y-64284151D01*
X31085871Y-64172888D01*
X31212533Y-64032216D01*
X31307179Y-63868284D01*
X31365674Y-63688256D01*
X31385460Y-63500000D01*
X31365674Y-63311744D01*
X31307179Y-63131716D01*
X31212533Y-62967784D01*
X31128539Y-62874500D01*
X31090220Y-62831942D01*
X31090219Y-62831941D01*
X31085871Y-62827112D01*
X31080613Y-62823292D01*
X31080611Y-62823290D01*
X30937988Y-62719669D01*
X30937987Y-62719668D01*
X30932730Y-62715849D01*
X30926792Y-62713205D01*
X30765745Y-62641501D01*
X30765740Y-62641499D01*
X30759803Y-62638856D01*
X30753444Y-62637504D01*
X30753440Y-62637503D01*
X30581008Y-62600852D01*
X30581005Y-62600851D01*
X30574646Y-62599500D01*
X30385354Y-62599500D01*
X30378995Y-62600851D01*
X30378991Y-62600852D01*
X30206559Y-62637503D01*
X30206552Y-62637505D01*
X30200197Y-62638856D01*
X30194262Y-62641498D01*
X30194254Y-62641501D01*
X30033207Y-62713205D01*
X30033202Y-62713207D01*
X30027270Y-62715849D01*
X30022016Y-62719665D01*
X30022011Y-62719669D01*
X29879388Y-62823290D01*
X29879381Y-62823295D01*
X29874129Y-62827112D01*
X29869784Y-62831937D01*
X29869779Y-62831942D01*
X29751813Y-62962956D01*
X29751808Y-62962962D01*
X29747467Y-62967784D01*
X29744222Y-62973404D01*
X29744218Y-62973410D01*
X29656069Y-63126089D01*
X29656066Y-63126094D01*
X29652821Y-63131716D01*
X29650815Y-63137888D01*
X29650813Y-63137894D01*
X29596333Y-63305564D01*
X29596331Y-63305573D01*
X29594326Y-63311744D01*
X29593647Y-63318203D01*
X29593647Y-63318204D01*
X29576678Y-63479650D01*
X29565278Y-63520072D01*
X29541038Y-63554369D01*
X21886868Y-71208540D01*
X21837505Y-71238790D01*
X21779789Y-71243332D01*
X21726302Y-71221177D01*
X21688702Y-71177154D01*
X21675477Y-71122070D01*
X21675659Y-71120000D01*
X21655063Y-70884592D01*
X21593903Y-70656337D01*
X21494035Y-70442171D01*
X21358495Y-70248599D01*
X21191401Y-70081505D01*
X21186968Y-70078401D01*
X21186961Y-70078395D01*
X21005842Y-69951575D01*
X20966976Y-69907257D01*
X20952965Y-69850000D01*
X20966976Y-69792743D01*
X21005842Y-69748425D01*
X21186961Y-69621604D01*
X21186961Y-69621603D01*
X21191401Y-69618495D01*
X21358495Y-69451401D01*
X21494035Y-69257830D01*
X21593903Y-69043663D01*
X21655063Y-68815408D01*
X21675659Y-68580000D01*
X21954540Y-68580000D01*
X21955219Y-68586460D01*
X21973646Y-68761795D01*
X21973647Y-68761803D01*
X21974326Y-68768256D01*
X21976331Y-68774428D01*
X21976333Y-68774435D01*
X22030813Y-68942105D01*
X22032821Y-68948284D01*
X22036068Y-68953908D01*
X22036069Y-68953910D01*
X22116845Y-69093819D01*
X22127467Y-69112216D01*
X22131811Y-69117041D01*
X22131813Y-69117043D01*
X22230798Y-69226976D01*
X22254129Y-69252888D01*
X22259387Y-69256708D01*
X22259388Y-69256709D01*
X22307665Y-69291784D01*
X22407270Y-69364151D01*
X22580197Y-69441144D01*
X22765354Y-69480500D01*
X22948143Y-69480500D01*
X22954646Y-69480500D01*
X23139803Y-69441144D01*
X23312730Y-69364151D01*
X23465871Y-69252888D01*
X23592533Y-69112216D01*
X23687179Y-68948284D01*
X23745674Y-68768256D01*
X23763321Y-68600344D01*
X23774721Y-68559925D01*
X23798958Y-68525630D01*
X27887771Y-64436819D01*
X27928000Y-64409939D01*
X27975453Y-64400500D01*
X28028143Y-64400500D01*
X28034646Y-64400500D01*
X28219803Y-64361144D01*
X28392730Y-64284151D01*
X28545871Y-64172888D01*
X28672533Y-64032216D01*
X28767179Y-63868284D01*
X28825674Y-63688256D01*
X28845460Y-63500000D01*
X28825674Y-63311744D01*
X28767179Y-63131716D01*
X28672533Y-62967784D01*
X28588539Y-62874500D01*
X28550220Y-62831942D01*
X28550219Y-62831941D01*
X28545871Y-62827112D01*
X28540613Y-62823292D01*
X28540611Y-62823290D01*
X28397988Y-62719669D01*
X28397987Y-62719668D01*
X28392730Y-62715849D01*
X28386792Y-62713205D01*
X28225745Y-62641501D01*
X28225740Y-62641499D01*
X28219803Y-62638856D01*
X28213444Y-62637504D01*
X28213440Y-62637503D01*
X28041008Y-62600852D01*
X28041005Y-62600851D01*
X28034646Y-62599500D01*
X27845354Y-62599500D01*
X27838995Y-62600851D01*
X27838991Y-62600852D01*
X27666559Y-62637503D01*
X27666552Y-62637505D01*
X27660197Y-62638856D01*
X27654262Y-62641498D01*
X27654254Y-62641501D01*
X27493207Y-62713205D01*
X27493202Y-62713207D01*
X27487270Y-62715849D01*
X27482016Y-62719665D01*
X27482011Y-62719669D01*
X27339388Y-62823290D01*
X27339381Y-62823295D01*
X27334129Y-62827112D01*
X27329784Y-62831937D01*
X27329779Y-62831942D01*
X27211813Y-62962956D01*
X27211808Y-62962962D01*
X27207467Y-62967784D01*
X27204222Y-62973404D01*
X27204218Y-62973410D01*
X27116069Y-63126089D01*
X27116066Y-63126094D01*
X27112821Y-63131716D01*
X27110815Y-63137888D01*
X27110813Y-63137894D01*
X27056333Y-63305564D01*
X27056331Y-63305573D01*
X27054326Y-63311744D01*
X27053647Y-63318203D01*
X27053647Y-63318204D01*
X27036678Y-63479651D01*
X27025278Y-63520072D01*
X27001038Y-63554370D01*
X22912228Y-67643181D01*
X22872000Y-67670061D01*
X22824547Y-67679500D01*
X22765354Y-67679500D01*
X22758995Y-67680851D01*
X22758991Y-67680852D01*
X22586559Y-67717503D01*
X22586552Y-67717505D01*
X22580197Y-67718856D01*
X22574262Y-67721498D01*
X22574254Y-67721501D01*
X22413207Y-67793205D01*
X22413202Y-67793207D01*
X22407270Y-67795849D01*
X22402016Y-67799665D01*
X22402011Y-67799669D01*
X22259388Y-67903290D01*
X22259381Y-67903295D01*
X22254129Y-67907112D01*
X22249784Y-67911937D01*
X22249779Y-67911942D01*
X22131813Y-68042956D01*
X22131808Y-68042962D01*
X22127467Y-68047784D01*
X22124222Y-68053404D01*
X22124218Y-68053410D01*
X22036069Y-68206089D01*
X22036066Y-68206094D01*
X22032821Y-68211716D01*
X22030815Y-68217888D01*
X22030813Y-68217894D01*
X21976333Y-68385564D01*
X21976331Y-68385573D01*
X21974326Y-68391744D01*
X21973648Y-68398194D01*
X21973646Y-68398204D01*
X21956650Y-68559925D01*
X21954540Y-68580000D01*
X21675659Y-68580000D01*
X21655063Y-68344592D01*
X21593903Y-68116337D01*
X21494035Y-67902171D01*
X21358495Y-67708599D01*
X21191401Y-67541505D01*
X21186970Y-67538402D01*
X21186966Y-67538399D01*
X21005405Y-67411269D01*
X20966540Y-67366951D01*
X20952529Y-67309694D01*
X20966540Y-67252437D01*
X21005406Y-67208119D01*
X21186638Y-67081219D01*
X21194909Y-67074278D01*
X21354278Y-66914909D01*
X21361215Y-66906643D01*
X21490498Y-66722008D01*
X21495886Y-66712676D01*
X21591143Y-66508397D01*
X21594831Y-66498263D01*
X21646943Y-66303780D01*
X21647311Y-66292551D01*
X21636369Y-66290000D01*
X20194000Y-66290000D01*
X20132000Y-66273387D01*
X20086613Y-66228000D01*
X20070000Y-66166000D01*
X20070000Y-65773674D01*
X20570000Y-65773674D01*
X20573450Y-65786549D01*
X20586326Y-65790000D01*
X21636369Y-65790000D01*
X21647311Y-65787448D01*
X21646943Y-65776219D01*
X21594831Y-65581736D01*
X21591143Y-65571602D01*
X21495889Y-65367332D01*
X21490491Y-65357982D01*
X21361215Y-65173357D01*
X21354280Y-65165092D01*
X21194909Y-65005721D01*
X21186643Y-64998784D01*
X21002008Y-64869501D01*
X20992676Y-64864113D01*
X20788397Y-64768856D01*
X20778263Y-64765168D01*
X20583780Y-64713056D01*
X20572551Y-64712688D01*
X20570000Y-64723631D01*
X20570000Y-65773674D01*
X20070000Y-65773674D01*
X20070000Y-64723631D01*
X20067448Y-64712688D01*
X20056219Y-64713056D01*
X19861736Y-64765168D01*
X19851602Y-64768856D01*
X19647332Y-64864110D01*
X19637982Y-64869508D01*
X19453357Y-64998784D01*
X19445092Y-65005719D01*
X19285719Y-65165092D01*
X19278788Y-65173352D01*
X19151880Y-65354596D01*
X19107562Y-65393461D01*
X19050305Y-65407472D01*
X18993048Y-65393461D01*
X18948730Y-65354595D01*
X18818495Y-65168599D01*
X18651401Y-65001505D01*
X18646970Y-64998402D01*
X18646966Y-64998399D01*
X18462259Y-64869066D01*
X18462257Y-64869064D01*
X18457830Y-64865965D01*
X18452933Y-64863681D01*
X18452927Y-64863678D01*
X18248572Y-64768386D01*
X18248570Y-64768385D01*
X18243663Y-64766097D01*
X18238438Y-64764697D01*
X18238430Y-64764694D01*
X18020634Y-64706337D01*
X18020630Y-64706336D01*
X18015408Y-64704937D01*
X18010020Y-64704465D01*
X18010017Y-64704465D01*
X17785395Y-64684813D01*
X17780000Y-64684341D01*
X17774605Y-64684813D01*
X17549982Y-64704465D01*
X17549977Y-64704465D01*
X17544592Y-64704937D01*
X17539371Y-64706335D01*
X17539365Y-64706337D01*
X17321569Y-64764694D01*
X17321557Y-64764698D01*
X17316337Y-64766097D01*
X17311432Y-64768383D01*
X17311427Y-64768386D01*
X17107081Y-64863675D01*
X17107077Y-64863677D01*
X17102171Y-64865965D01*
X17097738Y-64869068D01*
X17097731Y-64869073D01*
X16913034Y-64998399D01*
X16913029Y-64998402D01*
X16908599Y-65001505D01*
X16904775Y-65005328D01*
X16904769Y-65005334D01*
X16745334Y-65164769D01*
X16745328Y-65164775D01*
X16741505Y-65168599D01*
X16738402Y-65173029D01*
X16738399Y-65173034D01*
X16609073Y-65357731D01*
X16609068Y-65357738D01*
X16605965Y-65362171D01*
X16603677Y-65367077D01*
X16603675Y-65367081D01*
X16508386Y-65571427D01*
X16508383Y-65571432D01*
X16506097Y-65576337D01*
X16504698Y-65581557D01*
X16504694Y-65581569D01*
X16446337Y-65799365D01*
X16446335Y-65799371D01*
X16444937Y-65804592D01*
X16444465Y-65809977D01*
X16444465Y-65809982D01*
X16440246Y-65858204D01*
X16424341Y-66040000D01*
X16424813Y-66045395D01*
X16440811Y-66228256D01*
X16444937Y-66275408D01*
X16446336Y-66280630D01*
X16446337Y-66280634D01*
X16504694Y-66498430D01*
X16504697Y-66498438D01*
X16506097Y-66503663D01*
X16508385Y-66508570D01*
X16508386Y-66508572D01*
X16603678Y-66712927D01*
X16603681Y-66712933D01*
X16605965Y-66717830D01*
X16609064Y-66722257D01*
X16609066Y-66722259D01*
X16738399Y-66906966D01*
X16738402Y-66906970D01*
X16741505Y-66911401D01*
X16908599Y-67078495D01*
X16913032Y-67081599D01*
X16913038Y-67081604D01*
X17094158Y-67208425D01*
X17133024Y-67252743D01*
X17147035Y-67310000D01*
X17133024Y-67367257D01*
X17094159Y-67411575D01*
X16913041Y-67538395D01*
X16908599Y-67541505D01*
X16904775Y-67545328D01*
X16904769Y-67545334D01*
X16745334Y-67704769D01*
X16745328Y-67704775D01*
X16741505Y-67708599D01*
X16738402Y-67713029D01*
X16738399Y-67713034D01*
X16609073Y-67897731D01*
X16609068Y-67897738D01*
X16605965Y-67902171D01*
X16603677Y-67907077D01*
X16603675Y-67907081D01*
X16508386Y-68111427D01*
X16508383Y-68111432D01*
X16506097Y-68116337D01*
X16504698Y-68121557D01*
X16504694Y-68121569D01*
X16446337Y-68339365D01*
X16446335Y-68339371D01*
X16444937Y-68344592D01*
X16444465Y-68349977D01*
X16444465Y-68349982D01*
X16440246Y-68398204D01*
X16424341Y-68580000D01*
X12700500Y-68580000D01*
X12700500Y-12824500D01*
X12717113Y-12762500D01*
X12762500Y-12717113D01*
X12824500Y-12700500D01*
X111635500Y-12700500D01*
X111697500Y-12717113D01*
G37*
%TD.AperFunction*%
%TD*%
M02*
